<svg width="174" height="68" viewBox="0 0 174 68" fill="none" xmlns="http://www.w3.org/2000/svg">
<g clip-path="url(#clip0_1_3)">
<path d="M6.55509 47.8124C5.85986 47.8998 5.13284 47.9435 4.37006 47.9435C2.74122 47.9435 1.605 47.6654 0.961414 47.1092C0.317823 46.553 0 45.5479 0 44.0939V15.9546C0.381387 15.8871 0.925659 15.7997 1.63679 15.6924C2.34792 15.5892 3.0511 15.5375 3.74236 15.5375C5.30367 15.5375 6.42796 15.7997 7.1232 16.3162C7.81844 16.8366 8.16407 17.8616 8.16407 19.3871V28.5404H19.3475V15.9546C19.7288 15.8871 20.2731 15.7997 20.9842 15.6924C21.6954 15.5892 22.4144 15.5375 23.1415 15.5375C24.667 15.5375 25.7754 15.8156 26.4707 16.3718C27.1619 16.928 27.5115 17.9688 27.5115 19.4944V47.5303C27.1301 47.6336 26.5938 47.729 25.8986 47.8164C25.2033 47.9038 24.4763 47.9475 23.7135 47.9475C22.0847 47.9475 20.9485 47.6694 20.3089 47.1132C19.6653 46.557 19.3475 45.5519 19.3475 44.0979V34.9962H8.16407V47.5303C7.78268 47.6336 7.24636 47.729 6.55112 47.8164" fill="#00F4BD"/>
<path d="M50.4703 40.6614H40.2761C39.8947 41.9088 39.5411 43.1404 39.2114 44.3561C38.8817 45.5717 38.5956 46.6444 38.3533 47.582C37.9004 47.721 37.4356 47.8402 36.9469 47.9475C36.4622 48.0508 35.8703 48.1024 35.179 48.1024C33.6535 48.1024 32.5014 47.8323 31.7187 47.2959C30.9401 46.7596 30.5468 45.9889 30.5468 44.9798C30.5468 44.4951 30.6143 44.0263 30.7533 43.5734C30.8924 43.1245 31.0473 42.6041 31.2221 42.0121C31.4645 41.0746 31.8101 39.9145 32.263 38.528C32.7119 37.1415 33.2085 35.6398 33.7448 34.0268C34.2812 32.4139 34.8453 30.7572 35.4372 29.0609C36.0252 27.3605 36.5973 25.7396 37.1535 24.1982C37.7097 22.6567 38.2103 21.2424 38.6632 19.9592C39.1121 18.676 39.4974 17.655 39.8073 16.8882C40.3277 16.5784 41.1342 16.2804 42.2267 16.0023C43.3193 15.7242 44.4038 15.5852 45.4765 15.5852C47.0378 15.5852 48.4163 15.8037 49.6121 16.2367C50.808 16.6697 51.5787 17.3888 51.9283 18.3939C52.5878 20.2333 53.2989 22.3667 54.0617 24.7901C54.8244 27.2175 55.5952 29.7164 56.3778 32.2788C57.1565 34.8452 57.9113 37.3759 58.6423 39.8748C59.3693 42.3697 60.0129 44.6064 60.5651 46.5848C60.1837 47.0377 59.6196 47.3992 58.8727 47.6773C58.1258 47.9554 57.2359 48.0945 56.195 48.0945C54.7053 48.0945 53.6525 47.8362 53.0486 47.3158C52.4408 46.7954 51.9998 45.9809 51.7217 44.8725L50.4742 40.6614H50.4703ZM45.4248 22.8713C44.9401 24.4326 44.3403 26.2084 43.6291 28.2027C42.918 30.1971 42.2506 32.2351 41.6268 34.3169H49.0639C48.472 32.1318 47.876 30.0421 47.2682 28.0478C46.6604 26.0535 46.1479 24.3293 45.7347 22.8713H45.4209H45.4248Z" fill="#00F4BD"/>
<path d="M87.3575 43.5734C87.3575 44.2647 87.1748 44.9162 86.8093 45.5241C86.4438 46.1319 85.8121 46.6444 84.9103 47.0576C84.219 47.4032 83.2815 47.725 82.1015 48.019C80.9216 48.313 79.4636 48.46 77.7315 48.46C75.4074 48.46 73.2422 48.1302 71.232 47.4747C69.2178 46.8152 67.4698 45.8101 65.976 44.4554C64.4862 43.1007 63.3142 41.3805 62.468 39.2789C61.6179 37.1852 61.1928 34.6943 61.1928 31.818C61.1928 29.1125 61.6179 26.7209 62.468 24.6391C63.3182 22.5614 64.4703 20.8173 65.9244 19.4149C66.3058 19.0494 66.703 18.7038 67.1162 18.386C68.2882 17.4762 69.5873 16.7571 71.0214 16.2168C71.6491 15.9824 72.2927 15.7838 72.9482 15.6249C74.3228 15.2912 75.761 15.1243 77.2627 15.1243C77.3858 15.1243 77.509 15.1243 77.6282 15.1243C78.1129 15.1323 78.5777 15.1482 79.0266 15.1799C79.0385 15.1799 79.0544 15.1799 79.0663 15.1839C81.8513 15.4461 84.0562 16.3797 84.0562 16.3797L84.0681 16.3519C84.2508 16.4393 84.4256 16.5307 84.5965 16.63C84.8428 16.773 85.0692 16.92 85.2837 17.075C86.559 17.9967 87.1986 19.117 87.1986 20.424C87.1986 21.2226 86.992 21.9257 86.5749 22.5296C86.1578 23.1374 85.6731 23.6142 85.1169 23.9598C84.2151 23.3718 83.2338 22.8514 82.177 22.3985C81.1203 21.9496 79.8609 21.7231 78.4069 21.7231C75.6299 21.7231 73.4647 22.5971 71.9034 24.3491C70.3421 26.1011 69.5634 28.5881 69.5634 31.814C69.5634 35.0399 70.3858 37.65 72.0345 39.3305C73.6792 41.011 75.9437 41.8532 78.82 41.8532C80.0317 41.8532 81.1004 41.7221 82.0261 41.4559C82.2406 41.3963 82.4472 41.3288 82.6458 41.2533C82.6696 41.2414 82.6975 41.2335 82.7253 41.2215C82.7968 41.1937 82.8683 41.1659 82.9438 41.1381C83.0391 41.0984 83.1384 41.0587 83.2338 41.0189C83.4284 40.9395 83.6152 40.8561 83.8059 40.7687C84.4296 40.4826 85.0255 40.1648 85.5896 39.8192C86.1101 40.2363 86.5352 40.7647 86.8649 41.4083C87.1946 42.0519 87.3575 42.7709 87.3575 43.5695" fill="#00F4BD"/>
<path d="M95.4739 47.9435C93.8451 47.9435 92.7089 47.6654 92.0653 47.1132C91.4217 46.557 91.1039 45.5519 91.1039 44.0979V15.9507C91.4853 15.8831 92.0295 15.7957 92.7407 15.6924C93.4518 15.5892 94.1709 15.5375 94.8979 15.5375C96.4592 15.5375 97.5755 15.7957 98.2549 16.3162C98.9303 16.8366 99.2679 17.8616 99.2679 19.3832V47.5224C98.8866 47.6257 98.3502 47.721 97.655 47.8084C96.9598 47.8958 96.2327 47.9395 95.47 47.9395" fill="#00F4BD"/>
<path d="M111.675 47.8362C110.98 47.9395 110.253 47.9912 109.49 47.9912C107.861 47.9912 106.725 47.7051 106.081 47.1331C105.438 46.561 105.12 45.5479 105.12 44.0899V15.9507C105.501 15.8831 106.046 15.7957 106.757 15.6924C107.468 15.5892 108.171 15.5375 108.862 15.5375C110.424 15.5375 111.548 15.7957 112.243 16.3162C112.934 16.8366 113.284 17.8616 113.284 19.3832V28.747L124.777 15.7441C126.859 15.7441 128.349 16.1334 129.251 16.9161C130.152 17.6947 130.601 18.6403 130.601 19.7526C130.601 20.5869 130.403 21.3576 130.001 22.0688C129.604 22.7799 128.953 23.5864 128.051 24.4882L120.665 31.8736C123.057 34.4758 125.218 36.7998 127.141 38.8419C129.068 40.8878 130.653 42.5366 131.9 43.784C131.865 45.1387 131.408 46.1955 130.522 46.9583C129.636 47.721 128.607 48.1024 127.427 48.1024C126.144 48.1024 125.095 47.7806 124.281 47.141C123.466 46.5014 122.676 45.7466 121.913 44.8765L113.28 35.0995V47.5303C112.899 47.6336 112.362 47.7369 111.667 47.8442" fill="#00F4BD"/>
<path d="M82.5028 64.2518C82.5028 64.4584 82.4631 64.6093 82.3876 64.7087C82.3082 64.808 82.185 64.9073 82.0181 65.0066C81.9188 65.0622 81.7996 65.1179 81.6566 65.1655C81.5136 65.2132 81.3587 65.2569 81.1839 65.2927C81.0091 65.3284 80.8303 65.3562 80.6436 65.3761C80.4568 65.396 80.2701 65.4079 80.0874 65.4079C79.5788 65.4079 79.1061 65.3443 78.6731 65.2132C78.24 65.0821 77.8586 64.8795 77.5329 64.6014C77.2071 64.3273 76.9528 63.9777 76.7701 63.5526C76.5873 63.1275 76.496 62.619 76.496 62.027C76.496 61.4669 76.5873 60.9743 76.778 60.5492C76.9648 60.1201 77.219 59.7625 77.5408 59.4765C77.8626 59.1905 78.24 58.9759 78.677 58.8289C79.114 58.6859 79.5789 58.6104 80.0834 58.6104C80.7389 58.6104 81.2633 58.7137 81.6526 58.9163C82.042 59.1229 82.2366 59.3812 82.2366 59.699C82.2366 59.8619 82.1929 60.0049 82.1095 60.128C82.0261 60.2512 81.9268 60.3505 81.8116 60.4181C81.6328 60.3068 81.4143 60.1996 81.1481 60.1002C80.8819 60.0009 80.5681 59.9532 80.2105 59.9532C79.9126 59.9532 79.6424 60.0009 79.4001 60.0963C79.1577 60.1916 78.9472 60.3267 78.7684 60.5055C78.5936 60.6842 78.4546 60.8988 78.3552 61.153C78.2559 61.4073 78.2082 61.6933 78.2082 62.0111C78.2082 62.3568 78.2559 62.6587 78.3513 62.9169C78.4466 63.1752 78.5777 63.3897 78.7485 63.5566C78.9194 63.7234 79.122 63.8545 79.3603 63.9379C79.5987 64.0214 79.853 64.0651 80.1271 64.0651C80.2979 64.0651 80.4529 64.0492 80.5879 64.0134C80.727 63.9777 80.8343 63.9419 80.9097 63.9062V62.7064H79.6901C79.6464 62.6349 79.6106 62.5435 79.5749 62.4323C79.5391 62.321 79.5232 62.1979 79.5232 62.0707C79.5232 61.8443 79.5749 61.6774 79.6821 61.5741C79.7894 61.4669 79.9245 61.4152 80.0953 61.4152H81.8791C82.0777 61.4152 82.2327 61.4708 82.3439 61.5781C82.4551 61.6894 82.5147 61.8403 82.5147 62.039V64.2438L82.5028 64.2518Z" fill="white"/>
<path d="M89.487 59.4567C89.487 59.5401 89.4552 59.6632 89.3956 59.8182C89.336 59.9731 89.2327 60.1876 89.0817 60.4657C88.9348 60.7399 88.7321 61.0934 88.4819 61.5146C88.2316 61.9396 87.9138 62.4601 87.5324 63.0719V65.2132C87.4529 65.2331 87.3456 65.2529 87.2106 65.2728C87.0715 65.2887 86.9285 65.3006 86.7815 65.3006C86.4478 65.3006 86.2174 65.245 86.0902 65.1298C85.9631 65.0185 85.8995 64.8199 85.8995 64.5378V63.0639C85.7168 62.7938 85.5182 62.4919 85.3076 62.1581C85.097 61.8205 84.8865 61.4828 84.6839 61.1411C84.4773 60.7994 84.2866 60.4618 84.1118 60.128C83.933 59.7943 83.794 59.5004 83.6867 59.2381C83.7662 59.119 83.8774 59.0077 84.0204 58.9084C84.1634 58.8091 84.3422 58.7614 84.5567 58.7614C84.8031 58.7614 85.0057 58.8131 85.1606 58.9164C85.3156 59.0196 85.4625 59.2103 85.6056 59.4964C85.6215 59.5162 85.6532 59.5838 85.7128 59.691C85.7684 59.8023 85.836 59.9294 85.9075 60.0724C85.983 60.2194 86.0624 60.3744 86.1459 60.5452C86.2293 60.716 86.3087 60.871 86.3842 61.018C86.4597 61.161 86.5233 61.2881 86.5789 61.3954C86.6345 61.5026 86.6703 61.5662 86.6862 61.5861H86.7378C86.849 61.3517 86.9563 61.1292 87.0517 60.9186C87.147 60.7081 87.2424 60.4975 87.3337 60.287C87.4251 60.0804 87.5204 59.8658 87.6158 59.6513C87.7111 59.4368 87.8105 59.2024 87.9177 58.9481C88.0329 58.8925 88.1561 58.8488 88.2951 58.817C88.4342 58.7853 88.5613 58.7694 88.6805 58.7694C88.9069 58.7694 89.0976 58.829 89.2526 58.9481C89.4075 59.0673 89.487 59.2421 89.487 59.4686" fill="white"/>
<path d="M94.8741 65.0384C94.7827 65.1179 94.6436 65.1814 94.4569 65.241C94.2702 65.2966 94.0676 65.3244 93.8451 65.3244C93.575 65.3244 93.3445 65.2847 93.1538 65.2092C92.9631 65.1298 92.832 65.0225 92.7605 64.8795C92.6771 64.7087 92.5778 64.4941 92.4626 64.228C92.3474 63.9618 92.2322 63.6678 92.109 63.346C91.9858 63.0242 91.8547 62.6786 91.7236 62.3131C91.5886 61.9476 91.4614 61.5781 91.3383 61.2047C91.2151 60.8352 91.0959 60.4697 90.9887 60.1122C90.8774 59.7546 90.7861 59.4249 90.7066 59.119C90.798 59.0355 90.9291 58.9521 91.092 58.8766C91.2548 58.8011 91.4376 58.7614 91.6283 58.7614C91.8627 58.7614 92.0494 58.8131 92.1964 58.9164C92.3394 59.0196 92.4507 59.2024 92.5301 59.4646C92.7407 60.1996 92.9552 60.9067 93.1658 61.5861C93.3763 62.2654 93.6028 62.9646 93.8451 63.6877H93.9087C94.1192 63.0004 94.3377 62.2455 94.5642 61.4192C94.7906 60.5929 95.0012 59.7705 95.1998 58.9601C95.3111 58.9044 95.4342 58.8568 95.5613 58.821C95.6885 58.7852 95.8355 58.7694 95.9983 58.7694C96.2327 58.7694 96.4314 58.821 96.5982 58.9283C96.7651 59.0355 96.8485 59.2064 96.8485 59.4487C96.8485 59.5957 96.8128 59.8182 96.7373 60.1161C96.6618 60.4141 96.5665 60.7478 96.4473 61.1252C96.3281 61.4987 96.193 61.892 96.046 62.3012C95.899 62.7104 95.752 63.0997 95.605 63.4692C95.458 63.8386 95.323 64.1644 95.1919 64.4465C95.0608 64.7285 94.9575 64.9311 94.878 65.0503" fill="white"/>
<path d="M101.151 65.4079C100.714 65.4079 100.321 65.3483 99.9791 65.2291C99.6374 65.1099 99.3434 64.9391 99.1051 64.7206C98.8627 64.5021 98.68 64.2359 98.5529 63.93C98.4257 63.6241 98.3622 63.2785 98.3622 62.8971V58.7813C98.4416 58.7654 98.5528 58.7495 98.6959 58.7296C98.8389 58.7098 98.9859 58.6978 99.1368 58.6978C99.4547 58.6978 99.6811 58.7495 99.8202 58.8567C99.9592 58.964 100.027 59.1706 100.027 59.4844V62.8693C100.027 63.2506 100.13 63.5446 100.341 63.7552C100.547 63.9618 100.821 64.069 101.151 64.069C101.481 64.069 101.763 63.9657 101.973 63.7552C102.18 63.5486 102.287 63.2506 102.287 62.8693V58.7852C102.367 58.7693 102.478 58.7535 102.621 58.7336C102.764 58.7137 102.911 58.7018 103.062 58.7018C103.38 58.7018 103.61 58.7535 103.745 58.8607C103.884 58.968 103.952 59.1746 103.952 59.4884V62.905C103.952 63.2864 103.888 63.632 103.761 63.9379C103.634 64.2438 103.451 64.51 103.209 64.7285C102.971 64.947 102.677 65.1178 102.331 65.237C101.985 65.3562 101.592 65.4158 101.155 65.4158M99.5381 57.8874C99.5023 57.8159 99.4666 57.7285 99.4308 57.6212C99.3951 57.5139 99.3792 57.4067 99.3792 57.2915C99.3792 57.0571 99.4269 56.8942 99.5222 56.7988C99.6176 56.7035 99.7487 56.6558 99.9076 56.6558H102.645C102.7 56.7273 102.74 56.8147 102.768 56.9141C102.792 57.0173 102.804 57.1286 102.804 57.2478C102.804 57.4822 102.756 57.645 102.661 57.7404C102.565 57.8357 102.434 57.8834 102.271 57.8834H99.5341L99.5381 57.8874Z" fill="white"/>
<path d="M111.298 65.2331C111.127 65.2847 110.928 65.3125 110.694 65.3125C110.459 65.3125 110.229 65.2728 110.014 65.1973C109.804 65.1179 109.625 64.943 109.486 64.6689L108.254 62.2932C108.135 62.0668 108.024 61.8403 107.921 61.6139C107.817 61.3874 107.718 61.153 107.619 60.9027L107.543 60.9226C107.579 61.3477 107.599 61.7529 107.607 62.1383C107.615 62.5236 107.619 62.8971 107.619 63.2586V65.2331C107.547 65.245 107.444 65.2648 107.305 65.2807C107.166 65.2966 107.023 65.3085 106.876 65.3085C106.558 65.3085 106.336 65.2529 106.208 65.1457C106.081 65.0344 106.018 64.8398 106.018 64.5577V59.0951C106.101 58.9759 106.24 58.8806 106.427 58.813C106.614 58.7455 106.816 58.7137 107.027 58.7137C107.273 58.7137 107.504 58.7535 107.71 58.8289C107.917 58.9084 108.095 59.0792 108.235 59.3494L109.474 61.737C109.593 61.9635 109.704 62.1899 109.808 62.4164C109.911 62.6428 110.01 62.8812 110.11 63.1275L110.153 63.1156C110.118 62.6428 110.098 62.1939 110.094 61.7688C110.09 61.3437 110.09 60.9385 110.09 60.5492V58.7892C110.161 58.7733 110.265 58.7574 110.404 58.7376C110.543 58.7177 110.69 58.7058 110.845 58.7058C111.162 58.7058 111.385 58.7614 111.512 58.8687C111.639 58.9759 111.703 59.1746 111.703 59.4566V65.0344C111.603 65.1179 111.468 65.1894 111.302 65.241" fill="white"/>
<path d="M118.786 64.5378C118.413 64.9709 117.88 65.241 117.197 65.3523C117.114 65.4516 117.07 65.5787 117.07 65.7336C117.07 66.0594 117.269 66.2223 117.666 66.2223H117.741C117.761 66.2779 117.781 66.3415 117.793 66.409C117.809 66.4766 117.813 66.5481 117.813 66.6275C117.813 66.8103 117.745 66.9771 117.618 67.1201C117.487 67.2632 117.249 67.3387 116.903 67.3387C116.522 67.3387 116.208 67.2433 115.966 67.0486C115.723 66.854 115.6 66.5838 115.6 66.2382C115.6 66.0475 115.632 65.8767 115.699 65.7297C115.767 65.5827 115.85 65.4595 115.95 65.3602C115.258 65.2609 114.718 64.9947 114.337 64.5577C113.955 64.1247 113.765 63.5685 113.765 62.8971V58.7813C113.844 58.7654 113.955 58.7495 114.098 58.7296C114.241 58.7098 114.388 58.6978 114.539 58.6978C114.857 58.6978 115.088 58.7495 115.223 58.8568C115.362 58.964 115.429 59.1706 115.429 59.4845V62.8693C115.429 63.2507 115.533 63.5446 115.743 63.7552C115.95 63.9658 116.224 64.0691 116.554 64.0691C116.883 64.0691 117.165 63.9658 117.376 63.7552C117.583 63.5486 117.69 63.2507 117.69 62.8693V58.7852C117.769 58.7694 117.88 58.7535 118.023 58.7336C118.166 58.7137 118.313 58.7018 118.464 58.7018C118.782 58.7018 119.013 58.7535 119.148 58.8607C119.287 58.968 119.354 59.1746 119.354 59.4884V62.905C119.354 63.5685 119.168 64.1167 118.79 64.5498" fill="white"/>
<path d="M125.743 65.2807C125.6 65.3006 125.453 65.3125 125.298 65.3125C124.964 65.3125 124.733 65.2529 124.602 65.1377C124.471 65.0225 124.408 64.812 124.408 64.518V58.7813C124.487 58.7654 124.598 58.7495 124.741 58.7296C124.888 58.7098 125.031 58.6978 125.17 58.6978C125.488 58.6978 125.719 58.7495 125.862 58.8568C126.001 58.964 126.072 59.1706 126.072 59.4805V61.3914L128.416 58.7415C128.841 58.7415 129.143 58.821 129.33 58.9799C129.513 59.1388 129.604 59.3335 129.604 59.556C129.604 59.7268 129.564 59.8817 129.481 60.0287C129.398 60.1757 129.266 60.3386 129.084 60.5214L127.578 62.027C128.067 62.5554 128.508 63.0322 128.897 63.4493C129.29 63.8664 129.612 64.2002 129.866 64.4584C129.858 64.7325 129.767 64.951 129.584 65.1059C129.402 65.2609 129.195 65.3403 128.953 65.3403C128.69 65.3403 128.476 65.2768 128.309 65.1457C128.142 65.0146 127.983 64.8596 127.828 64.6848L126.068 62.6905V65.2251C125.989 65.245 125.882 65.2688 125.739 65.2887" fill="white"/>
<path d="M131.618 65.0106C131.459 64.8517 131.38 64.6372 131.38 64.371V58.7813C131.459 58.7694 131.571 58.7495 131.714 58.7296C131.861 58.7098 132.004 58.6978 132.143 58.6978C132.461 58.6978 132.691 58.7495 132.834 58.8568C132.973 58.964 133.045 59.1706 133.045 59.4845V63.9062H135.591C135.635 63.9777 135.675 64.0691 135.714 64.1803C135.754 64.2955 135.774 64.4187 135.774 64.5498C135.774 64.7841 135.722 64.959 135.619 65.0742C135.516 65.1894 135.377 65.249 135.202 65.249H132.262C131.992 65.249 131.781 65.1695 131.622 65.0106" fill="white"/>
<path d="M138.201 65.3006C137.868 65.3006 137.637 65.245 137.506 65.1298C137.375 65.0185 137.311 64.8119 137.311 64.514V58.7773C137.391 58.7614 137.502 58.7455 137.645 58.7256C137.788 58.7058 137.935 58.6938 138.086 58.6938C138.404 58.6938 138.634 58.7455 138.769 58.8528C138.908 58.96 138.976 59.1666 138.976 59.4805V65.2172C138.896 65.237 138.789 65.2569 138.646 65.2768C138.503 65.2966 138.356 65.3046 138.201 65.3046" fill="white"/>
<path d="M146.353 65.2331C146.183 65.2847 145.984 65.3125 145.75 65.3125C145.515 65.3125 145.285 65.2728 145.07 65.1973C144.86 65.1179 144.681 64.943 144.542 64.6689L143.31 62.2932C143.191 62.0668 143.08 61.8403 142.977 61.6139C142.873 61.3874 142.774 61.153 142.675 60.9027L142.599 60.9226C142.635 61.3477 142.655 61.7529 142.663 62.1383C142.671 62.5236 142.675 62.8971 142.675 63.2586V65.2331C142.603 65.245 142.5 65.2648 142.361 65.2807C142.222 65.2966 142.079 65.3085 141.932 65.3085C141.614 65.3085 141.391 65.2529 141.264 65.1457C141.137 65.0344 141.074 64.8398 141.074 64.5577V59.0951C141.157 58.9759 141.296 58.8806 141.483 58.813C141.669 58.7455 141.872 58.7137 142.083 58.7137C142.329 58.7137 142.559 58.7535 142.766 58.8289C142.973 58.9084 143.151 59.0792 143.29 59.3494L144.53 61.737C144.649 61.9635 144.76 62.1899 144.864 62.4164C144.967 62.6428 145.066 62.8812 145.166 63.1275L145.209 63.1156C145.173 62.6428 145.154 62.1939 145.15 61.7688C145.146 61.3437 145.146 60.9385 145.146 60.5492V58.7892C145.217 58.7733 145.32 58.7574 145.46 58.7376C145.599 58.7177 145.746 58.7058 145.9 58.7058C146.218 58.7058 146.441 58.7614 146.568 58.8687C146.695 58.9759 146.759 59.1746 146.759 59.4566V65.0344C146.659 65.1179 146.524 65.1894 146.357 65.241" fill="white"/>
<path d="M149.746 65.3006C149.412 65.3006 149.182 65.245 149.051 65.1298C148.92 65.0185 148.856 64.8119 148.856 64.514V58.7773C148.936 58.7614 149.047 58.7455 149.19 58.7256C149.333 58.7058 149.48 58.6938 149.631 58.6938C149.949 58.6938 150.179 58.7455 150.314 58.8528C150.453 58.96 150.521 59.1666 150.521 59.4805V65.2172C150.441 65.237 150.334 65.2569 150.191 65.2768C150.048 65.2966 149.901 65.3046 149.746 65.3046" fill="white"/>
<path d="M153.953 65.2807C153.81 65.3006 153.663 65.3125 153.508 65.3125C153.175 65.3125 152.944 65.2529 152.813 65.1377C152.682 65.0225 152.618 64.812 152.618 64.518V58.7813C152.698 58.7654 152.809 58.7495 152.952 58.7296C153.099 58.7098 153.242 58.6978 153.381 58.6978C153.699 58.6978 153.929 58.7495 154.073 58.8568C154.212 58.964 154.283 59.1706 154.283 59.4805V61.3914L156.627 58.7415C157.052 58.7415 157.354 58.821 157.541 58.9799C157.723 59.1388 157.815 59.3335 157.815 59.556C157.815 59.7268 157.775 59.8817 157.692 60.0287C157.608 60.1757 157.477 60.3386 157.294 60.5214L155.789 62.027C156.277 62.5554 156.718 63.0322 157.108 63.4493C157.501 63.8664 157.823 64.2002 158.077 64.4584C158.069 64.7325 157.978 64.951 157.795 65.1059C157.612 65.2609 157.406 65.3403 157.163 65.3403C156.901 65.3403 156.687 65.2768 156.524 65.1457C156.357 65.0146 156.198 64.8596 156.043 64.6848L154.283 62.6905V65.2251C154.204 65.245 154.096 65.2688 153.953 65.2887" fill="white"/>
<path d="M163.42 63.8188H161.343C161.263 64.073 161.192 64.3233 161.124 64.5736C161.057 64.8199 160.997 65.0384 160.949 65.2291C160.858 65.2569 160.763 65.2807 160.663 65.3046C160.564 65.3244 160.445 65.3364 160.302 65.3364C159.992 65.3364 159.754 65.2807 159.595 65.1735C159.436 65.0622 159.356 64.9073 159.356 64.7007C159.356 64.6014 159.372 64.506 159.4 64.4147C159.428 64.3233 159.46 64.216 159.495 64.0968C159.543 63.9062 159.615 63.6678 159.706 63.3857C159.797 63.1037 159.897 62.7977 160.008 62.468C160.119 62.1383 160.234 61.8006 160.353 61.4549C160.473 61.1093 160.592 60.7796 160.703 60.4617C160.814 60.1479 160.918 59.8579 161.013 59.5957C161.104 59.3335 161.184 59.1269 161.247 58.968C161.355 58.9044 161.518 58.8448 161.74 58.7892C161.962 58.7336 162.185 58.7058 162.403 58.7058C162.721 58.7058 163.003 58.7495 163.246 58.8369C163.488 58.9243 163.647 59.0713 163.718 59.2779C163.854 59.6513 163.997 60.0883 164.151 60.5809C164.306 61.0775 164.465 61.586 164.624 62.1065C164.783 62.6309 164.938 63.1473 165.085 63.6559C165.232 64.1644 165.363 64.6213 165.478 65.0225C165.399 65.1139 165.288 65.1894 165.133 65.245C164.982 65.3006 164.799 65.3284 164.585 65.3284C164.279 65.3284 164.068 65.2768 163.945 65.1695C163.822 65.0622 163.73 64.8993 163.675 64.6689L163.42 63.8108V63.8188ZM162.392 60.1916C162.292 60.5094 162.169 60.8709 162.026 61.2801C161.883 61.6854 161.744 62.1025 161.617 62.5276H163.134C163.015 62.0826 162.892 61.6576 162.769 61.2484C162.646 60.8431 162.543 60.4896 162.455 60.1916H162.392Z" fill="white"/>
<path d="M86.2253 14.1153L85.2877 17.0789C84.9222 16.8207 84.5051 16.5903 84.0522 16.3837C86.3207 11.8349 83.8019 6.75368 83.4761 6.49942C83.2259 6.30476 82.3081 7.67934 80.9336 9.75711C79.5153 11.9024 78.2678 14.9058 78.2678 14.9058C78.2678 14.9138 78.2599 14.9217 78.2599 14.9297C77.3144 14.8105 76.4165 14.739 75.6498 14.6953C75.4114 12.9075 75.9636 11.8349 76.4721 10.7463C76.9767 9.66176 82.3081 2.54253 83.4603 0.981226C84.2508 -0.0874532 85.0533 1.03287 85.0533 1.03287C88.6686 8.51363 86.2253 14.1113 86.2253 14.1113" fill="#00F4BD"/>
<path d="M74.4142 14.5999C70.8864 14.8979 68.5424 16.2764 67.5175 17.0154C67.7717 15.7838 68.5901 11.5329 67.7757 10.9767C66.8222 10.3292 67.5731 11.1833 67.4539 12.2798C67.1837 14.7469 66.8262 16.1294 65.0941 17.8417C64.8001 18.1317 63.064 20.0665 62.9249 19.1527C62.7819 18.239 61.3636 16.5347 60.6882 14.584C60.0129 12.6334 60.7598 10.8576 61.4868 10.5397C62.2138 10.2259 64.5975 9.51078 66.0873 9.15323C68.904 8.47785 71.4902 10.3133 72.6781 11.4098C74.4222 13.0187 74.4182 14.4887 74.4142 14.5999Z" fill="#00F4BD"/>
<path d="M164.064 26.0932C163.655 24.6948 163.123 23.3043 162.459 21.89C163.401 22.8673 164.159 24.0154 164.724 25.2629C166.468 22.8911 170.043 16.7293 168.657 7.40521C168.577 6.88478 167.854 6.82519 167.679 7.31384C166.698 10.1544 165.57 16.3638 158.888 16.8644C158.605 16.8843 157.433 17.0035 155.785 16.5466C155.523 16.4314 155.252 16.3241 154.982 16.2248C153.004 15.4938 150.874 15.1323 148.586 15.1323C146.298 15.1323 144.176 15.4938 142.218 16.2248C140.259 16.9518 138.551 18.0165 137.097 19.4189C135.639 20.8213 134.495 22.5574 133.664 24.6193C132.834 26.6812 132.421 29.0648 132.421 31.7703C132.421 34.4758 132.826 36.8674 133.644 38.9451C134.455 41.0229 135.583 42.767 137.021 44.1694C138.459 45.5718 140.168 46.6404 142.142 47.3674C144.121 48.0945 146.27 48.46 148.59 48.46C150.91 48.46 153.063 48.0945 155.038 47.3674C157.012 46.6365 158.729 45.5718 160.183 44.1694C161.641 42.763 162.777 41.0229 163.587 38.9451C164.402 36.8674 164.807 34.4758 164.807 31.7703C164.807 29.8157 164.588 28.0319 164.159 26.415C164.132 26.3077 164.1 26.2005 164.068 26.0932M154.275 39.3345C152.873 41.0189 150.974 41.8572 148.582 41.8572C146.191 41.8572 144.295 41.0189 142.889 39.3345C141.487 37.654 140.784 35.1352 140.784 31.7703C140.784 28.4053 141.495 25.9382 142.917 24.2578C144.335 22.5773 146.226 21.735 148.582 21.735C150.938 21.735 152.873 22.5773 154.275 24.2578C155.678 25.9382 156.381 28.4451 156.381 31.7703C156.381 35.0955 155.678 37.654 154.275 39.3345Z" fill="#00F4BD"/>
<path d="M170.238 16.1533C171.116 13.8928 171.898 8.9864 170.405 4.88251C170.23 4.39783 170.973 4.08399 171.322 4.4614C173.213 6.53519 176.348 11.3423 171.148 16.5784C170.798 16.932 170.059 16.6141 170.238 16.1533Z" fill="#00F4BD"/>
</g>
<defs>
<clipPath id="clip0_1_3">
<rect width="174" height="66.8183" fill="white" transform="translate(0 0.520386)"/>
</clipPath>
</defs>
</svg>
