<svg width="195" height="54" viewBox="0 0 195 54" fill="none" xmlns="http://www.w3.org/2000/svg">
<path d="M7.34623 53.0012C6.56708 53.0992 5.75232 53.1481 4.89748 53.1481C3.07206 53.1481 1.79871 52.8365 1.07745 52.2132C0.356181 51.5898 0 50.4634 0 48.8339V17.2985C0.427417 17.2229 1.03738 17.1249 1.83433 17.0047C2.63128 16.8889 3.41933 16.8311 4.19403 16.8311C5.94377 16.8311 7.20375 17.1249 7.9829 17.7037C8.76204 18.2869 9.14939 19.4356 9.14939 21.1453V31.4033H21.6825V17.2985C22.1099 17.2229 22.7199 17.1249 23.5168 17.0047C24.3138 16.8889 25.1196 16.8311 25.9344 16.8311C27.6441 16.8311 28.8863 17.1427 29.6654 17.766C30.4401 18.3893 30.8319 19.5558 30.8319 21.2655V52.6851C30.4045 52.8008 29.8034 52.9077 29.0243 53.0056C28.2451 53.1036 27.4304 53.1526 26.5755 53.1526C24.7501 53.1526 23.4768 52.8409 22.7599 52.2176C22.0387 51.5943 21.6825 50.4679 21.6825 48.8383V38.6382H9.14939V52.6851C8.72197 52.8008 8.12092 52.9077 7.34177 53.0056" fill="white"/>
<path d="M56.5615 44.9869H45.137C44.7096 46.3849 44.3133 47.7651 43.9438 49.1275C43.5742 50.4899 43.2537 51.692 42.9821 52.7428C42.4745 52.8986 41.9536 53.0322 41.406 53.1524C40.8628 53.2681 40.1994 53.326 39.4247 53.326C37.7151 53.326 36.4239 53.0233 35.5468 52.4222C34.6742 51.8211 34.2334 50.9574 34.2334 49.8265C34.2334 49.2834 34.3091 48.758 34.4649 48.2504C34.6207 47.7473 34.7944 47.1641 34.9903 46.5007C35.2619 45.45 35.6492 44.1499 36.1568 42.5961C36.6599 41.0422 37.2164 39.3593 37.8175 37.5517C38.4185 35.744 39.0507 33.8874 39.7141 31.9863C40.3731 30.0808 41.0142 28.2642 41.6375 26.5368C42.2608 24.8093 42.8218 23.2243 43.3294 21.7862C43.8325 20.3481 44.2643 19.2039 44.6116 18.3446C45.1949 17.9973 46.0987 17.6634 47.323 17.3518C48.5474 17.0401 49.7629 16.8843 50.965 16.8843C52.7147 16.8843 54.2597 17.1292 55.5998 17.6144C56.9399 18.0997 57.8037 18.9056 58.1955 20.032C58.9345 22.0934 59.7315 24.4843 60.5863 27.2002C61.4412 29.9205 62.3049 32.721 63.182 35.5927C64.0546 38.4688 64.9006 41.3049 65.7198 44.1054C66.5345 46.9014 67.2558 49.408 67.8747 51.6252C67.4472 52.1328 66.815 52.538 65.978 52.8496C65.141 53.1613 64.1437 53.3171 62.9772 53.3171C61.3076 53.3171 60.1277 53.0277 59.451 52.4445C58.7698 51.8612 58.2756 50.9485 57.9639 49.7063L56.5659 44.9869H56.5615ZM50.9071 25.0497C50.3639 26.7995 49.6916 28.7896 48.8947 31.0246C48.0977 33.2597 47.3498 35.5437 46.6507 37.8767H54.9854C54.322 35.4279 53.6542 33.086 52.973 30.851C52.2918 28.616 51.7174 26.6837 51.2544 25.0497H50.9027H50.9071Z" fill="white"/>
<path d="M97.9007 48.2508C97.9007 49.0255 97.6959 49.7556 97.2863 50.4368C96.8767 51.118 96.1688 51.6924 95.1581 52.1554C94.3834 52.5428 93.3327 52.9034 92.0104 53.2329C90.688 53.5623 89.0541 53.7271 87.1129 53.7271C84.5083 53.7271 82.0818 53.3575 79.829 52.6229C77.5717 51.8838 75.6127 50.7574 73.9386 49.2392C72.2691 47.721 70.9556 45.7931 70.0073 43.4379C69.0545 41.0916 68.5781 38.3 68.5781 35.0766C68.5781 32.0446 69.0545 29.3643 70.0073 27.0313C70.9601 24.7028 72.2512 22.7483 73.8808 21.1766C74.3082 20.767 74.7534 20.3796 75.2164 20.0235C76.5299 19.0039 77.9857 18.198 79.593 17.5925C80.2965 17.3299 81.0177 17.1072 81.7524 16.9291C83.2928 16.5552 84.9046 16.3682 86.5875 16.3682C86.7255 16.3682 86.8635 16.3682 86.9971 16.3682C87.5403 16.3771 88.0612 16.3949 88.5643 16.4305C88.5777 16.4305 88.5955 16.4305 88.6088 16.4349C91.7299 16.7288 94.2009 17.7751 94.2009 17.7751L94.2142 17.7439C94.419 17.8419 94.6149 17.9443 94.8064 18.0556C95.0824 18.2159 95.3362 18.3806 95.5766 18.5542C97.0058 19.5871 97.7226 20.8427 97.7226 22.3075C97.7226 23.2024 97.4911 23.9904 97.0236 24.6672C96.5561 25.3484 96.0129 25.8826 95.3896 26.27C94.379 25.6111 93.2793 25.0278 92.095 24.5202C90.9107 24.0171 89.4993 23.7634 87.8698 23.7634C84.7576 23.7634 82.3312 24.7429 80.5814 26.7063C78.8317 28.6698 77.959 31.4569 77.959 35.0721C77.959 38.6873 78.8807 41.6125 80.7283 43.4958C82.5716 45.3791 85.1094 46.323 88.3328 46.323C89.6907 46.323 90.8884 46.176 91.9258 45.8777C92.1662 45.8109 92.3977 45.7353 92.6203 45.6507C92.647 45.6373 92.6782 45.6284 92.7094 45.615C92.7895 45.5839 92.8696 45.5527 92.9542 45.5215C93.0611 45.477 93.1724 45.4325 93.2792 45.388C93.4974 45.2989 93.7067 45.2054 93.9204 45.1075C94.6194 44.7869 95.2872 44.4307 95.9194 44.0434C96.5027 44.5109 96.9791 45.103 97.3486 45.8243C97.7181 46.5456 97.9007 47.3514 97.9007 48.2463" fill="white"/>
<path d="M106.997 53.1481C105.171 53.1481 103.898 52.8365 103.177 52.2176C102.455 51.5943 102.099 50.4679 102.099 48.8383V17.2941C102.527 17.2184 103.137 17.1205 103.934 17.0047C104.73 16.8889 105.536 16.8311 106.351 16.8311C108.101 16.8311 109.352 17.1205 110.113 17.7037C110.87 18.2869 111.249 19.4356 111.249 21.1408V52.6762C110.821 52.7919 110.22 52.8988 109.441 52.9967C108.662 53.0947 107.847 53.1437 106.992 53.1437" fill="white"/>
<path d="M125.153 53.0279C124.374 53.1437 123.559 53.2016 122.704 53.2016C120.879 53.2016 119.605 52.881 118.884 52.2399C118.163 51.5987 117.807 50.4634 117.807 48.8294V17.2941C118.234 17.2184 118.844 17.1205 119.641 17.0047C120.438 16.8889 121.226 16.8311 122.001 16.8311C123.751 16.8311 125.011 17.1205 125.79 17.7037C126.564 18.2869 126.956 19.4356 126.956 21.1408V31.6348L139.837 17.0626C142.17 17.0626 143.839 17.4989 144.85 18.376C145.86 19.2486 146.364 20.3083 146.364 21.5549C146.364 22.4899 146.141 23.3536 145.691 24.1506C145.246 24.9475 144.516 25.8513 143.505 26.862L135.228 35.1387C137.909 38.055 140.331 40.6595 142.486 42.948C144.645 45.2409 146.421 47.0886 147.819 48.4866C147.779 50.0048 147.267 51.1891 146.275 52.044C145.282 52.8988 144.129 53.3262 142.806 53.3262C141.368 53.3262 140.193 52.9656 139.28 52.2488C138.367 51.532 137.481 50.686 136.626 49.711L126.952 38.754V52.6851C126.524 52.8008 125.923 52.9166 125.144 53.0368" fill="white"/>
<path d="M96.6318 15.2369L95.5811 18.5582C95.1715 18.2688 94.704 18.0106 94.1964 17.7791C96.7387 12.6813 93.9159 6.98682 93.5508 6.70188C93.2703 6.48372 92.2419 8.0242 90.7014 10.3527C89.1119 12.7569 87.7139 16.1229 87.7139 16.1229C87.7139 16.1318 87.705 16.1407 87.705 16.1496C86.6454 16.016 85.6392 15.9359 84.7799 15.8869C84.5128 13.8834 85.1316 12.6813 85.7015 11.4613C86.2669 10.2459 92.2419 2.26743 93.533 0.51769C94.419 -0.679967 95.3184 0.575569 95.3184 0.575569C99.3699 8.95917 96.6318 15.2324 96.6318 15.2324" fill="white"/>
<path d="M83.3952 15.7802C79.4416 16.1141 76.8148 17.659 75.6661 18.4872C75.951 17.107 76.8682 12.3431 75.9555 11.7197C74.887 10.994 75.7284 11.9513 75.5949 13.1801C75.2921 15.9449 74.8914 17.4943 72.9502 19.4132C72.6208 19.7383 70.6751 21.9065 70.5193 20.8825C70.359 19.8585 68.7696 17.9484 68.0127 15.7624C67.2558 13.5763 68.0928 11.5862 68.9076 11.23C69.7223 10.8783 72.3937 10.0769 74.0633 9.67615C77.2199 8.91927 80.1184 10.9762 81.4496 12.205C83.4041 14.0082 83.3997 15.6555 83.3952 15.7802Z" fill="white"/>
<path d="M183.865 28.6608C183.406 27.0936 182.81 25.5353 182.066 23.9503C183.121 25.0456 183.972 26.3323 184.604 27.7303C186.558 25.0723 190.566 18.1668 189.012 7.71739C188.923 7.13415 188.112 7.06736 187.916 7.61499C186.817 10.7984 185.552 17.7572 178.064 18.3182C177.747 18.3405 176.434 18.474 174.586 17.962C174.293 17.8329 173.99 17.7127 173.687 17.6014C171.47 16.7822 169.083 16.377 166.519 16.377C163.954 16.377 161.577 16.7822 159.382 17.6014C157.187 18.4162 155.272 19.6094 153.643 21.181C152.009 22.7527 150.727 24.6983 149.796 27.009C148.866 29.3197 148.403 31.9911 148.403 35.0231C148.403 38.0551 148.857 40.7353 149.774 43.0639C150.682 45.3924 151.947 47.3469 153.558 48.9186C155.17 50.4902 157.085 51.6879 159.297 52.5027C161.515 53.3174 163.923 53.727 166.523 53.727C169.123 53.727 171.537 53.3174 173.749 52.5027C175.962 51.6834 177.886 50.4902 179.515 48.9186C181.149 47.3425 182.422 45.3924 183.331 43.0639C184.243 40.7353 184.697 38.0551 184.697 35.0231C184.697 32.8326 184.453 30.8335 183.972 29.0214C183.941 28.9012 183.905 28.781 183.869 28.6608M172.895 43.5002C171.323 45.3879 169.195 46.3274 166.514 46.3274C163.834 46.3274 161.71 45.3879 160.134 43.5002C158.563 41.6169 157.775 38.7942 157.775 35.0231C157.775 31.252 158.572 28.4872 160.166 26.6039C161.755 24.7206 163.874 23.7767 166.514 23.7767C169.155 23.7767 171.323 24.7206 172.895 26.6039C174.466 28.4872 175.254 31.2966 175.254 35.0231C175.254 38.7496 174.466 41.6169 172.895 43.5002Z" fill="white"/>
<path d="M190.784 17.5213C191.768 14.988 192.645 9.48947 190.971 4.89029C190.775 4.34711 191.607 3.99538 191.999 4.41835C194.118 6.74243 197.631 12.1297 191.803 17.9977C191.411 18.394 190.583 18.0378 190.784 17.5213Z" fill="white"/>
</svg>
