<?xml version="1.0" standalone="no"?>
<!DOCTYPE svg PUBLIC "-//W3C//DTD SVG 20010904//EN"
 "http://www.w3.org/TR/2001/REC-SVG-20010904/DTD/svg10.dtd">
<svg version="1.0" xmlns="http://www.w3.org/2000/svg"
 width="784.000000pt" height="784.000000pt" viewBox="0 0 784.000000 784.000000"
 preserveAspectRatio="xMidYMid meet">
<metadata>
Created by potrace 1.14, written by Peter Selinger 2001-2017
</metadata>
<g transform="translate(0.000000,784.000000) scale(0.100000,-0.100000)"
fill="#000000" stroke="none">
<path d="M7083 7718 c-12 -6 -24 -18 -27 -27 -2 -9 -18 -53 -35 -99 -16 -45
-30 -83 -30 -85 0 -1 -2 -9 -5 -17 -2 -8 -27 -87 -56 -175 -28 -88 -55 -169
-60 -180 -5 -11 -23 -56 -40 -100 -71 -181 -173 -370 -283 -520 -47 -64 -208
-233 -267 -280 -63 -50 -129 -95 -139 -95 -6 0 -11 -4 -11 -9 0 -5 -10 -13
-22 -17 -13 -3 -30 -12 -38 -19 -8 -7 -32 -18 -52 -26 -21 -7 -38 -17 -38 -21
0 -4 -3 -7 -7 -6 -5 1 -19 -3 -33 -9 -57 -23 -141 -53 -162 -57 -54 -11 -68
-15 -76 -19 -4 -3 -23 -8 -42 -11 -19 -3 -46 -8 -60 -11 -14 -3 -47 -8 -75
-11 -27 -3 -63 -7 -80 -9 -44 -7 -274 -6 -320 1 -22 3 -49 7 -60 8 -81 10
-212 40 -250 57 -100 44 -373 133 -473 154 -9 2 -37 8 -62 14 -56 12 -97 21
-130 26 -14 2 -38 6 -55 9 -16 3 -48 7 -70 11 -23 3 -51 7 -62 10 -20 3 -133
13 -253 21 -159 10 -504 0 -650 -20 -19 -3 -56 -7 -81 -11 -26 -3 -58 -8 -70
-10 -13 -3 -49 -10 -79 -15 -89 -16 -149 -29 -194 -42 -22 -6 -43 -12 -46 -13
-3 0 -16 -4 -30 -8 -14 -4 -43 -13 -65 -19 -48 -13 -122 -37 -150 -48 -61 -26
-201 -81 -210 -84 -22 -5 -170 -81 -173 -88 -2 -5 -12 -8 -22 -8 -10 0 -21 -4
-24 -8 -3 -5 -43 -30 -88 -57 -46 -26 -84 -52 -86 -56 -2 -5 -8 -9 -13 -9 -5
0 -64 -42 -131 -92 -137 -103 -360 -320 -457 -443 -34 -44 -69 -88 -76 -97 -7
-9 -19 -27 -26 -40 -6 -13 -15 -25 -18 -28 -13 -10 -81 -120 -81 -130 0 -5 -3
-10 -7 -10 -5 0 -13 -10 -19 -23 -6 -12 -33 -65 -60 -117 -41 -80 -114 -233
-119 -250 -1 -3 -7 -18 -13 -33 -7 -16 -12 -34 -12 -41 0 -6 -4 -16 -9 -21 -6
-8 -60 -163 -67 -195 -5 -25 -17 -70 -25 -90 -5 -14 -11 -41 -14 -60 -3 -19
-8 -43 -11 -52 -3 -9 -7 -27 -9 -40 -3 -13 -7 -34 -10 -48 -17 -85 -44 -282
-52 -380 -10 -125 -10 -631 0 -745 12 -123 14 -145 20 -185 3 -19 9 -57 13
-85 3 -27 8 -59 11 -70 2 -11 8 -40 13 -65 4 -25 11 -56 14 -70 4 -14 8 -37
11 -52 3 -15 9 -38 15 -52 5 -15 8 -26 5 -26 -2 0 2 -18 10 -40 8 -22 12 -40
9 -40 -2 0 2 -13 11 -30 8 -16 15 -32 15 -35 -1 -12 43 -143 71 -210 7 -16 13
-32 14 -35 9 -30 51 -118 104 -220 35 -69 69 -135 75 -147 6 -13 14 -23 19
-23 4 0 7 -4 7 -10 0 -11 59 -103 119 -185 185 -251 404 -460 656 -626 88 -58
249 -150 295 -169 19 -8 37 -17 40 -20 17 -22 456 -179 550 -196 14 -3 50 -11
80 -19 30 -7 73 -16 95 -21 22 -4 42 -8 45 -9 3 -1 30 -5 60 -9 30 -5 64 -10
75 -12 11 -2 43 -6 70 -9 28 -3 66 -7 85 -9 193 -23 595 -23 765 0 17 2 55 6
85 9 30 3 91 12 135 20 44 8 96 16 115 20 19 3 51 10 70 15 19 5 46 11 60 13
14 3 50 12 81 21 31 9 66 18 77 21 11 2 29 8 39 13 10 6 20 10 23 10 13 -1 96
26 105 34 5 4 15 8 23 8 18 0 257 103 329 141 128 70 150 82 191 110 24 16 45
29 48 29 8 0 187 131 244 179 88 74 128 111 209 195 103 106 101 104 101 110
0 3 15 21 33 40 61 65 237 321 237 345 0 5 7 14 15 21 8 7 12 16 9 21 -3 5 -1
9 4 9 5 0 19 24 33 52 13 29 27 54 32 56 4 2 7 8 7 14 0 5 14 40 31 76 94 200
196 526 224 712 2 14 6 34 8 45 4 18 7 38 22 135 8 52 25 228 30 315 5 77 5
456 1 515 -10 132 -18 225 -21 240 -2 9 -6 41 -10 71 -3 30 -11 81 -17 114 -6
33 -12 70 -13 82 -2 11 -6 30 -9 41 -4 11 -9 33 -11 48 -2 16 -11 54 -20 84
-8 30 -17 64 -19 75 -6 32 -64 213 -75 232 -5 10 -9 20 -9 23 1 8 -12 53 -22
75 -5 11 -29 72 -53 135 -44 113 -65 164 -113 267 -32 69 -30 75 9 32 139
-154 269 -348 346 -516 13 -29 28 -50 33 -47 14 9 191 282 233 359 21 39 43
79 49 90 6 11 15 23 19 26 5 3 8 8 6 10 -2 5 52 122 60 129 3 3 7 10 8 15 1 6
17 45 37 88 20 42 36 80 36 83 0 3 8 24 19 47 31 70 119 319 136 387 2 8 20
75 39 149 19 74 34 137 34 140 -1 3 4 26 11 50 7 23 10 49 7 57 -3 7 -1 16 3
19 5 2 12 24 15 48 4 24 9 55 11 68 7 46 16 104 21 144 2 22 7 58 10 79 6 43
9 76 20 226 9 115 9 483 0 600 -11 158 -16 215 -21 251 -3 20 -8 58 -11 85 -3
27 -6 58 -8 69 -2 11 -4 33 -5 48 -2 42 -51 87 -93 86 -18 0 -43 -5 -55 -11z
m-3383 -2712 c97 -14 122 -19 206 -42 91 -24 132 -38 211 -75 24 -10 47 -19
53 -19 5 0 10 -4 10 -8 0 -5 16 -14 35 -22 19 -8 35 -17 35 -21 0 -4 8 -10 19
-14 10 -3 28 -13 39 -23 11 -9 30 -24 42 -32 54 -37 144 -123 200 -191 25 -30
47 -56 50 -59 46 -45 172 -285 210 -400 11 -36 24 -72 27 -80 3 -8 7 -18 8
-22 2 -5 3 -9 5 -10 1 -2 3 -12 5 -23 2 -11 9 -42 15 -70 7 -27 14 -59 16 -70
2 -11 8 -40 13 -65 5 -25 12 -65 15 -90 3 -25 8 -55 10 -67 20 -100 28 -568
12 -738 -13 -149 -15 -169 -36 -285 -20 -114 -23 -126 -39 -178 -5 -18 -10
-36 -11 -40 -4 -27 -14 -59 -23 -69 -5 -7 -7 -13 -4 -13 3 0 -4 -24 -15 -52
-10 -29 -20 -58 -22 -64 -1 -7 -7 -18 -14 -26 -6 -8 -13 -24 -15 -35 -4 -30
-95 -187 -152 -264 -50 -67 -135 -160 -191 -209 -58 -50 -112 -90 -123 -90 -6
0 -11 -4 -11 -8 0 -23 -322 -167 -395 -176 -11 -2 -45 -8 -75 -14 -94 -19
-160 -25 -300 -25 -148 -1 -232 6 -327 27 -35 7 -63 11 -63 9 0 -3 -7 0 -15 7
-8 7 -15 10 -15 6 0 -15 -280 98 -288 117 -2 4 -9 7 -15 7 -7 0 -48 25 -92 56
-99 70 -305 275 -305 304 0 5 -4 10 -8 10 -5 0 -14 10 -20 23 -7 12 -23 40
-37 62 -46 73 -112 219 -144 315 -36 108 -33 97 -65 247 -28 127 -39 210 -52
368 -9 102 -9 485 0 595 7 92 9 112 22 183 3 17 7 46 9 62 8 77 54 263 93 375
91 262 264 506 462 654 30 22 57 44 60 47 3 3 32 21 65 40 113 66 304 138 409
154 21 4 48 9 60 11 11 3 50 8 86 11 36 3 66 6 68 7 4 4 265 -3 302 -8z"/>
</g>
</svg>
