<svg width="121" height="184" viewBox="0 0 121 184" fill="none" xmlns="http://www.w3.org/2000/svg">
<path d="M3.84808 51.5124C5.26814 50.4602 6.68821 49.4154 8.11564 48.3632C8.28487 48.2382 8.37316 48.0174 8.25544 47.8188C8.15243 47.6495 7.88019 47.5465 7.71095 47.6716C6.29089 48.7238 4.87082 49.7686 3.45075 50.8208C3.27416 50.9459 3.19323 51.1666 3.31095 51.3652C3.41396 51.5345 3.67885 51.6375 3.85544 51.505" fill="#453EB6"/>
<path d="M9.03542 47.6128C9.05749 48.0616 9.30766 48.4442 9.67555 48.687C10.0067 48.9078 10.4702 48.9887 10.8454 48.8416C10.9485 48.8048 11.0294 48.7533 11.0809 48.6576C11.1324 48.5693 11.1545 48.4442 11.1177 48.3486C11.0883 48.2529 11.0294 48.1573 10.9337 48.1131C10.8454 48.069 10.7277 48.0322 10.6247 48.0763C10.5659 48.0984 10.4996 48.1205 10.4334 48.1278C10.4702 48.1278 10.507 48.1205 10.5364 48.1131C10.4555 48.1278 10.3745 48.1205 10.2936 48.1131C10.3304 48.1131 10.3672 48.1205 10.3966 48.1278C10.3083 48.1131 10.2274 48.0911 10.1465 48.0616C10.1759 48.0763 10.2127 48.0911 10.2421 48.1058C10.1832 48.0837 10.1244 48.0543 10.0729 48.0175C10.0582 48.0101 10.0434 48.0028 10.0287 47.988C9.96986 47.9513 10.0655 48.0101 10.0655 48.0175C10.0655 48.0028 10.0067 47.966 9.99194 47.9513C9.96986 47.9292 9.94779 47.9071 9.93307 47.885C9.92572 47.8777 9.91836 47.863 9.90364 47.8556C9.99194 47.9439 9.94779 47.9145 9.92572 47.885C9.88893 47.8335 9.85214 47.7747 9.83006 47.7158C9.84478 47.7452 9.8595 47.782 9.86685 47.8115C9.83742 47.7379 9.81535 47.6643 9.80799 47.5907C9.80799 47.6275 9.81535 47.6643 9.82271 47.6937C9.82271 47.6717 9.82271 47.6496 9.82271 47.6275C9.81535 47.4215 9.64612 47.2228 9.42538 47.2302C9.21936 47.2375 9.01334 47.4068 9.02806 47.6275" fill="#453EB6"/>
<path d="M31.9405 183.615H28.5926C28.4749 183.571 28.3572 183.505 28.2395 183.49C27.4742 183.395 26.709 183.343 25.9438 183.218C24.7371 183.027 23.5378 182.821 22.3385 182.585C21.6542 182.445 21.0214 182.173 20.5873 181.592C20.3886 181.32 20.2415 181.011 20.0428 180.672C19.9104 180.687 19.7411 180.702 19.5793 180.716C18.4314 180.827 17.2836 180.981 16.1284 181.025C14.8923 181.077 13.6562 181.048 12.4201 180.797C10.6247 180.429 8.87358 179.981 7.28428 179.024C5.5699 177.994 4.74582 176.338 5.01806 174.374C5.25351 172.682 6.08495 171.401 7.59331 170.599C8.31438 170.217 9.07224 169.915 9.80803 169.577C9.99933 169.488 10.1833 169.393 10.3893 169.29C10.404 169.039 10.4261 168.826 10.4261 168.613C10.3819 163.83 10.5732 159.047 10.1759 154.272C10.0582 152.845 10.0067 151.41 9.91839 149.983C9.8301 148.614 9.74181 147.253 9.65351 145.884C9.60201 145.134 9.57257 144.391 9.50635 143.64C9.39599 142.426 9.25619 141.219 9.14582 140.005C9.04281 138.938 8.9913 137.872 8.86622 136.812C8.63813 134.921 8.39532 133.037 8.12308 131.154C7.85819 129.329 7.60067 127.504 7.25485 125.702C6.84281 123.575 6.33512 121.471 5.87893 119.352C4.98127 115.202 4.07625 111.06 3.19331 106.91C2.56054 103.93 1.92776 100.957 1.34649 97.9699C0.978595 96.0569 0.676923 94.1291 0.41204 92.2013C0.250167 91.0167 0.228094 89.8174 0.125084 88.6181C0.110368 88.4562 0.0441472 88.2943 0 88.1324V86.3298C0.0367893 86.2341 0.110368 86.1385 0.117726 86.0355C0.169231 85.3732 0.228094 84.711 0.257525 84.0488C0.30903 82.7686 0.323746 81.4809 0.397324 80.1933C0.456187 79.1926 0.551839 78.1846 0.713712 77.1987C1.00067 75.5064 1.3097 73.8214 1.69231 72.1512C2.09699 70.4147 2.56789 68.7003 3.08294 66.9933C3.44348 65.7793 3.90702 64.602 4.3485 63.4174C5.1505 61.2689 5.92308 59.1057 7.0194 57.0749C7.52709 56.1331 8.07157 55.206 8.54983 54.2495C9.08696 53.1752 9.57257 52.0716 10.0656 50.9826C10.8161 49.3197 11.5666 47.6642 12.2876 45.994C12.5819 45.3097 12.891 44.6107 13.0676 43.897C13.3987 42.5652 13.6341 41.2114 13.9137 39.8722C14.495 37.01 15.2087 34.1846 16.2462 31.4475C17.6147 27.8127 19.7043 24.6635 22.4562 21.9411C22.9124 21.4923 23.398 21.0729 23.8836 20.6388C24.9211 19.7117 26.0027 18.8361 27.1873 18.093C27.489 17.9017 27.7906 17.6515 27.9599 17.3498C28.4602 16.4522 28.9458 15.5324 29.3358 14.5833C30.4468 11.8535 31.786 9.24883 33.1913 6.66622C33.9492 5.27559 34.7806 3.91438 35.6488 2.58997C36.289 1.61137 36.9512 0.61806 38.0033 0H38.2609C38.8127 0.316388 39.2689 0.728428 39.5485 1.3097C39.7692 1.75117 40.012 2.19264 40.1445 2.66355C40.7993 4.92977 41.4395 7.20334 42.0355 9.48428C42.5431 11.412 42.992 13.3545 43.4702 15.297C43.507 15.4589 43.5953 15.6134 43.6174 15.6575C45.214 16.3344 46.7224 16.9378 48.2013 17.6221C49.6582 18.299 51.1298 18.9686 52.5057 19.7926C53.8963 20.6314 55.1913 21.6321 56.5084 22.5886C57.8181 23.5525 58.907 24.7666 60.0107 25.9365C60.695 25.7452 61.2836 25.5538 61.887 25.4214C63.1231 25.1565 64.3666 24.9137 65.61 24.6783C67.5525 24.3104 69.5023 24.0749 71.4816 24.097C72.8355 24.1117 74.1893 24.0896 75.5432 24.1043C76.0582 24.1043 76.5732 24.1485 77.0736 24.2515C77.8682 24.4134 78.6776 24.509 79.4281 24.8843C80.1639 25.2522 80.4435 25.907 80.3331 26.7605C80.2595 27.3197 80.0314 27.8863 79.7666 28.394C78.788 30.2629 77.6107 31.9993 76.3231 33.6622C74.7191 35.7298 73.1077 37.7826 71.4669 39.8207C70.4957 41.0201 69.4729 42.1753 68.4575 43.3304C67.3391 44.6033 66.412 45.9793 66.0809 47.6789C65.8013 49.1063 65.5659 50.5485 65.2495 51.9686C64.7786 54.1244 64.2341 56.2656 63.7559 58.4214C63.6308 59.0027 63.5278 59.6134 63.5646 60.202C63.6234 61.2248 63.7779 62.2401 63.9177 63.2555C64.0943 64.5284 64.5505 65.7057 65.2863 66.7579C66.1104 67.9278 67.1993 68.8549 68.3251 69.701C69.3846 70.4957 70.5692 71.1211 71.7023 71.8127C74.41 73.4682 77.1324 75.109 79.8328 76.7645C82.386 78.3318 84.689 80.208 86.8448 82.2756C87.7572 83.1512 88.6769 84.0341 89.5231 84.9686C90.4281 85.9692 91.311 86.9993 92.0836 88.0956C93.8274 90.5532 95.1298 93.2609 96.388 95.9906C97.7933 99.0442 98.8087 102.23 99.7358 105.445C100.457 107.94 101.075 110.464 101.472 113.031C101.686 114.407 101.884 115.783 102.039 117.167C102.171 118.359 102.215 119.558 102.326 120.75C102.48 122.346 102.664 123.936 102.826 125.532C102.892 126.173 102.922 126.813 102.966 127.453C103.047 128.711 103.209 129.969 103.194 131.227C103.165 134.789 103.348 138.35 103.091 141.911C103.003 143.125 102.995 144.354 102.951 145.568C102.951 145.634 102.951 145.693 102.936 145.759C102.811 147.297 102.708 148.827 102.561 150.365C102.436 151.623 102.282 152.874 102.105 154.125C101.847 155.972 101.553 157.804 101.274 159.651C101.068 161.005 100.869 162.359 100.678 163.72C100.479 165.096 100.288 166.472 100.111 167.855C100.03 168.488 99.9565 169.135 99.9492 169.775C99.9418 170.342 100.008 170.916 100.06 171.49C100.074 171.593 100.214 171.674 100.346 171.835C100.685 171.637 101.06 171.497 101.325 171.239C102.451 170.158 103.643 169.12 104.621 167.914C106.858 165.155 108.425 162.005 109.485 158.613C110.14 156.524 110.684 154.412 111.133 152.264C111.67 149.696 111.906 147.098 112.075 144.494C112.178 142.89 112.185 141.278 112.207 139.674C112.207 139.167 112.09 138.652 112.097 138.136C112.097 135.863 112.082 133.597 111.839 131.33C111.707 130.116 111.685 128.895 111.553 127.681C111.376 126.062 111.148 124.451 110.934 122.847C110.552 120.036 109.993 117.27 109.308 114.518C108.69 112.038 108.028 109.573 107.359 107.108C107.13 106.262 106.829 105.431 106.542 104.599C105.931 102.833 105.262 101.09 104.688 99.3164C104.047 97.3371 103.481 95.3284 102.907 93.3344C102.561 92.1425 102.201 90.9431 101.928 89.7365C101.325 87.0876 100.891 84.3946 100.177 81.7679C99.8977 80.7378 99.6548 79.6856 99.5003 78.6261C99.2649 77 99.1398 75.3518 98.9411 73.7184C98.7351 71.9746 98.5659 70.2308 98.5659 68.4722C98.5659 68.3251 98.5365 68.1706 98.5365 68.0234C98.507 67.295 98.4261 66.5666 98.4702 65.8455C98.5512 64.5431 98.7057 63.2482 98.8308 61.9532C98.9264 60.9525 98.9559 59.9371 99.1251 58.9512C99.412 57.2809 99.7064 55.6107 100.14 53.9773C100.847 51.3505 102.054 48.9739 104.106 47.105C105.276 46.0455 106.645 45.3686 108.219 45.111C109.25 44.9418 110.692 45.788 111.001 46.5973C111.273 47.3184 111.317 48.0468 111.06 48.7311C110.64 49.8789 110.147 50.9973 109.617 52.101C109.154 53.0649 108.602 53.992 108.087 54.9338C106.961 56.9866 106.181 59.1572 105.821 61.4676C105.651 62.5639 105.423 63.6749 105.423 64.7786C105.416 67.6261 105.225 70.4883 105.652 73.3211C105.88 74.8441 106.056 76.3746 106.358 77.8903C106.66 79.4207 107.094 80.9291 107.454 82.4522C107.719 83.5779 107.94 84.7184 108.219 85.8368C108.492 86.9405 108.779 88.0441 109.11 89.1257C109.684 91.0094 110.28 92.893 110.905 94.7619C111.346 96.0863 111.898 97.3666 112.325 98.6983C113.031 100.928 113.657 103.172 114.334 105.409C114.746 106.763 115.187 108.109 115.592 109.47C116.166 111.405 116.784 113.326 117.27 115.283C117.91 117.88 118.506 120.5 119.006 123.134C119.411 125.231 119.734 127.35 119.852 129.498C119.882 130.028 119.963 130.565 120.014 131.095C120.088 131.816 120.161 132.537 120.227 133.266C120.33 134.377 120.419 135.48 120.522 136.591C120.595 137.445 120.662 138.298 120.75 139.144C120.816 139.755 120.919 140.366 121 140.969V144.192C120.956 144.354 120.89 144.516 120.875 144.678C120.823 145.274 120.794 145.87 120.742 146.466C120.617 148.084 120.514 149.71 120.345 151.322C120.235 152.381 120.088 153.448 119.852 154.493C119.33 156.789 118.763 159.084 118.175 161.365C117.718 163.131 117.049 164.838 116.284 166.494C115.592 168.002 114.709 169.393 113.775 170.761C112.538 172.564 111.133 174.205 109.345 175.463C108.3 176.206 107.233 176.964 106.078 177.501C104.018 178.458 101.803 179.024 99.596 179.576C96.594 180.319 93.5625 180.871 90.509 181.334C88.0736 181.702 85.6381 182.056 83.188 182.21C82.6361 182.247 82.0769 182.313 81.5251 182.372C80.7819 182.445 80.0388 182.526 79.2883 182.585C78.501 182.644 77.7064 182.681 76.9191 182.732C75.6609 182.813 74.4027 182.894 73.1445 182.975C72.9973 182.983 72.8428 182.975 72.6957 182.99C71.3933 183.071 70.091 183.211 68.7886 183.225C64.8816 183.255 60.9746 183.24 57.0676 183.233C56.8542 183.233 56.6408 183.218 56.4274 183.196C55.5298 183.122 54.6395 183.049 53.7418 182.975C53.1017 182.924 52.4615 182.887 51.8214 182.813C51.3137 182.755 50.806 182.644 50.2983 182.6C49.1726 182.497 48.113 182.173 47.1124 181.666C46.7298 181.474 46.4502 181.202 46.2736 180.812C45.8615 179.9 45.5819 178.965 45.8395 177.95C45.8615 177.869 45.8395 177.781 45.8395 177.604C44.5077 177.199 43.1318 177.185 41.7338 177.104C41.6823 177.207 41.6161 177.317 41.5645 177.427C41.2408 178.148 40.9538 178.892 40.5933 179.598C40.0488 180.68 39.2027 181.496 38.1358 182.07C36.6569 182.872 35.0602 183.225 33.3973 183.365C32.9117 183.409 32.4408 183.527 31.9552 183.615" fill="#E1F5FF"/>
<path d="M31.9552 24.1851C32.6395 24.8105 32.794 25.6567 32.2716 26.466C31.8007 27.1945 31.293 27.9155 30.5572 28.4379C30.1304 28.7396 29.7552 29.1222 29.3137 29.4018C28.2983 30.0493 27.5993 29.7844 27.1284 28.5704C27.2682 28.3129 27.4154 27.9965 27.592 27.7022C28.497 26.2232 29.6742 25.0239 31.1973 24.1777H31.9478L31.9552 24.1851Z" fill="#453EB6"/>
<path d="M50.9164 37.1426C51.6007 37.768 51.7552 38.6142 51.2328 39.4235C50.7619 40.152 50.2542 40.873 49.5184 41.3955C49.0916 41.6971 48.7164 42.0797 48.2749 42.3593C47.2595 43.0068 46.5605 42.7419 46.0896 41.5279C46.2294 41.2704 46.3766 40.954 46.5532 40.6597C47.4582 39.1807 48.6355 37.9814 50.1585 37.1353H50.909L50.9164 37.1426Z" fill="#453EB6"/>
<path d="M32.7203 41.3216C32.8601 41.3216 33.0735 41.3216 33.2869 41.3216C34.3023 41.3584 35.2367 41.0494 36.1491 40.6741C36.8555 40.3871 37.1571 39.6146 36.8187 38.9229C36.6568 38.5845 36.3698 38.3122 36.1197 38.0253C36.0093 37.9002 35.8401 37.8192 35.715 37.7089C34.9718 37.0099 34.0963 36.5022 33.1692 36.1049C32.5805 35.8547 31.9625 35.6413 31.212 35.8841C30.6675 37.2306 30.8294 38.6433 31.131 40.0266C31.131 40.0266 31.3444 41.2259 32.713 41.3216" fill="#453EB6"/>
<path d="M81.2381 120.897C73.3578 122.067 66.3973 126.702 61.3424 132.728C58.7672 135.804 56.5672 139.233 54.8454 142.86C53.911 144.832 53.2046 146.878 52.8735 149.041C52.5498 151.204 52.4615 153.397 52.3585 155.582C52.123 160.453 52.1083 165.434 53.6314 170.121C53.8668 170.85 55.022 170.54 54.7866 169.805C53.4769 165.773 53.3444 161.512 53.4842 157.304C53.6314 153.102 53.6755 148.769 55.2795 144.817C56.0448 142.941 57.0307 141.146 58.0682 139.409C59.0468 137.769 60.121 136.179 61.2983 134.678C63.6749 131.647 66.4635 128.917 69.6715 126.761C73.2474 124.363 77.2869 122.692 81.5545 122.06C81.8782 122.008 82.0474 121.611 81.9739 121.324C81.8856 120.978 81.5545 120.86 81.2381 120.904" fill="#453EB6"/>
<path d="M46.509 177.545C47.9438 174.344 50.9753 172.189 54.3157 171.306C58.3993 170.224 62.7478 171.07 66.6254 172.549C68.8254 173.388 71.0034 174.514 73.4241 174.403C74.1893 174.366 74.1967 173.167 73.4241 173.211C71.1799 173.314 69.1418 172.247 67.1037 171.46C65.0067 170.651 62.8288 170.055 60.5993 169.783C56.6923 169.304 52.6014 169.996 49.3639 172.321C47.7084 173.513 46.3251 175.073 45.4863 176.942C45.1773 177.641 46.2074 178.244 46.5164 177.545" fill="#453EB6"/>
<path d="M52.3732 153.544C48.9371 159.261 45.9351 165.228 43.3819 171.394C42.6608 173.13 41.9765 174.889 41.3364 176.655C41.0715 177.376 42.2267 177.692 42.4916 176.971C44.7504 170.805 47.4581 164.809 50.5999 159.04C51.505 157.385 52.4394 155.751 53.4106 154.14C53.808 153.478 52.7779 152.874 52.3805 153.536" fill="#453EB6"/>
<path d="M20.7124 180.437C20.5211 178.862 20.3519 177.17 20.889 175.647C21.1465 174.911 21.6248 174.286 22.2796 173.859C22.9639 173.403 23.7438 173.109 24.4428 172.689C25.1418 172.27 25.7673 171.718 26.1278 170.975C26.481 170.232 26.5913 169.422 26.6723 168.606C26.7606 167.686 26.8783 166.81 27.0696 165.905C27.305 164.816 27.5405 163.727 27.7759 162.638C29.4903 154.67 31.1017 146.657 31.7933 138.519C32.1759 134.031 32.2569 129.521 31.9773 125.025C31.9258 124.26 30.7338 124.252 30.7853 125.025C31.2856 133.045 30.5793 141.058 29.2549 148.967C28.5706 153.029 27.7539 157.068 26.893 161.101C26.6649 162.182 26.4295 163.264 26.194 164.345C25.9733 165.346 25.7157 166.347 25.598 167.362C25.5024 168.164 25.495 168.988 25.3037 169.783C25.105 170.577 24.6636 171.151 23.9719 171.585C23.1773 172.086 22.287 172.395 21.5218 172.947C20.7713 173.484 20.2194 174.19 19.8662 175.044C19.1673 176.736 19.3218 178.664 19.5351 180.444C19.5719 180.768 19.7853 181.04 20.1311 181.04C20.4254 181.04 20.7639 180.761 20.7271 180.444" fill="#453EB6"/>
<path d="M49.6876 177.185C48.6943 178.487 48.2087 180.18 48.3632 181.813C48.3926 182.137 48.6207 182.409 48.9592 182.409C49.2609 182.409 49.5846 182.137 49.5552 181.813C49.4227 180.356 49.8201 178.966 50.7177 177.788C50.9164 177.531 50.7545 177.119 50.5043 176.972C50.1953 176.788 49.8789 176.927 49.6876 177.185Z" fill="#453EB6"/>
<path d="M53.3445 177.589C52.4983 178.98 52.1231 180.665 52.3438 182.284C52.388 182.6 52.5866 182.88 52.9398 182.88C53.2268 182.88 53.5799 182.607 53.5358 182.284C53.3445 180.842 53.6241 179.429 54.3746 178.193C54.5438 177.913 54.4334 177.538 54.1612 177.376C53.8742 177.207 53.5137 177.31 53.3445 177.589Z" fill="#453EB6"/>
<path d="M23.2655 177.471C22.2722 178.773 21.7866 180.466 21.9411 182.099C21.9705 182.423 22.1986 182.695 22.5371 182.695C22.8388 182.695 23.1625 182.423 23.1331 182.099C23.0006 180.642 23.398 179.252 24.2956 178.074C24.4943 177.817 24.3324 177.405 24.0822 177.258C23.7732 177.074 23.4568 177.214 23.2655 177.471Z" fill="#453EB6"/>
<path d="M26.9224 177.876C26.0762 179.266 25.701 180.951 25.9217 182.57C25.9659 182.887 26.1645 183.166 26.5177 183.166C26.8047 183.166 27.1578 182.894 27.1137 182.57C26.9224 181.128 27.202 179.715 27.9525 178.479C28.1217 178.2 28.0114 177.824 27.7391 177.662C27.4522 177.493 27.0916 177.604 26.9224 177.876Z" fill="#453EB6"/>
<path d="M8.13778 173.925C7.14447 175.228 6.65885 176.92 6.81337 178.553C6.8428 178.877 7.07089 179.149 7.40935 179.149C7.71103 179.149 8.03477 178.877 8.00534 178.553C7.8729 177.096 8.27022 175.706 9.16788 174.529C9.36654 174.271 9.20467 173.859 8.9545 173.712C8.64547 173.528 8.32909 173.668 8.13778 173.925Z" fill="#453EB6"/>
<path d="M11.7946 174.33C10.9485 175.72 10.5732 177.405 10.794 179.024C10.8381 179.34 11.0368 179.62 11.39 179.62C11.6769 179.62 12.0301 179.348 11.9859 179.024C11.7946 177.582 12.0742 176.169 12.8247 174.933C12.994 174.653 12.8836 174.278 12.6114 174.116C12.3244 173.947 11.9639 174.05 11.7946 174.33Z" fill="#453EB6"/>
<path d="M60.4227 27.4378C61.4013 28.8358 62.2328 30.3368 62.8508 31.9261C63.1598 32.7207 63.4247 33.5301 63.6381 34.3542C63.8073 35.0017 63.8515 35.8405 64.3592 36.3334C65.014 36.9662 65.9117 36.4659 66.6033 36.1716C67.4274 35.8184 68.2221 35.4211 69.0241 35.0164C70.4956 34.2659 71.9672 33.4933 73.3505 32.5883C74.8956 31.5803 76.3451 30.4104 77.5297 28.9977C78.0227 28.4164 77.1839 27.5629 76.6836 28.1515C74.7411 30.4545 72.1585 32.0291 69.517 33.4124C68.8254 33.7729 68.1264 34.1334 67.42 34.4793C67.0522 34.6559 66.6916 34.8324 66.3164 35.0017C66.1251 35.09 65.9338 35.1709 65.7351 35.2445C65.6321 35.2886 65.2642 35.502 65.1538 35.4505C65.0508 35.4064 64.992 34.906 64.9699 34.8104C64.8816 34.4204 64.7859 34.0304 64.6829 33.6478C64.4769 32.9047 64.2267 32.1689 63.9398 31.4552C63.2923 29.8217 62.4608 28.2692 61.4528 26.8271C61.0113 26.2017 59.9739 26.7977 60.4227 27.4304" fill="#453EB6"/>
<path d="M42.0133 15.4C40.7552 15.4295 39.497 15.4662 38.2388 15.503C37.6428 15.5178 37.0394 15.5325 36.4434 15.5472C35.8769 15.5619 35.2515 15.6576 34.6849 15.584C34.2582 15.5251 34.4936 15.0542 34.604 14.7673C34.8247 14.2007 35.0822 13.6489 35.3398 13.097C35.8548 11.9933 36.4067 10.9044 36.9953 9.83749C37.3043 9.28565 36.701 8.7706 36.1786 9.02077L34.4127 9.84485C34.7144 10.0141 35.0087 10.1907 35.3103 10.3599C35.3398 9.77862 35.8401 9.18264 36.0976 8.6823C36.3846 8.12311 36.6421 7.54183 36.8702 6.96056C37.3411 5.78331 37.6796 4.55454 37.9003 3.31107C38.0327 2.56056 36.8849 2.23682 36.7451 2.99468C36.5097 4.29702 36.1565 5.57729 35.6562 6.79869C35.406 7.41675 35.1117 8.01274 34.7953 8.59401C34.4789 9.16792 34.1478 9.69033 34.1184 10.3673C34.0963 10.8602 34.6334 11.0662 35.016 10.8823C35.6047 10.6101 36.1933 10.3305 36.7819 10.0582L35.9652 9.2415C35.2662 10.5144 34.6113 11.8094 34.0227 13.1338C33.6107 14.0609 32.713 15.5398 33.6843 16.4154C34.1478 16.8348 34.7879 16.7907 35.3692 16.7759C36.0903 16.7539 36.804 16.7392 37.5251 16.7171L42.0207 16.5994C42.7859 16.5773 42.7933 15.3853 42.0207 15.4074" fill="#453EB6"/>
<path d="M31.418 40.6966C31.0281 41.609 29.9097 41.5427 29.1003 41.3441C28.2836 41.1454 27.4595 40.7628 27.0401 39.9902C26.6722 39.3133 25.6421 39.9167 26.01 40.5936C26.5986 41.6825 27.7833 42.2785 28.9458 42.5287C30.204 42.8009 31.8669 42.6538 32.4481 41.2926C32.5732 40.9983 32.5364 40.6524 32.2348 40.4759C31.9846 40.3287 31.5431 40.3949 31.418 40.6892" fill="#453EB6"/>
<path d="M31.5357 40.733C30.5203 41.5865 30.6454 43.1537 31.0501 44.2795C31.4695 45.4347 32.4922 46.5163 33.824 46.3765C34.1477 46.3397 34.42 46.1263 34.42 45.7805C34.42 45.4862 34.1477 45.1477 33.824 45.1845C33.4488 45.2213 33.1397 45.133 32.8454 44.9049C32.5217 44.6474 32.3083 44.2795 32.1832 43.8969C32.036 43.4701 31.9404 43.0139 31.9477 42.5578C31.9551 42.1384 32.0802 41.8367 32.3819 41.5865C32.632 41.3805 32.5952 40.9537 32.3819 40.7404C32.139 40.4976 31.7859 40.5344 31.5357 40.7404" fill="#453EB6"/>
<path d="M10.2127 59.4955C9.74175 61.1069 9.21198 62.7035 8.87352 64.3517C8.72636 65.0727 8.48355 65.963 8.64543 66.6988C8.79994 67.4052 9.38121 67.9644 10.0876 68.1042C10.7866 68.244 11.3899 67.9349 11.9491 67.5597C12.2508 67.361 12.5451 67.1477 12.8394 66.9343C13.0307 66.8018 13.4795 66.3751 13.7224 66.3677C13.9063 66.3677 13.6856 66.7798 13.6561 66.8975C13.5237 67.4052 13.3986 67.9202 13.2882 68.4426C13.0749 69.4433 12.9056 70.4513 12.7805 71.4667C12.6407 72.541 12.4862 73.6667 12.523 74.7557C12.5451 75.5209 12.832 76.4038 13.6782 76.5804C14.4287 76.7423 14.7525 75.5871 13.9946 75.4252C13.5384 75.3296 13.7371 74.1008 13.7591 73.7403C13.818 72.7985 13.9137 71.8567 14.0535 70.9222C14.1933 69.9657 14.3772 69.0165 14.5979 68.0674C14.7672 67.3537 15.2454 66.4119 14.7966 65.7202C13.8916 64.337 12.2655 65.9115 11.4046 66.4928C11.0073 66.765 10.4334 67.1992 9.99192 66.7577C9.59459 66.353 9.88891 65.4333 9.98456 64.9477C10.3157 63.2038 10.8896 61.5189 11.3826 59.8119C11.5959 59.0687 10.4481 58.7523 10.2274 59.4955" fill="#453EB6"/>
<path d="M14.9217 76.2126C14.8481 77.2428 14.7746 78.2802 14.701 79.3103C14.6716 79.7518 14.6495 80.1933 15.0174 80.5023C15.1866 80.6494 15.4073 80.7157 15.6281 80.7157C15.7237 80.7157 15.9665 80.6347 16.0475 80.6789C16.1946 80.7598 16.2609 81.1718 16.3124 81.3116C16.4595 81.6943 16.6361 82.0474 16.8789 82.3785C17.3572 83.0334 17.99 83.5632 18.7405 83.8795C19.0348 84.0046 19.3806 83.9678 19.5572 83.6662C19.7043 83.416 19.6381 82.9745 19.3438 82.8494C18.505 82.4963 17.806 81.8561 17.4675 80.9953C17.313 80.5906 17.2027 80.1638 16.8936 79.8401C16.7318 79.6635 16.511 79.5531 16.2829 79.5016C16.1578 79.4795 16.0475 79.4795 15.9298 79.4869C15.8635 79.4943 15.7973 79.5016 15.7311 79.509C15.6207 79.5163 15.606 79.5163 15.6869 79.509C15.7605 79.5826 15.8267 79.6488 15.9003 79.7224C15.8194 79.612 15.915 79.1632 15.9224 79.016C15.9445 78.707 15.9665 78.4053 15.9886 78.1036C16.0328 77.4708 16.0769 76.8381 16.1211 76.1979C16.1726 75.4327 14.9806 75.4327 14.9291 76.1979" fill="#453EB6"/>
<path d="M35.1337 84.7035C35.7003 83.6587 36.3184 82.636 37.0541 81.6942C37.6869 80.8922 38.3933 80.149 39.0849 79.3985C38.7538 79.2072 38.4227 79.0086 38.0842 78.8173C37.7899 79.7002 38.4816 80.6935 39.0923 81.2821C39.8354 81.9885 40.9244 82.1945 41.8147 81.6206C42.3886 81.2454 42.6756 80.5611 42.9993 79.9798C43.323 79.3985 43.6689 78.6407 44.0809 78.1845C44.1398 78.1183 44.1986 78.1256 44.0883 78.1624C44.1692 78.1403 44.2575 78.1477 44.3384 78.1551C44.6107 78.1624 44.8903 78.1992 45.1552 78.236C45.5598 78.2875 45.9572 78.3979 46.3692 78.4567C47.1565 78.5671 47.7672 78.2581 48.2896 77.6694C49.1799 76.6688 49.9672 75.5577 50.7766 74.4835C51.608 73.3798 52.4174 72.2614 53.2047 71.1357C54.9779 68.5898 56.6555 65.9704 58.2227 63.2922C58.6127 62.63 57.5826 62.0266 57.1926 62.6888C54.6615 67.0079 51.8582 71.1724 48.7899 75.131C48.422 75.6092 48.0468 76.0801 47.6715 76.551C47.4729 76.8012 47.2006 77.1691 46.921 77.2648C46.7518 77.3236 46.5826 77.2868 46.3692 77.2427C45.9424 77.1617 45.523 77.0734 45.0889 77.0293C44.5812 76.9704 43.9779 76.8454 43.507 77.1102C43.2789 77.2353 43.1244 77.4487 42.9772 77.6547C42.5652 78.2213 42.2488 78.8541 41.9103 79.4648C41.7485 79.7591 41.5939 80.0534 41.4174 80.333C41.3879 80.3771 41.3585 80.4286 41.3291 80.4728C41.2555 80.5758 41.5277 80.3477 41.2702 80.5316C41.0936 80.6567 40.9244 80.7524 40.7036 80.7671C40.2622 80.7965 39.9605 80.5022 39.6956 80.1858C39.4896 79.943 39.1217 79.4795 39.2321 79.141C39.416 78.5745 38.6287 78.1256 38.2314 78.5597C37.5103 79.3397 36.7819 80.1122 36.1271 80.951C35.3545 81.9444 34.6923 83.0039 34.0963 84.1076C33.7284 84.7845 34.7585 85.3878 35.1264 84.7109" fill="#453EB6"/>
<path d="M96.6013 173.932C98.1465 173.329 99.3458 172.115 99.9271 170.562C100.037 170.268 99.802 169.893 99.5077 169.827C99.1692 169.753 98.8896 169.93 98.7719 170.246C98.7572 170.29 98.7424 170.327 98.7204 170.371C98.6689 170.511 98.7719 170.253 98.713 170.393C98.6762 170.467 98.6468 170.54 98.61 170.614C98.5364 170.768 98.4481 170.916 98.3598 171.055C98.3083 171.129 98.2642 171.203 98.2127 171.276C98.1906 171.306 98.1685 171.335 98.1465 171.364C98.117 171.401 98.1317 171.387 98.1759 171.335C98.1612 171.35 98.1465 171.372 98.1317 171.387C98.0214 171.519 97.911 171.644 97.7933 171.769C97.6829 171.887 97.5578 171.997 97.4327 172.1C97.396 172.13 97.3665 172.159 97.3297 172.181C97.212 172.277 97.4327 172.108 97.3077 172.196C97.2341 172.247 97.1605 172.299 97.0869 172.35C96.9545 172.439 96.8073 172.52 96.6675 172.601C96.5866 172.645 96.5057 172.682 96.4321 172.718C96.3953 172.733 96.3511 172.755 96.307 172.77C96.3953 172.733 96.3438 172.755 96.2849 172.77C95.998 172.88 95.7625 173.174 95.8655 173.506C95.9538 173.785 96.2849 174.043 96.6013 173.925" fill="#453EB6"/>
</svg>
