<svg width="138" height="138" viewBox="0 0 138 138" fill="none" xmlns="http://www.w3.org/2000/svg">
<path d="M103.201 3H123.471C129.789 3 134.915 8.12616 134.915 14.4443V34.5043" stroke="#61D7DA" stroke-width="5" stroke-miterlimit="10" stroke-linecap="round"/>
<path d="M134.81 103.436V135.15H103.306" stroke="#61D7DA" stroke-width="5" stroke-miterlimit="10" stroke-linecap="round"/>
<path d="M3.00598 34.7143V3H34.5041" stroke="#61D7DA" stroke-width="5" stroke-miterlimit="10" stroke-linecap="round"/>
<path d="M34.7143 135.094H14.4443C8.12616 135.094 3 129.968 3 123.65V103.59" stroke="#61D7DA" stroke-width="5" stroke-miterlimit="10" stroke-linecap="round"/>
<path d="M90.9168 85.7042C92.115 87.5818 92.7573 89.7743 92.7573 92.0224V93.6838C92.7573 96.8583 91.4789 99.8907 89.2061 102.108L83.3202 107.852C81.1216 109.995 78.1755 111.193 75.106 111.193H62.9391C59.8696 111.193 56.9236 109.995 54.7249 107.852L48.8391 102.108C46.5663 99.8907 45.2878 96.8583 45.2878 93.6838V92.0224C45.2878 89.1814 46.313 86.433 48.1844 84.2899L60.1537 70.5481C62.3894 67.985 65.6257 66.5089 69.0287 66.5089C72.4318 66.5089 75.6681 67.9788 77.9038 70.5481L82.5729 75.9089" stroke="#61D7DA" stroke-width="5" stroke-miterlimit="10" stroke-linecap="round"/>
<path d="M40.0751 71.7337C40.0751 77.6504 36.4127 82.4431 31.8918 82.4431C27.3709 82.4431 23.7084 77.6442 23.7084 71.7337C23.7084 65.8232 27.3709 61.0244 31.8918 61.0244C36.4127 61.0244 40.0751 65.8232 40.0751 71.7337Z" stroke="#61D7DA" stroke-width="5" stroke-miterlimit="10" stroke-linecap="round"/>
<path d="M114.139 71.7337C114.139 77.6504 110.476 82.4431 105.956 82.4431C101.435 82.4431 97.7722 77.6442 97.7722 71.7337C97.7722 65.8232 101.435 61.0244 105.956 61.0244C110.476 61.0244 114.139 65.8232 114.139 71.7337Z" stroke="#61D7DA" stroke-width="5" stroke-miterlimit="10" stroke-linecap="round"/>
<path d="M93.239 45.3063C93.239 51.223 89.5766 56.0156 85.0557 56.0156C80.5347 56.0156 76.8723 51.2168 76.8723 45.3063C76.8723 39.3958 80.5347 34.5969 85.0557 34.5969C89.5766 34.5969 93.239 39.3958 93.239 45.3063Z" stroke="#61D7DA" stroke-width="5" stroke-miterlimit="10" stroke-linecap="round"/>
<path d="M61.2653 45.3063C61.2653 51.223 57.6029 56.0156 53.082 56.0156C48.561 56.0156 44.8986 51.2168 44.8986 45.3063C44.8986 39.3958 48.561 34.5969 53.082 34.5969C57.6029 34.5969 61.2653 39.3958 61.2653 45.3063Z" stroke="#61D7DA" stroke-width="5" stroke-miterlimit="10" stroke-linecap="round"/>
</svg>
