<svg width="149" height="137" viewBox="0 0 149 137" fill="none" xmlns="http://www.w3.org/2000/svg">
<path d="M82.316 8.90805C78.3669 8.09778 68.9465 6.75041 58.6062 11.1252C49.5612 14.9517 39.4532 24.4761 36.5522 34.8387C36.0988 36.4593 35.4966 39.2748 33.1773 42.0197C29.886 45.9131 25.8031 46.5078 21.6588 47.9834C14.9517 50.3715 3.88848 56.4634 2.23819 64.7223C0.861094 71.617 5.82682 77.8688 7.62392 80.1305C17.9717 93.1581 37.3495 92.5634 38.1746 92.5262C47.6136 92.1025 51.2859 88.4172 57.1845 91.0395C62.587 93.4406 65.3579 99.1274 66.8613 103.628" stroke="#61D7DA" stroke-width="3" stroke-miterlimit="10" stroke-linecap="round"/>
<path d="M85.401 4.72286C82.8066 5.82305 81.6656 8.23715 77.813 30.096C74.2932 50.063 73.2171 59.5484 78.1401 67.8964C79.69 70.5243 81.0448 71.7006 82.5557 72.3046C86.7409 73.9754 92.1675 71.2695 103.833 61.0518C119.503 47.3236 127.338 40.4605 126.662 34.1269C126.067 28.5572 120.1 24.2475 108.165 15.63C96.2059 6.99386 90.2255 2.67673 85.401 4.721V4.72286Z" stroke="#61D7DA" stroke-width="3" stroke-miterlimit="10" stroke-linecap="round"/>
<path d="M111.681 7.18903C113.027 6.4754 131.247 -2.90595 141.366 5.43468C141.843 5.82866 143.453 7.20204 144.793 9.60313C150.723 20.2296 143.181 35.3981 139.942 41.7168C121.778 77.1552 69.0283 122.339 28.2525 127.796C21.3912 128.714 15.4219 128.39 12.1269 124.712C5.11877 116.888 14.6432 98.8802 15.7007 96.9289" stroke="#61D7DA" stroke-width="3" stroke-miterlimit="10" stroke-linecap="round"/>
<path d="M25.1247 128.124C36.1526 129.463 51.8805 131.254 70.9369 133.012C93.0726 135.055 96.914 134.951 101.891 133.798C120.644 129.461 137.801 114.359 144.211 96.0201C145.848 91.335 146.196 88.1218 146.582 61.8734C146.83 45.1456 146.915 31.0383 146.943 20.5698" stroke="#61D7DA" stroke-width="3" stroke-miterlimit="10" stroke-linecap="round"/>
<path d="M9.12737 55.8445C9.93393 56.337 11.1252 57.0451 12.6008 57.8405C15.3438 59.3198 15.8326 59.357 16.1578 59.974C17.2041 61.9551 14.5112 65.9748 11.4151 68.0358C7.76328 70.4667 3.73792 70.0504 2.26233 69.8181" stroke="#61D7DA" stroke-width="3" stroke-miterlimit="10" stroke-linecap="round"/>
<path d="M41.9993 41.2336C42.2929 41.044 44.0435 39.9624 46.2848 40.52C48.6673 41.1109 49.708 43.0846 49.8548 43.3764" stroke="#61D7DA" stroke-width="3" stroke-miterlimit="10" stroke-linecap="round"/>
</svg>
