<svg width="252" height="170" viewBox="0 0 252 170" fill="none" xmlns="http://www.w3.org/2000/svg">
<g clip-path="url(#clip0_3_683)">
<path d="M88.9431 157.225C88.9099 156.727 88.8766 156.23 88.8366 155.732C87.9714 145.133 85.3955 134.527 83.0793 124.087C82.833 122.986 82.5867 121.885 82.3538 120.791C82.1608 119.908 81.9677 119.02 81.7747 118.137C81.0359 114.814 80.2705 111.498 79.4718 108.188C79.7247 108.241 80.0375 107.956 79.8778 107.644C79.6315 107.153 79.3386 106.696 79.0058 106.271C78.7596 105.27 78.5133 104.275 78.267 103.28C78.1139 102.67 77.9609 102.059 77.8011 101.449C77.6813 100.998 76.9824 101.19 77.1022 101.642C77.4018 102.809 77.6946 103.983 77.9875 105.157C76.9092 104.135 75.6113 103.306 74.3334 102.577C71.864 101.164 69.2616 99.9501 66.5526 99.0945C61.5141 97.5026 56.0163 97.2373 51.0975 99.1807C49.347 99.8706 47.7097 100.832 46.292 102.039C46.1189 101.522 45.9459 101.005 45.7795 100.487C45.6131 99.9833 45.4533 99.4858 45.3002 98.9818C45.1605 98.5374 44.4549 98.7231 44.6014 99.1741C44.9608 100.308 45.3335 101.436 45.7129 102.563C45.2803 102.975 44.8676 103.399 44.4816 103.864C44.1887 104.222 44.7145 104.739 45.0074 104.381C45.3135 104.009 45.6397 103.665 45.9791 103.333C46.8977 105.999 47.8761 108.646 48.9277 111.272C50.5185 115.246 52.2557 119.159 54.1326 123.006C55.9431 126.714 57.8866 130.349 59.9632 133.924C61.5274 136.378 63.0582 138.858 64.4027 141.439C65.9735 144.463 67.6176 147.607 68.7957 150.798C69.3215 152.23 69.8406 153.855 69.6543 155.388C69.4812 156.8 68.5693 157.663 67.4911 158.492C66.1266 159.54 64.5359 160.395 63.1115 161.417C63.0849 161.523 63.0582 161.629 63.0316 161.722C62.6389 163.181 62.6589 164.727 62.9651 166.212C63.0782 166.763 62.8186 167.187 62.4392 167.42C62.6589 167.705 62.9118 167.977 63.1914 168.215C63.9102 168.832 64.7422 169.27 65.6208 169.575C65.7273 169.542 65.8471 169.522 65.9868 169.522C72.097 169.529 78.1805 169.045 84.2773 168.686C84.8431 168.308 85.3822 167.89 85.8748 167.42C86.0811 167.267 86.2874 167.108 86.4871 166.935C87.2259 166.305 87.7584 165.503 88.1378 164.607C89.0962 162.352 89.0896 159.493 88.9564 157.218" fill="#6865F9"/>
<path d="M88.9431 157.225C88.9099 156.728 88.8766 156.23 88.8366 155.733C87.9714 145.133 85.3955 134.528 83.0793 124.087C81.8413 124.187 80.6299 124.651 79.6382 125.46C78.6664 126.263 77.9542 127.364 77.6148 128.578C77.4217 129.281 77.3485 130.064 76.9159 130.674C76.7495 130.913 76.5232 131.118 76.2436 131.211C75.8909 131.33 75.4982 131.304 75.1454 131.43C73.9806 131.835 73.355 133.002 72.9822 134.103C72.483 135.582 72.2967 137.114 72.2301 138.666C72.2101 139.111 72.1835 139.847 71.6976 140.059C71.3915 140.185 71.0187 140.059 70.7126 140C70.3731 139.933 70.027 139.88 69.6809 139.867C68.363 139.794 67.0252 140.106 65.8804 140.736C65.3812 141.008 64.9352 141.339 64.5359 141.718C66.0601 144.656 67.6442 147.7 68.7823 150.791C69.3082 152.224 69.8273 153.849 69.641 155.381C69.4679 156.794 68.556 157.656 67.4778 158.485C67.358 158.578 67.2382 158.664 67.1184 158.757C68.6958 160.727 71.032 161.808 73.4149 162.452C74.8193 162.83 76.2503 163.082 77.668 163.38C79.099 163.686 80.4968 164.11 81.9211 164.462C83.2923 164.806 84.71 165.059 86.121 164.966C86.8066 164.919 87.4722 164.793 88.1311 164.614C89.0896 162.359 89.0829 159.5 88.9498 157.225" fill="#6865F9"/>
<path d="M173.453 122.455C173.327 124.293 172.888 126.103 172.349 127.855C171.849 129.499 171.23 131.105 170.525 132.663C169.094 135.834 167.297 138.819 165.313 141.664C163.296 144.563 161.087 147.329 158.83 150.041C156.374 152.993 153.832 155.865 151.209 158.671C149.905 160.064 148.58 161.437 147.236 162.796C145.944 164.096 144.667 165.443 143.196 166.551C140.227 168.799 136.333 169.336 132.686 169.655C129.405 169.94 119.008 171.24 119.634 165.297C119.8 163.725 120.798 162.432 121.97 161.45C122.895 160.674 124.646 160.044 126.383 159.513C127.8 159.082 129.211 158.717 130.163 158.405C130.662 158.279 135.768 153.59 138.523 150.579C142.976 145.717 144.553 140.298 144.966 138.659C145.365 137.068 145.585 135.443 145.705 133.804C145.665 133.791 145.625 133.778 145.592 133.764C144.48 133.32 143.728 132.299 143.142 131.31C142.483 130.189 141.918 128.995 141.458 127.782C141.112 126.86 140.819 125.911 140.593 124.949C140.194 125.148 139.721 125.115 139.289 124.923C138.303 124.492 137.531 123.497 136.939 122.634C136.293 121.699 135.808 120.671 135.388 119.623C134.463 117.315 133.811 114.881 133.285 112.46C133.225 112.174 133.165 111.896 133.112 111.611C132.406 108.075 132.054 104.48 132.067 100.885C131.867 101.37 131.727 101.874 131.668 102.404C131.648 102.583 131.541 102.743 131.335 102.743C131.168 102.743 130.969 102.59 130.989 102.404C131.042 101.953 131.128 101.515 131.268 101.084C131.468 100.481 131.747 99.9037 132.087 99.3664C132.113 98.5771 132.153 97.7878 132.213 96.9985C132.247 96.574 132.919 96.5674 132.886 96.9985C132.852 97.4562 132.819 97.9205 132.799 98.3781C133.298 97.7746 133.857 97.224 134.45 96.7199C135.967 95.4398 137.724 94.5112 139.621 93.9076C141.505 93.304 143.488 93.0055 145.465 92.853C147.369 92.7071 149.286 92.727 151.196 92.9326C154.957 93.3372 158.677 94.4449 161.965 96.3883C163.702 97.4164 165.293 98.6833 166.798 100.036C167.556 100.72 168.302 101.429 169.041 102.146C169.719 102.802 170.425 103.452 171.037 104.169C171.623 104.852 172.142 105.628 172.322 106.523C172.535 107.565 172.335 108.606 172.156 109.621C171.903 111.027 171.656 112.433 171.403 113.839C171.863 114.907 172.315 115.982 172.681 117.083C173.26 118.834 173.567 120.638 173.44 122.469" fill="#6865F9"/>
<path d="M149.832 134.169C149.053 130.647 147.509 127.331 145.678 124.22C144.746 122.641 143.741 121.109 142.71 119.597C141.811 118.277 140.919 116.944 139.908 115.703C138.204 113.614 135.934 111.591 133.112 111.604C133.165 111.889 133.225 112.168 133.285 112.453C133.811 114.874 134.463 117.308 135.388 119.617C135.808 120.665 136.3 121.693 136.946 122.628C137.538 123.49 138.31 124.485 139.295 124.916C139.721 125.102 140.2 125.142 140.6 124.943C140.826 125.904 141.112 126.853 141.465 127.775C141.924 128.995 142.49 130.183 143.149 131.304C143.735 132.299 144.487 133.32 145.598 133.758C145.638 133.771 145.678 133.784 145.712 133.798C145.592 135.436 145.372 137.061 144.973 138.653C144.567 140.291 142.983 145.71 138.536 150.572C135.774 153.59 130.676 158.273 130.17 158.399C129.218 158.711 127.807 159.075 126.389 159.513C127.022 160.734 128.167 161.629 129.438 162.127C130.982 162.73 132.666 162.723 134.243 162.332C135.914 161.914 137.458 161.138 138.903 160.236C140.107 159.487 141.232 158.624 142.277 157.663C144.387 155.719 146.131 153.404 147.462 150.871C148.787 148.343 149.692 145.591 150.111 142.759C150.537 139.92 150.464 136.988 149.838 134.162" fill="#6865F9"/>
<path d="M24.6402 94.0075C23.7816 93.7223 22.8897 93.5233 22.0045 93.2646C21.9446 94.18 21.8847 95.1019 21.8248 96.0173C21.5852 99.9108 21.3922 103.811 21.259 107.711C21.1193 111.631 21.0394 115.551 21.0128 119.478C20.9861 123.073 21.0993 126.681 20.9063 130.276C20.8131 132.047 20.6334 133.818 20.2806 135.549C20.2407 135.728 20.2007 135.914 20.1608 136.093C19.8946 137.26 19.5418 138.395 19.1092 139.502C18.4236 141.83 17.4119 144.019 16.2005 146.095C15.4617 147.74 14.5898 149.319 13.6247 150.871C11.7877 153.836 9.95728 156.741 8.28664 159.805C6.78906 162.545 5.19829 165.258 3.1283 167.606C4.5926 168.747 6.64262 169.171 8.61943 169.231C12.9724 169.363 18.2173 169.483 22.3905 167.851C24.5071 166.398 26.444 164.7 28.2145 162.817C33.6257 157.059 37.3997 149.956 40.8341 142.892C45.2204 133.864 48.9743 124.592 52.8747 115.345C53.0145 115.014 53.2408 114.835 53.5003 114.782C48.8944 102.902 36.1018 98.0138 24.6536 94.0142" fill="#6865F9"/>
<path d="M220.917 134.136C220.691 132.113 219.998 130.163 219.033 128.366C217.016 124.598 213.868 121.607 210.92 118.562C207.978 115.524 205.255 112.281 202.806 108.832C201.395 106.849 200.077 104.812 198.852 102.716C198.999 100.561 198.999 98.3917 198.866 96.2294C198.699 93.6758 198.34 91.1221 197.794 88.6149C197.674 88.0644 197.541 87.5138 197.401 86.9633C197.315 80.8876 196.623 74.8053 195.298 68.849C194.32 64.4381 193.068 59.9809 191.238 55.8287C189.701 52.3464 187.517 49.229 184.729 46.6157C179.351 41.5681 172.235 38.5501 165.007 37.5817C149.432 35.4924 134.669 42.4834 120.119 46.483C109.73 49.3418 98.6741 51.252 87.8183 50.151C84.5835 49.8193 81.362 49.2091 78.2337 48.2871C77.1355 45.5345 75.7311 42.9013 74.0538 40.4471C73.9473 40.2879 73.8342 40.1354 73.7277 39.9828C75.6646 37.8802 78.1339 36.3281 80.8895 35.4592C83.9645 34.4974 87.5387 34.1393 90.0014 31.8907C90.7136 31.2473 91.093 30.3784 90.9998 29.41C90.9931 29.2973 90.9732 29.1845 90.9532 29.0718C91.5057 28.6207 92.0315 28.1365 92.4907 27.586C93.4558 26.4385 93.9417 25.1053 94.208 23.6395C94.5008 22.0144 94.6938 20.3562 94.8203 18.7112C94.9268 17.3515 95.0932 15.7862 94.2878 14.5723C93.6955 13.6769 92.757 13.5045 91.7586 13.4846C87.146 13.3851 82.5002 13.5111 77.8943 13.08C77.2287 13.0136 76.5631 12.934 75.9042 12.8279C74.5597 11.1299 73.2218 9.42525 71.8773 7.72724C70.2533 5.67106 68.7357 3.17047 66.5659 1.63165C64.8487 0.417837 62.7055 0.351508 60.6887 0.179054C57.3408 -0.0995259 53.9729 0.0264983 50.6316 0.205585C47.3835 0.364774 44.1022 0.736214 41.0471 1.85053C38.4712 2.7924 36.1284 4.27816 34.1715 6.18842C32.3811 7.94612 30.9434 10.0421 29.9517 12.3437C29.0598 13.9091 28.2677 15.5275 27.5821 17.2056C26.8966 18.897 26.3175 20.6281 25.8583 22.3991C25.632 23.2879 25.4256 24.1767 25.2592 25.0788C25.0862 25.9941 24.9331 26.936 25.0196 27.8712C25.0729 28.4416 25.2193 29.2044 25.5987 29.7284C24.7134 31.1611 24.0345 32.7265 23.5021 34.325C22.9496 35.9898 22.537 37.7011 22.1576 39.419C21.7582 41.2298 21.3722 43.0405 20.9795 44.8579C20.1941 48.4662 19.3355 52.0679 18.6699 55.7093C18.3504 57.4803 18.0841 59.2778 18.0375 61.0819C18.0043 62.4682 17.991 64.1463 18.8695 65.3269C19.1424 65.6851 19.4819 65.9637 19.8946 66.103C18.5367 69.9633 17.6182 73.9894 17.159 78.0753C17.159 78.0885 17.159 78.1018 17.159 78.1151C16.8395 81.007 16.6731 83.9851 17.0858 86.8903C17.2854 88.2899 17.6116 89.6695 18.1507 90.9894C18.6632 92.243 19.3421 93.49 20.2939 94.4717C20.8064 95.0023 21.4054 95.4003 22.0577 95.6391C22.0577 95.6988 22.0511 95.7651 22.0444 95.8248C22.9297 96.0835 23.8282 96.2891 24.6802 96.5677C36.2348 100.607 49.1607 105.542 53.6534 117.654C53.6667 117.693 53.6867 117.733 53.7 117.773C53.7133 117.733 53.7333 117.687 53.7466 117.647C55.4372 117.945 57.1278 118.217 58.8251 118.449C62.579 118.98 66.3529 119.365 70.1335 119.604C73.9007 119.849 77.6746 119.942 81.4419 119.895C81.8812 119.889 82.3271 119.882 82.7664 119.876C84.5835 120.665 86.4738 121.295 88.3973 121.753C90.7668 122.316 93.2029 122.622 95.6257 122.641C96.8304 122.655 98.0484 122.615 99.2398 122.456C100.351 122.31 101.483 122.011 102.381 121.321C103.227 120.671 103.726 119.703 103.706 118.622C103.699 118.091 103.553 117.554 103.273 117.11C106.115 117.494 109.064 116.831 111.447 115.286C112.126 115.398 112.811 115.471 113.503 115.504C115.926 115.624 118.835 115.359 120.499 113.408C121.224 112.553 121.657 111.472 121.57 110.357C123.507 110.782 125.497 110.968 127.474 110.881C128.533 110.835 129.584 110.716 130.623 110.53C131.521 110.364 132.553 110.211 133.285 109.628C133.804 109.21 134.084 108.533 133.95 107.91C138.303 108.513 142.663 107.366 146.53 105.469C147.509 104.991 148.487 104.461 149.432 103.864C149.485 103.95 149.539 104.036 149.592 104.116C151.296 106.782 153.226 109.316 155.356 111.671C155.376 111.697 155.403 111.717 155.423 111.744C156.501 112.931 157.626 114.072 158.804 115.16C159.389 115.703 159.995 116.234 160.601 116.758C161.167 117.236 161.732 117.746 162.365 118.144C163.336 118.761 164.841 119.391 165.919 118.735C166.305 118.503 166.531 118.191 166.644 117.833C168.342 119.623 170.165 121.295 172.222 122.668C173.646 123.616 175.177 124.399 176.801 124.93C177.613 125.188 178.465 125.414 179.311 125.494C180.103 125.566 180.928 125.354 181.367 124.651C181.753 124.034 181.667 123.232 181.441 122.562C181.347 122.277 181.221 121.998 181.081 121.726C182.079 122.323 183.091 122.9 184.11 123.464C184.802 123.849 185.501 124.227 186.206 124.591C186.892 124.95 187.597 125.368 188.356 125.54C188.629 125.606 188.895 125.62 189.155 125.606C190.379 125.52 196.396 132.385 197.541 133.473C200.729 136.511 204.297 139.575 203.006 144.311C201.854 148.523 200.283 152.609 198.546 156.608C197.934 156.96 197.328 157.331 196.742 157.736C195.93 158.293 195.112 158.89 194.353 159.56C193.461 160.349 192.662 161.238 192.083 162.266C191.158 163.911 190.952 166.014 191.964 167.712C193.135 169.675 195.757 169.973 197.807 169.973C199.724 169.973 201.628 169.741 203.518 169.489C205.156 169.27 207.072 169.277 208.537 168.448C209.475 167.911 210.108 167.015 210.62 166.08C211.306 164.826 211.931 163.54 212.517 162.233C212.91 161.364 213.282 160.495 213.649 159.62C215.02 156.336 216.145 152.96 217.143 149.551C217.642 147.846 218.108 146.128 218.567 144.404C218.987 142.819 219.719 141.386 220.225 139.827C220.817 137.996 221.11 136.066 220.897 134.13" fill="#6865F9"/>
<path d="M74.9923 35.6317C74.9723 35.5322 74.959 35.4327 74.9391 35.3265C74.8459 34.8954 74.1869 35.0811 74.2801 35.5056C74.3001 35.5852 74.3134 35.6715 74.3267 35.751C73.8741 35.9567 73.3616 35.9832 72.8557 35.9766C72.1968 35.9766 71.5445 35.9434 70.8989 36.0628C70.0403 36.2153 69.2416 36.5802 68.5028 37.0312C68.1167 35.227 66.526 33.9867 64.8953 33.0581C64.1498 35.2602 63.1048 37.3562 61.7603 39.2532C61.3876 39.7772 60.9616 40.3211 60.3626 40.593C59.7902 40.8451 59.1579 40.7721 58.652 40.3874C58.4124 40.2017 58.2327 39.9961 58.0996 39.7706C57.7867 40.5532 57.4007 41.3094 56.9148 42.0058C56.5088 42.5895 55.8565 43.6043 54.9912 43.1997C54.6917 43.0604 54.4854 42.8018 54.339 42.49C54.339 42.49 52.7549 44.4268 50.7381 44.7253C48.7147 45.0238 48.3486 43.286 48.3486 43.286C47.0707 45.508 45.5132 47.5708 43.7028 49.3816C43.177 49.9055 42.5646 50.403 41.7792 50.4362C41.1136 50.4693 40.468 50.1311 40.0021 49.6668C39.4896 49.156 39.2367 48.5525 39.1169 47.9024C38.5178 49.6933 37.7324 51.4178 36.7806 53.0429C36.2282 53.9914 35.6225 54.9001 34.9569 55.7756C34.3246 56.618 33.659 57.4935 32.8536 58.1767C32.1348 58.7869 31.2096 59.3706 30.2179 59.3375C29.6255 59.3176 29.1197 59.0655 28.7336 58.6808C28.0347 59.8349 27.2427 60.9294 26.3641 61.9574C25.6852 62.7468 24.9531 63.4963 24.181 64.1927C23.4089 64.8825 22.5902 65.5259 21.6051 65.8974C21.066 66.0963 20.4736 66.1892 19.9145 66.0963C18.8363 69.1674 14.7162 74.268 17.525 75.5614C15.5416 79.4483 14.7562 83.7795 15.2421 88.2965C15.4351 90.1006 15.7479 92.0971 16.8262 93.6227C17.7979 95.0023 19.6283 95.9508 21.2457 95.3804C21.2989 97.4366 21.492 99.5856 22.8764 101.244C24.0745 102.677 26.1045 103.38 27.7352 102.298C27.9682 102.146 28.1812 101.96 28.3675 101.748C28.5473 105.257 29.5856 108.732 31.3893 111.783C32.2746 113.282 33.5924 114.854 35.343 115.332C36.1949 115.564 37.0935 115.471 37.8722 115.073C38.4912 114.755 38.9971 114.277 39.4363 113.753C39.6294 114.503 39.869 115.246 40.255 115.922C40.6544 116.612 41.2201 117.222 41.9789 117.508C42.8042 117.819 43.7627 117.654 44.4416 117.123C44.7078 116.917 44.9142 116.652 45.0673 116.367C45.6929 118.018 46.7978 119.484 48.2222 120.539C49.1806 121.249 50.4652 121.786 51.6034 121.229C52.6816 120.705 53.2075 119.431 53.507 118.343C53.6401 117.859 53.72 117.362 53.7666 116.864C54.2325 116.931 54.6984 116.877 55.1576 116.652C56.5953 115.942 56.7684 113.873 56.8349 112.46C56.9747 109.628 56.1627 106.809 54.8714 104.262C55.1776 104.215 55.4771 104.122 55.7633 103.983C56.2958 103.718 56.6952 103.254 56.8815 102.696C57.1544 101.881 56.9747 100.939 56.815 100.11C56.4955 98.3983 55.8499 96.76 55.0844 95.1947C54.725 94.4651 54.339 93.7487 53.9396 93.039C54.1459 92.3558 57.9465 92.0905 55.1377 82.7846C55.77 82.9372 56.3424 82.5723 56.7018 82.0484C57.1744 81.3585 57.3075 80.483 57.4473 79.6738C57.7867 77.6839 56.5021 73.6843 56.4023 71.6613C56.3757 71.1307 56.3357 70.5934 56.2958 70.0628C56.4289 70.2551 56.5687 70.4409 56.7151 70.6266C57.1478 71.1506 57.6802 71.7144 58.3458 71.9399C59.9366 72.4838 60.4358 70.5603 60.742 69.4526C61.1879 67.8275 61.534 66.1693 61.7736 64.4912C61.9001 63.5825 61.9999 62.6672 62.0665 61.7452C62.8585 61.2544 63.5707 60.6176 64.1431 59.9013C65.6474 58.0441 66.5992 55.7093 67.3247 53.4475C67.7174 52.2271 68.0235 50.9734 68.2432 49.7066C68.4429 48.5657 68.5161 47.3983 68.789 46.2707C69.0552 45.183 69.5611 44.261 70.4862 43.6043C71.3715 42.9742 72.3566 42.5166 73.1286 41.7272C74.5663 40.2614 75.2719 38.1654 75.0655 36.1225C75.172 35.9699 75.1254 35.7643 74.999 35.6516" fill="#E1F5FF"/>
<path d="M209.489 152.363C207.452 156.058 204.057 159.739 199.658 160.409C197.914 160.674 196.004 160.369 194.373 159.56C195.132 158.89 195.95 158.293 196.762 157.736C197.348 157.331 197.947 156.96 198.566 156.608C200.303 152.609 201.868 148.523 203.019 144.311C204.31 139.575 200.743 136.511 197.555 133.473C196.41 132.385 190.386 125.52 189.168 125.606C188.908 125.626 188.642 125.606 188.369 125.54C187.611 125.368 186.905 124.943 186.219 124.592C185.514 124.227 184.815 123.849 184.123 123.464C183.105 122.9 182.093 122.323 181.094 121.726C181.234 121.992 181.361 122.27 181.454 122.562C181.68 123.232 181.767 124.034 181.381 124.651C180.941 125.348 180.109 125.567 179.317 125.487C178.472 125.414 177.62 125.182 176.808 124.923C175.184 124.399 173.646 123.61 172.229 122.661C170.179 121.288 168.348 119.617 166.651 117.826C166.538 118.178 166.305 118.496 165.926 118.728C164.841 119.378 163.343 118.755 162.371 118.138C161.739 117.74 161.18 117.229 160.607 116.752C159.995 116.228 159.396 115.697 158.81 115.153C157.639 114.065 156.507 112.924 155.429 111.737C155.409 111.711 155.383 111.691 155.363 111.664C154.983 111.299 155.123 111.253 155.363 111.114C156.567 110.377 158.198 110.132 159.596 110.033C162.511 109.834 165.526 110.152 168.375 110.855C172.961 111.989 177.281 114.404 181.347 116.752C184.229 118.416 187.138 120.048 190.013 121.713C192.543 123.185 194.752 125.248 197.208 126.727C201.149 129.102 205.775 130.541 208.856 134.083C210.267 135.708 211.239 137.658 211.692 139.748C212.624 144.039 211.565 148.596 209.495 152.357" fill="#6865F9"/>
<path d="M210.72 166.571C210.72 166.571 214.148 158.665 215 156.217C215.852 153.77 211.199 152.735 206.513 154.42C203.299 155.574 202.26 154.055 200.55 154.154C198.839 154.254 197.921 155.64 197.109 158.333C196.297 161.026 208.444 163.029 208.55 163.274C208.657 163.52 210.72 166.571 210.72 166.571Z" fill="#E1F5FF"/>
<path d="M41.6195 131.397C39.8024 132.411 38.3514 133.964 37.2 135.668C36.6875 136.431 36.2881 137.34 35.5892 137.957C35.303 138.209 34.9236 138.401 34.5309 138.282C34.1116 138.162 33.8054 137.791 33.466 137.532C32.614 136.882 31.6356 137.048 30.757 137.525C30.2645 137.791 29.8119 138.129 29.3593 138.447C28.8667 138.792 28.3675 139.131 27.875 139.475C27.4224 139.787 26.9698 140.165 26.4307 140.331C25.8649 140.504 25.4789 140.232 25.1061 139.82C24.5005 139.157 23.9946 138.408 23.4289 137.705C22.8831 137.028 22.2641 136.385 21.492 135.967C21.1059 135.754 20.6933 135.615 20.2739 135.536C20.234 135.715 20.2007 135.9 20.1541 136.079C19.8879 137.247 19.5351 138.381 19.1092 139.489C18.4236 141.817 17.4119 144.006 16.2005 146.075C15.4617 147.72 14.5898 149.299 13.6247 150.851C11.7876 153.816 9.95726 156.721 8.27996 159.785C8.25999 159.818 8.24668 159.852 8.22672 159.885C9.7842 159.666 11.8276 158.983 12.7128 159.613C14.2503 160.721 16.0474 161.43 17.8578 161.934C19.6616 162.438 19.6616 168.156 21.4454 168.448C23.928 166.869 26.1844 164.952 28.2078 162.797C33.6191 157.033 37.393 149.935 40.8274 142.872C42.8642 138.686 44.7611 134.448 46.5981 130.183C44.8742 130.03 43.0905 130.561 41.6195 131.383" fill="#6865F9"/>
<path d="M90.9932 28.9989C90.9266 29.0453 90.8534 29.0851 90.7935 29.1182C89.835 28.8198 88.81 28.8662 87.7118 28.9392C86.6069 29.0188 85.5353 29.0519 84.5635 29.43C84.3439 29.3371 84.1309 29.231 83.9179 29.1116C82.2406 28.1498 80.9427 26.6508 79.9576 24.9727C78.6997 22.8568 77.8078 20.542 76.9957 18.2138C76.9758 18.1475 76.9492 18.0812 76.9292 18.0215C76.3901 19.5404 75.6446 20.9532 74.4399 22.0742C73.4481 23.0094 72.2234 23.5732 70.8523 23.6992C69.4146 23.8451 67.9038 23.7589 66.6391 24.5217C66.1 24.8467 65.6674 25.2579 65.3013 25.7289C63.1381 28.0371 62.6056 31.4928 63.9768 34.4046C64.7089 35.9567 65.9203 37.1374 67.3646 38.0461C68.15 38.5369 68.982 38.9548 69.8406 39.3129C70.7192 39.6777 71.6577 40.0094 72.6028 40.0625C73.5946 40.1288 74.4931 39.7573 75.3118 39.2333C75.791 38.9216 76.2503 38.5833 76.6896 38.2185C76.7428 38.2053 76.7828 38.1854 76.836 38.1389C78.713 36.3879 81.2555 35.6516 83.6916 34.9883C84.9895 34.6368 86.3007 34.2919 87.5654 33.801C88.6902 33.3699 90.028 32.6337 90.7003 31.6056C91.2128 30.803 91.3193 29.8479 90.9998 28.9989" fill="#E1F5FF"/>
<path d="M251.075 80.4034C250.409 79.4815 249.63 78.6325 248.759 77.8962C245.437 75.0772 241.044 74.268 236.924 73.4323C233.29 72.696 229.703 71.7741 226.162 70.6465C203.651 63.483 202.493 53.4342 189.614 44.3671C186.113 41.8997 182.046 40.3941 177.9 39.4787C174.019 38.6231 170.019 38.2649 166.085 37.8404C162.691 37.4756 161.12 39.9165 162.478 42.9411C162.877 43.8299 163.356 44.6855 163.822 45.5412C165.659 48.904 167.709 52.1607 169.899 55.3113C172.096 58.4818 174.438 61.5595 176.841 64.5841C179.244 67.602 181.727 70.5603 184.216 73.5053C186.898 76.6758 189.594 79.8396 192.283 83.0101C192.622 83.4147 192.969 83.8127 193.308 84.2173C193.355 84.2704 193.401 84.2969 193.448 84.3168C195.631 87.9052 198.1 91.3808 201.495 93.9278C205.242 96.7401 210.414 98.3254 214.913 96.6804C215.725 96.382 216.537 95.9376 217.196 95.3539C219.2 96.5478 221.349 97.4963 223.573 98.1662C225.489 98.7433 228.545 99.4729 229.55 97.1248C229.949 96.1962 229.836 95.1151 229.416 94.1931C229.243 93.8084 229.004 93.4569 228.724 93.1319C228.977 93.238 229.223 93.3441 229.483 93.4303C230.788 93.8681 232.232 93.835 233.37 93.039C234.402 92.316 235.067 91.1685 235.36 89.9481C235.447 89.5966 235.493 89.245 235.513 88.8868C236.285 89.2052 237.064 89.4971 237.849 89.769C239.507 90.3394 241.331 90.8966 243.061 90.4389C244.279 90.1139 245.291 89.2251 245.883 88.1373C246.469 87.0562 246.682 85.7561 246.356 84.5556C247.407 84.7612 248.446 85.1393 249.517 85.0265C250.443 84.927 251.414 84.4959 251.8 83.6071C252.273 82.5127 251.707 81.3188 251.055 80.4101" fill="#6865F9"/>
<path d="M93.7421 26.498C93.1696 27.2807 92.4641 27.9373 91.712 28.521C91.479 28.6935 91.2394 28.8593 90.9932 28.9986C90.8734 28.6537 90.6803 28.3287 90.4208 28.0368C90.3143 27.9174 89.9349 28.0634 89.8284 28.1231C89.4756 27.9572 89.1029 27.8445 88.7301 27.7185C88.1577 27.5128 87.6585 27.2276 87.1727 26.8628C86.121 26.0934 85.0095 25.3439 84.051 24.4617C83.1259 23.6194 82.4336 22.6045 81.9211 21.4703C81.3753 20.2764 80.8695 19.0758 80.2771 17.9151C79.8312 17.0727 79.3253 15.8125 78.3669 15.3946C78.0607 15.2421 77.6946 15.315 77.5682 15.8191C77.3884 16.3895 77.1821 17.3049 76.9292 18.0279C76.5831 16.9931 76.2836 15.965 76.0107 14.9038C75.3051 12.1976 76.2902 12.4762 78.2737 12.6221C81.1224 12.841 85.7882 13.1328 88.3175 13.1262C89.449 13.1262 90.5871 13.0797 91.7053 13.3119C93.376 13.6701 95.0133 14.7778 95.4127 16.5819C95.4526 16.7809 95.4859 16.9799 95.5059 17.1789C95.8254 20.2963 95.6124 23.9377 93.7487 26.498" fill="#E1F5FF"/>
<path d="M68.0169 11.1764C70.0869 10.6856 70.5794 13.2989 70.5195 14.4199C70.4796 15.1495 70.2067 16.0582 69.2682 16.2705C67.8971 16.5756 67.3313 15.0102 67.1317 14.1413C66.9054 13.1729 66.6657 11.4948 68.0169 11.1698" fill="#453EB6"/>
<path d="M88.8965 152.801C88.6702 149.338 86.6735 147.912 84.8564 148.715C83.046 149.511 80.4968 151.806 75.9774 150.818C71.458 149.829 68.8888 152.051 69.2549 153.544C69.4812 154.479 69.1551 155.686 68.8622 156.475C65.1548 157.557 62.1797 160.15 61.6472 164.614C61.5007 165.821 61.6472 167.075 62.2063 168.182C62.4459 168.667 62.792 169.111 63.2446 169.409C63.7305 169.734 64.3029 169.861 64.8686 169.907C65.4876 169.967 66.12 169.94 66.7456 169.947C67.4645 169.947 68.1766 169.947 68.8955 169.953C70.3265 169.953 71.7575 169.967 73.1886 169.973C74.5996 169.973 76.0107 169.987 77.4217 169.993C80.8362 170.006 84.69 169.807 87.0861 166.942C87.146 166.882 87.1993 166.816 87.2525 166.743C87.2925 166.69 87.3324 166.637 87.3723 166.577C87.4855 166.411 87.5853 166.252 87.6785 166.093C90.3608 161.695 89.1228 156.097 88.9032 152.794" fill="#E1F5FF"/>
<path d="M23.1293 154.758C17.6448 156.628 14.4101 150.652 11.7144 153.551C10.0504 155.342 9.26503 156.602 9.26503 156.602C4.71238 157.252 0.652264 160.018 0.0465752 165.006C-0.0865433 166.127 0.0465752 167.294 0.572393 168.315C0.798695 168.766 1.12484 169.178 1.55081 169.456C2.00342 169.761 2.5492 169.874 3.08168 169.921C3.6674 169.974 4.25978 169.954 4.8455 169.954C5.51775 169.954 6.19665 169.954 6.8689 169.96C8.22005 169.96 9.5712 169.974 10.9157 169.98C12.2469 169.98 13.5781 169.993 14.9093 169.993C17.2854 170 19.8879 169.907 22.0045 168.786C26.2909 166.876 31.6289 159.779 33.04 157.484C34.4511 155.189 28.2943 152.993 23.1227 154.751" fill="#E1F5FF"/>
<g style="mix-blend-mode:multiply">
<mask id="mask0_3_683" style="mask-type:luminance" maskUnits="userSpaceOnUse" x="68" y="159" width="5" height="11">
<path d="M72.7626 159.878H68.7823V169.86H72.7626V159.878Z" fill="white"/>
</mask>
<g mask="url(#mask0_3_683)">
<path d="M69.5342 169.542C69.1482 166.226 70.2863 162.816 72.6625 160.455C72.9687 160.15 72.4961 159.672 72.1833 159.977C69.694 162.458 68.4493 166.06 68.8553 169.542C68.9086 169.966 69.5808 169.973 69.5342 169.542Z" fill="#6865F9"/>
</g>
</g>
<g style="mix-blend-mode:multiply">
<mask id="mask1_3_683" style="mask-type:luminance" maskUnits="userSpaceOnUse" x="63" y="159" width="5" height="11">
<path d="M67.6908 159.878H63.7105V169.86H67.6908V159.878Z" fill="white"/>
</mask>
<g mask="url(#mask1_3_683)">
<path d="M64.4624 169.542C64.0764 166.226 65.2145 162.816 67.5907 160.455C67.8969 160.15 67.4243 159.672 67.1115 159.977C64.6222 162.458 63.3775 166.06 63.7835 169.542C63.8368 169.966 64.509 169.973 64.4624 169.542Z" fill="#6865F9"/>
</g>
</g>
<g style="mix-blend-mode:multiply">
<mask id="mask2_3_683" style="mask-type:luminance" maskUnits="userSpaceOnUse" x="7" y="159" width="5" height="11">
<path d="M11.7078 159.878H7.72754V169.86H11.7078V159.878Z" fill="white"/>
</mask>
<g mask="url(#mask2_3_683)">
<path d="M8.47946 169.542C8.09342 166.226 9.23158 162.816 11.6077 160.455C11.9139 160.15 11.4413 159.672 11.1285 159.977C8.6392 162.458 7.39454 166.06 7.80056 169.542C7.8538 169.966 8.52605 169.973 8.47946 169.542Z" fill="#6865F9"/>
</g>
</g>
<g style="mix-blend-mode:multiply">
<mask id="mask3_3_683" style="mask-type:luminance" maskUnits="userSpaceOnUse" x="2" y="159" width="5" height="11">
<path d="M6.63594 159.878H2.6557V169.86H6.63594V159.878Z" fill="white"/>
</mask>
<g mask="url(#mask3_3_683)">
<path d="M3.40762 169.542C3.02158 166.226 4.15974 162.816 6.53591 160.455C6.84208 160.15 6.36951 159.672 6.05668 159.977C3.56736 162.458 2.32271 166.06 2.72872 169.542C2.78197 169.966 3.45421 169.973 3.40762 169.542Z" fill="#6865F9"/>
</g>
</g>
<g style="mix-blend-mode:multiply">
<mask id="mask4_3_683" style="mask-type:luminance" maskUnits="userSpaceOnUse" x="138" y="76" width="18" height="36">
<path d="M155.323 76.2314H138.856V111.326H155.323V76.2314Z" fill="white"/>
</mask>
<g mask="url(#mask4_3_683)">
<path d="M139.355 76.4768C138.743 79.9922 138.696 83.5806 139.215 87.1092C139.475 88.8802 139.881 90.6379 140.42 92.3426C140.8 93.5431 141.372 95.1682 142.79 95.4534C143.615 95.6192 144.447 95.2411 144.986 94.6176C145.618 93.9013 145.845 92.9528 146.051 92.0441C145.831 92.0109 145.605 91.9844 145.385 91.9512C145.073 94.3523 145.698 96.8595 146.51 99.1081C147.562 102.007 149.099 104.739 150.976 107.187C152.101 108.653 153.346 110.012 154.73 111.233C155.057 111.518 155.536 111.047 155.21 110.755C152.82 108.653 150.823 106.126 149.239 103.373C147.855 100.965 146.743 98.3453 146.231 95.6059C146.004 94.4054 145.905 93.1717 146.058 91.9579C146.104 91.5798 145.479 91.5002 145.392 91.865C145.226 92.6079 145.059 93.4171 144.587 94.0406C144.201 94.5513 143.542 94.9493 142.889 94.7834C142.31 94.6375 141.924 94.1467 141.658 93.6492C141.325 93.039 141.126 92.3691 140.926 91.7058C139.987 88.6083 139.515 85.3714 139.522 82.1346C139.522 80.2973 139.681 78.46 140.001 76.6492C140.074 76.2247 139.422 76.0456 139.349 76.4701" fill="#453EB6"/>
</g>
</g>
<g style="mix-blend-mode:multiply">
<mask id="mask5_3_683" style="mask-type:luminance" maskUnits="userSpaceOnUse" x="132" y="102" width="18" height="9">
<path d="M149.119 102.915H132.553V110.277H149.119V102.915Z" fill="white"/>
</mask>
<g mask="url(#mask5_3_683)">
<path d="M132.799 110.178C135.115 110.689 137.651 109.097 138.084 106.742C137.944 106.822 137.804 106.901 137.671 106.974C140.826 107.764 144.287 107.18 146.976 105.336C147.742 104.812 148.441 104.195 149.046 103.499C149.326 103.174 148.853 102.696 148.567 103.021C146.55 105.343 143.542 106.656 140.467 106.649C139.582 106.649 138.71 106.537 137.851 106.324C137.685 106.285 137.472 106.377 137.438 106.563C137.079 108.546 134.969 109.966 132.986 109.528C132.56 109.435 132.38 110.085 132.806 110.178" fill="#453EB6"/>
</g>
</g>
<g style="mix-blend-mode:multiply">
<mask id="mask6_3_683" style="mask-type:luminance" maskUnits="userSpaceOnUse" x="186" y="48" width="13" height="44">
<path d="M198.433 48.002H186.499V91.0027H198.433V48.002Z" fill="white"/>
</mask>
<g mask="url(#mask6_3_683)">
<path d="M186.579 48.5924C189.934 52.8971 192.283 57.8983 193.894 63.0852C195.644 68.7165 196.516 74.5667 197.049 80.4235C197.362 83.8394 197.561 87.2619 197.754 90.6845C197.781 91.1156 198.453 91.1156 198.433 90.6845C198.074 84.5027 197.714 78.3142 196.703 72.1987C195.784 66.6404 194.307 61.1484 191.897 56.0411C190.573 53.2354 188.969 50.569 187.058 48.1215C186.792 47.7766 186.32 48.2608 186.579 48.599" fill="#453EB6"/>
</g>
</g>
<g style="mix-blend-mode:multiply">
<mask id="mask7_3_683" style="mask-type:luminance" maskUnits="userSpaceOnUse" x="209" y="85" width="9" height="11">
<path d="M217.19 85.0063H209.542V95.5062H217.19V85.0063Z" fill="white"/>
</mask>
<g mask="url(#mask7_3_683)">
<path d="M209.562 85.4178C210.627 88.449 212.344 91.2348 214.567 93.5629C215.206 94.2262 215.885 94.8497 216.597 95.4334C216.93 95.7053 217.409 95.2344 217.076 94.9558C214.64 92.9726 212.65 90.4919 211.252 87.6929C210.853 86.8969 210.514 86.0811 210.214 85.2453C210.068 84.8407 209.415 85.0132 209.562 85.4244" fill="#453EB6"/>
</g>
</g>
<g style="mix-blend-mode:multiply">
<mask id="mask8_3_683" style="mask-type:luminance" maskUnits="userSpaceOnUse" x="215" y="74" width="14" height="20">
<path d="M228.924 74.6196H215.273V93.3508H228.924V74.6196Z" fill="white"/>
</mask>
<g mask="url(#mask8_3_683)">
<path d="M215.286 75.0373C216.038 77.916 217.223 80.6885 218.76 83.2355C220.311 85.8024 222.234 88.1571 224.444 90.1868C225.682 91.3276 227.02 92.369 228.424 93.2909C228.791 93.5297 229.13 92.946 228.764 92.7072C223.858 89.477 219.938 84.8208 217.549 79.4747C216.883 77.9823 216.344 76.4369 215.931 74.8516C215.825 74.4337 215.173 74.6128 215.279 75.0307" fill="#453EB6"/>
</g>
</g>
<g style="mix-blend-mode:multiply">
<mask id="mask9_3_683" style="mask-type:luminance" maskUnits="userSpaceOnUse" x="228" y="80" width="8" height="10">
<path d="M235.54 80.7217H228.664V89.0393H235.54V80.7217Z" fill="white"/>
</mask>
<g mask="url(#mask9_3_683)">
<path d="M228.704 81.2391C230.115 84.3167 232.318 86.9831 235.054 88.9796C235.407 89.2383 235.74 88.6546 235.393 88.396C232.751 86.4658 230.641 83.8657 229.283 80.9008C229.104 80.5095 228.518 80.8478 228.698 81.2391" fill="#453EB6"/>
</g>
</g>
<path d="M207.538 158.154C205.948 157.371 204.071 156.874 202.613 156.681C194.34 155.613 188.443 161.769 191.984 167.712C193.155 169.675 195.777 169.973 197.827 169.973C199.744 169.98 203.904 170.08 206.84 169.483C208.677 169.111 210.494 167.294 210.98 166.04C211.772 163.984 211.452 161.404 209.868 159.752C209.269 159.129 208.45 158.591 207.538 158.14" fill="#E1F5FF"/>
<path d="M147.502 158.253C145.978 157.397 143.142 158.392 140.407 155.898C137.924 153.636 136.047 153.524 134.563 154.419C133.511 155.056 131.914 156.489 131.075 157.271C129.811 157.205 128.466 157.311 127.028 157.603C122.955 158.432 117.297 162.372 119.8 167.274C120.838 169.31 123.441 169.774 125.491 169.913C127.408 170.046 129.271 169.973 131.222 169.973C131.481 169.973 131.747 169.973 132.02 169.96C132.067 169.966 132.107 169.973 132.153 169.973C134.656 169.973 142.736 169.224 147.336 163.261C149.505 160.448 148.647 158.883 147.509 158.253" fill="#E1F5FF"/>
<g style="mix-blend-mode:multiply">
<mask id="mask10_3_683" style="mask-type:luminance" maskUnits="userSpaceOnUse" x="124" y="160" width="5" height="10">
<path d="M128.626 160.694H124.898V169.96H128.626V160.694Z" fill="white"/>
</mask>
<g mask="url(#mask10_3_683)">
<path d="M125.644 169.635C125.291 166.584 126.336 163.446 128.526 161.264C128.832 160.959 128.353 160.481 128.047 160.786C125.744 163.081 124.592 166.411 124.965 169.635C125.018 170.059 125.69 170.066 125.644 169.635Z" fill="#6865F9"/>
</g>
</g>
<g style="mix-blend-mode:multiply">
<mask id="mask11_3_683" style="mask-type:luminance" maskUnits="userSpaceOnUse" x="121" y="160" width="4" height="9">
<path d="M124.506 160.688H121.145V168.919H124.506V160.688Z" fill="white"/>
</mask>
<g mask="url(#mask11_3_683)">
<path d="M121.876 168.6C121.564 165.921 122.482 163.175 124.399 161.264C124.705 160.959 124.226 160.482 123.92 160.787C121.89 162.817 120.871 165.755 121.198 168.6C121.244 169.025 121.923 169.032 121.876 168.6Z" fill="#6865F9"/>
</g>
</g>
<path d="M197.774 169.635C197.415 166.584 198.466 163.447 200.656 161.264C200.962 160.959 200.483 160.482 200.177 160.787C197.874 163.082 196.723 166.412 197.095 169.635C197.149 170.06 197.821 170.066 197.774 169.635Z" fill="#1E2241"/>
<path d="M194.007 168.6C193.694 165.921 194.613 163.175 196.53 161.264C196.836 160.959 196.356 160.482 196.05 160.787C194.02 162.817 193.002 165.755 193.328 168.6C193.375 169.025 194.054 169.032 194.007 168.6Z" fill="#1E2241"/>
<g style="mix-blend-mode:multiply">
<mask id="mask12_3_683" style="mask-type:luminance" maskUnits="userSpaceOnUse" x="31" y="23" width="19" height="18">
<path d="M49.0275 23.0688H31.4626V40.4071H49.0275V23.0688Z" fill="white"/>
</mask>
<g mask="url(#mask12_3_683)">
<path d="M32.1412 23.2942C31.3558 25.3637 31.2093 27.7847 31.8949 29.9006C32.1944 30.8225 32.7402 31.6782 33.6987 32.0098C34.5972 32.3215 35.6622 32.0695 36.4276 31.5389C37.406 30.8623 38.0117 29.8143 38.5774 28.8061C38.3844 28.6934 38.1914 28.5806 37.9917 28.4679C37.2263 29.874 36.8269 31.4991 36.6139 33.0711C36.4076 34.5834 36.5075 36.0625 37.0932 37.4952C37.406 38.2447 37.8453 38.961 38.4776 39.485C39.1898 40.0754 40.075 40.3871 41.0002 40.407C42.9038 40.4601 44.6543 39.3258 45.9123 37.9794C47.31 36.4803 48.3284 34.5767 49.0006 32.6532C49.1471 32.242 48.4948 32.0695 48.3483 32.4741C47.7959 34.0527 46.9905 35.5982 45.9456 36.9049C44.9072 38.2049 43.4562 39.4187 41.759 39.684C40.8937 39.8233 39.9818 39.684 39.2364 39.2065C38.6107 38.8018 38.1581 38.185 37.8386 37.5217C37.2396 36.2747 37.0799 34.8951 37.2263 33.5287C37.3993 31.9236 37.792 30.2256 38.5708 28.7995C38.7771 28.4214 38.1981 28.0832 37.9851 28.4612C37.5458 29.2439 37.0998 30.0531 36.4276 30.67C35.8219 31.2271 34.9433 31.6052 34.1113 31.4261C33.2261 31.2338 32.7602 30.4445 32.5139 29.6419C32.2277 28.7199 32.1212 27.7316 32.1412 26.7699C32.1611 25.6423 32.3874 24.5279 32.7868 23.4733C32.9399 23.0687 32.2876 22.8896 32.1345 23.2942" fill="#453EB6"/>
</g>
</g>
<g style="mix-blend-mode:multiply">
<mask id="mask13_3_683" style="mask-type:luminance" maskUnits="userSpaceOnUse" x="48" y="11" width="13" height="24">
<path d="M60.5423 11.2295H48.322V34.8557H60.5423V11.2295Z" fill="white"/>
</mask>
<g mask="url(#mask13_3_683)">
<path d="M48.4884 29.7083C48.322 30.889 48.149 32.1559 48.6814 33.2768C49.0808 34.1258 49.966 34.8488 50.9378 34.8488C52.0693 34.8488 52.7748 33.8671 53.3206 33.0115C53.9729 31.9967 54.5054 30.9221 54.9713 29.8145C55.5104 28.541 55.9497 27.2343 56.369 25.921C56.1494 25.8944 55.9297 25.8613 55.7034 25.8281C55.6768 26.498 55.6702 27.2276 56.0496 27.818C56.3757 28.3154 56.9215 28.6537 57.5338 28.5609C58.7985 28.3685 59.3376 26.6771 59.6837 25.649C60.6555 22.8035 60.6754 19.7325 60.336 16.7743C60.1296 14.99 59.7968 13.2257 59.464 11.4614C59.3842 11.0369 58.7319 11.2159 58.8118 11.6404C59.3376 14.413 59.8634 17.2054 59.8634 20.031C59.8634 21.3244 59.7502 22.6178 59.4707 23.8847C59.3309 24.5148 59.1512 25.1449 58.9316 25.7485C58.7319 26.2858 58.5189 26.8562 58.1795 27.3271C57.86 27.7715 57.3275 28.1231 56.835 27.7052C56.3025 27.2475 56.3491 26.4582 56.3757 25.8281C56.389 25.4368 55.8232 25.3837 55.7101 25.7419C55.0711 27.7583 54.3723 29.7747 53.3472 31.6385C53.0877 32.1094 52.8148 32.5671 52.5086 33.0115C52.2623 33.3763 51.9828 33.7477 51.6034 33.9799C50.838 34.4442 49.9527 33.9865 49.4802 33.3232C48.7813 32.3349 48.9743 31.0084 49.134 29.8874C49.1607 29.7083 49.0875 29.5292 48.9011 29.4762C48.7413 29.4298 48.5084 29.5292 48.4884 29.7083Z" fill="#453EB6"/>
</g>
</g>
<g style="mix-blend-mode:multiply">
<mask id="mask14_3_683" style="mask-type:luminance" maskUnits="userSpaceOnUse" x="33" y="69" width="24" height="19">
<path d="M56.5155 69.9634H33.0866V87.6267H56.5155V69.9634Z" fill="white"/>
</mask>
<g mask="url(#mask14_3_683)">
<path d="M33.12 84.1909C33.7057 85.4909 34.5643 86.8507 35.9421 87.4144C37.3531 87.9915 38.7642 87.3216 39.7493 86.2869C40.8009 85.1792 41.5464 83.7598 42.1055 82.3536C42.6978 80.8612 43.0639 79.2892 43.2836 77.704C43.5365 75.8799 43.603 74.0426 43.603 72.2053H42.9308C43.024 74.5931 42.811 77.0672 43.8094 79.3091C44.2087 80.1979 45.0474 81.3388 46.1656 81.1995C47.3304 81.0535 47.7031 79.6341 48.0226 78.7055C48.5151 77.2529 48.8346 75.7539 48.9943 74.2283H48.3154C48.4552 75.7274 49.0143 78.029 50.9911 77.8432C52.0361 77.7438 52.8614 76.981 53.5337 76.2381C54.2326 75.4687 54.8382 74.6064 55.3241 73.6844C55.8699 72.6497 56.2693 71.542 56.5089 70.4012C56.5954 69.9767 55.9498 69.7976 55.8566 70.2221C55.4839 72.0063 54.7118 73.6977 53.5869 75.1304C52.7816 76.1519 50.8513 78.2478 49.6533 76.5366C49.194 75.8799 49.0609 75.011 48.9877 74.2283C48.9477 73.7972 48.3554 73.7972 48.3088 74.2283C48.1823 75.4156 47.9494 76.583 47.6166 77.7305C47.4502 78.3009 47.2571 78.8581 47.0442 79.4086C46.8911 79.7933 46.698 80.2974 46.292 80.4765C45.3935 80.8811 44.628 79.5214 44.3552 78.8846C43.9558 77.9494 43.7827 76.9345 43.7095 75.9264C43.623 74.686 43.6563 73.4457 43.6097 72.2053C43.5964 71.7742 42.9308 71.7676 42.9374 72.2053C42.9441 75.1835 42.771 78.2147 41.8592 81.0734C41.4132 82.4663 40.7876 83.8128 39.9356 85.0067C39.2168 86.0216 38.1052 87.1425 36.7408 86.9435C35.2099 86.718 34.2847 85.1261 33.7123 83.8526C33.5326 83.4546 32.9536 83.7995 33.1266 84.1909" fill="#453EB6"/>
</g>
</g>
<g style="mix-blend-mode:multiply">
<mask id="mask15_3_683" style="mask-type:luminance" maskUnits="userSpaceOnUse" x="27" y="78" width="7" height="8">
<path d="M33.7455 78.5991H27.9283V85.159H33.7455V78.5991Z" fill="white"/>
</mask>
<g mask="url(#mask15_3_683)">
<path d="M27.9349 78.9244C27.9083 79.8464 27.9882 80.775 28.1745 81.6771C28.3476 82.5128 28.6072 83.3751 29.133 84.0649C29.6122 84.6884 30.3044 85.1261 31.1031 85.1593C31.9884 85.1991 32.8204 84.768 33.5725 84.3567C33.9519 84.1445 33.6124 83.5674 33.233 83.773C32.6007 84.1246 31.9019 84.5093 31.1564 84.4894C30.4509 84.4695 29.8718 84.0052 29.5057 83.4281C29.113 82.798 28.9333 82.0618 28.7935 81.3388C28.6405 80.5428 28.5805 79.7336 28.6072 78.9244C28.6205 78.4933 27.9482 78.4933 27.9283 78.9244" fill="#6865F9"/>
</g>
</g>
<g style="mix-blend-mode:multiply">
<mask id="mask16_3_683" style="mask-type:luminance" maskUnits="userSpaceOnUse" x="145" y="128" width="14" height="11">
<path d="M158.924 128.796H145.419V138.009H158.924V128.796Z" fill="white"/>
</mask>
<g mask="url(#mask16_3_683)">
<path d="M145.512 134.136C146.257 134.925 147.069 135.648 147.928 136.312C148.753 136.948 149.638 137.598 150.657 137.884C151.549 138.136 152.514 138.01 153.199 137.346C153.798 136.763 154.091 135.9 154.104 135.084C154.124 133.864 153.565 132.717 153.04 131.642C152.847 131.755 152.653 131.868 152.454 131.98C153.219 133.327 154.264 134.939 156.015 134.939C157.552 134.939 158.617 133.499 158.843 132.106C159.01 131.085 158.87 130.057 158.717 129.042C158.657 128.617 158.005 128.797 158.065 129.221C158.298 130.82 158.557 133.048 156.9 134.017C156.161 134.448 155.309 134.255 154.65 133.765C153.925 133.227 153.472 132.411 153.033 131.642C152.82 131.264 152.261 131.596 152.447 131.98C153.126 133.373 154.025 135.303 152.86 136.703C151.609 138.215 149.512 136.683 148.374 135.821C147.515 135.164 146.716 134.441 145.971 133.658C145.671 133.34 145.192 133.818 145.492 134.136" fill="#453EB6"/>
</g>
</g>
<g style="mix-blend-mode:multiply">
<mask id="mask17_3_683" style="mask-type:luminance" maskUnits="userSpaceOnUse" x="189" y="122" width="16" height="9">
<path d="M204.004 122.044H189.541V130.322H204.004V122.044Z" fill="white"/>
</mask>
<g mask="url(#mask17_3_683)">
<path d="M189.64 125.938C191.537 127.861 193.953 129.36 196.576 130.09C197.747 130.415 199.205 130.521 200.103 129.539C200.849 128.724 200.962 127.477 200.643 126.455C200.197 125.042 199.005 124.028 197.9 123.112C197.568 122.84 197.122 123.265 197.421 123.59C198.353 124.578 199.751 125.056 201.095 124.823C202.353 124.605 203.465 123.716 203.977 122.555C204.15 122.164 203.565 121.819 203.391 122.217C202.959 123.212 202.074 123.948 200.995 124.16C199.864 124.386 198.672 123.935 197.9 123.112C197.741 123.271 197.581 123.431 197.421 123.59C198.326 124.346 199.278 125.129 199.811 126.196C200.223 127.026 200.303 128.16 199.731 128.936C199.032 129.884 197.701 129.705 196.709 129.427C195.551 129.095 194.433 128.604 193.388 128.001C192.183 127.304 191.091 126.449 190.113 125.46C189.807 125.148 189.328 125.626 189.634 125.938" fill="#453EB6"/>
</g>
</g>
<g style="mix-blend-mode:multiply">
<mask id="mask18_3_683" style="mask-type:luminance" maskUnits="userSpaceOnUse" x="55" y="121" width="17" height="10">
<path d="M71.8441 121.726H55.3041V130.488H71.8441V121.726Z" fill="white"/>
</mask>
<g mask="url(#mask18_3_683)">
<path d="M55.3638 125.274C56.0826 126.336 56.8614 127.351 57.7 128.319C58.4255 129.155 59.2708 130.209 60.409 130.455C61.434 130.674 62.2793 130.004 62.459 129.009C62.652 127.928 62.3059 126.76 61.9931 125.732C61.5804 124.386 61.0014 123.092 60.2759 121.885C60.0895 121.573 59.5038 121.779 59.6569 122.144C60.5488 124.253 61.8999 126.15 63.6305 127.656C64.4358 128.352 65.4742 129.241 66.619 129.095C67.6307 128.969 68.2031 128.014 68.2164 127.059C68.2364 125.798 67.3045 124.797 66.4792 123.955C66.2196 123.689 65.7271 124.041 65.9467 124.359C66.7055 125.44 67.6107 126.72 68.9885 127.032C70.1 127.284 71.4246 126.873 71.8173 125.712C71.957 125.301 71.3047 125.129 71.165 125.533C70.8655 126.402 69.7339 126.568 68.9619 126.322C67.8703 125.978 67.1448 124.903 66.5258 124.014C66.3461 124.154 66.173 124.286 65.9933 124.425C66.6256 125.075 67.3911 125.825 67.5175 126.767C67.6174 127.49 67.2713 128.399 66.4326 128.438C65.9334 128.465 65.4542 128.193 65.0482 127.921C64.6355 127.649 64.2561 127.324 63.89 126.992C63.1645 126.336 62.499 125.606 61.9199 124.817C61.2743 123.928 60.7218 122.966 60.2958 121.958C60.0895 122.044 59.8832 122.13 59.6768 122.217C60.2559 123.172 60.7351 124.18 61.1079 125.235C61.434 126.17 61.7668 127.198 61.8134 128.193C61.8467 128.929 61.6137 129.944 60.6486 129.811C59.6436 129.672 58.8781 128.657 58.2525 127.947C57.4138 126.992 56.6351 125.978 55.9229 124.923C55.6833 124.565 55.0976 124.903 55.3372 125.261" fill="#453EB6"/>
</g>
</g>
<g style="mix-blend-mode:multiply">
<mask id="mask19_3_683" style="mask-type:luminance" maskUnits="userSpaceOnUse" x="21" y="114" width="12" height="13">
<path d="M32.7139 114.735H21.2457V126.628H32.7139V114.735Z" fill="white"/>
</mask>
<g mask="url(#mask19_3_683)">
<path d="M21.5851 114.973C21.3322 116.141 21.2124 117.341 21.2523 118.542C21.2856 119.65 21.4054 120.824 21.7715 121.872C22.0843 122.767 22.6967 123.556 23.6684 123.749C24.587 123.928 25.5388 123.623 26.2509 123.039C27.1561 122.309 27.6553 121.208 28.1146 120.174C27.9083 120.087 27.7019 120.001 27.4956 119.915C27.063 121.54 26.6503 123.324 27.4623 124.903C28.1079 126.15 29.4791 126.952 30.8768 126.481C31.6422 126.223 32.2879 125.679 32.6606 124.962C32.8603 124.578 32.2812 124.239 32.0749 124.624C31.7288 125.287 31.0965 125.798 30.3443 125.924C29.6188 126.05 28.9399 125.732 28.4607 125.195C27.1961 123.775 27.7019 121.739 28.1346 120.094C28.2277 119.736 27.6753 119.477 27.5156 119.835C26.8699 121.288 25.9514 123.225 24.0545 123.125C23.1692 123.079 22.6301 122.396 22.3705 121.606C22.0644 120.678 21.9512 119.669 21.9046 118.694C21.8514 117.5 21.9512 116.313 22.2041 115.146C22.2973 114.721 21.645 114.542 21.5519 114.967" fill="#453EB6"/>
</g>
</g>
<g style="mix-blend-mode:multiply">
<mask id="mask20_3_683" style="mask-type:luminance" maskUnits="userSpaceOnUse" x="78" y="81" width="9" height="35">
<path d="M86.2874 81.8027H78.673V115.332H86.2874V81.8027Z" fill="white"/>
</mask>
<g mask="url(#mask20_3_683)">
<path d="M78.7462 113.84C79.505 114.801 80.7031 115.551 81.9744 115.266C83.1125 115.014 83.645 113.946 83.7581 112.878C83.8846 111.671 83.5851 110.404 83.2922 109.236C82.9594 107.883 82.4935 106.57 81.9211 105.296C81.2755 103.87 80.4834 102.517 79.5649 101.257C79.3852 101.39 79.2121 101.529 79.0324 101.662C79.7646 102.584 80.4435 103.545 81.1756 104.467C81.5617 104.952 81.9677 105.436 82.4003 105.88C82.7398 106.225 83.1059 106.583 83.5318 106.815C83.858 106.994 84.2507 107.101 84.5968 106.908C85.2424 106.543 85.3622 105.608 85.4088 104.952C85.5353 103.061 85.3822 101.144 85.0228 99.2871C84.6168 97.1778 83.9046 95.1349 82.9395 93.2246C82.7398 92.8333 82.1674 93.1782 82.3537 93.5629C82.8063 94.5048 83.4387 95.4466 84.1908 96.1696C84.4703 96.4416 84.8298 96.7533 85.2424 96.7666C85.7882 96.7865 86.1277 96.1762 86.2275 95.7186C86.3739 95.0487 86.2142 94.3588 86.0744 93.7022C85.9014 92.9195 85.7017 92.1501 85.482 91.3807C85.0228 89.8153 84.457 88.2898 83.7981 86.7974C83.0526 85.1193 82.1807 83.5009 81.189 81.9488C80.956 81.584 80.3703 81.9222 80.6032 82.287C82.1873 84.7677 83.4719 87.4341 84.4104 90.2199C84.8697 91.5929 85.269 92.9991 85.5419 94.4185C85.6351 94.9293 85.7283 95.639 85.3289 96.0436C85.2424 96.1298 85.2824 96.0701 85.3023 96.0834C85.269 96.0635 85.2491 96.09 85.1692 96.0569C85.0627 96.0104 84.9163 95.8977 84.8031 95.8048C84.0177 95.115 83.3921 94.1466 82.9461 93.2114C82.7531 93.3241 82.5601 93.4369 82.3604 93.5496C83.9578 96.7201 84.8031 100.255 84.7765 103.804C84.7765 104.229 84.7632 104.653 84.7299 105.071C84.7033 105.436 84.6434 105.827 84.4304 106.132C84.3572 106.238 84.3039 106.298 84.2507 106.325C84.3039 106.298 84.264 106.325 84.2307 106.325C84.1841 106.338 84.2773 106.331 84.1841 106.325C84.1109 106.325 84.1642 106.331 84.0643 106.298C83.9711 106.265 83.9711 106.265 83.8779 106.218C83.5052 106.019 83.199 105.714 82.9062 105.409C82.5002 104.998 82.1274 104.554 81.768 104.109C80.9893 103.147 80.2838 102.133 79.5183 101.171C79.2854 100.872 78.7595 101.27 78.9858 101.575C80.4635 103.605 81.6016 105.867 82.3338 108.268C82.6732 109.389 82.9794 110.563 83.0859 111.737C83.1658 112.599 83.1458 113.733 82.3937 114.324C81.9211 114.689 81.2955 114.689 80.7497 114.516C80.1174 114.31 79.6315 113.859 79.2255 113.342C78.9592 113.004 78.4866 113.481 78.7462 113.82" fill="#453EB6"/>
</g>
</g>
<g style="mix-blend-mode:multiply">
<mask id="mask21_3_683" style="mask-type:luminance" maskUnits="userSpaceOnUse" x="78" y="48" width="13" height="23">
<path d="M90.9266 48.2139H78.094V70.162H90.9266V48.2139Z" fill="white"/>
</mask>
<g mask="url(#mask21_3_683)">
<path d="M78.2473 48.8504C79.9845 50.0444 81.5752 51.4306 82.9996 52.9827C84.3973 54.5016 85.6753 56.193 86.6537 58.017C86.9266 58.5278 87.2128 59.1579 87.073 59.7482C86.9665 60.1926 86.6271 60.6237 86.1345 60.6171C85.7818 60.6171 85.6952 61.0615 85.9615 61.2472C87.2993 62.1493 88.717 63.0978 89.569 64.5106C90.3211 65.7509 90.6273 67.4556 89.589 68.6362C89.0831 69.2133 88.3842 69.5582 87.6121 69.4786C87.1795 69.4388 87.1795 70.1087 87.6121 70.1485C89.2162 70.3077 90.6406 68.9413 90.8802 67.4158C91.1731 65.5652 90.1614 63.8274 88.8568 62.6003C88.0781 61.8707 87.1862 61.2671 86.3076 60.6702C86.2477 60.8824 86.1944 61.088 86.1345 61.3003C87.2261 61.3069 87.8784 60.186 87.7652 59.1977C87.6388 58.0369 86.8534 56.969 86.2211 56.0206C84.9298 54.0771 83.4056 52.2929 81.6817 50.7209C80.71 49.8387 79.6716 49.0229 78.5934 48.2734C78.2339 48.028 77.8945 48.6117 78.2539 48.8571" fill="#453EB6"/>
</g>
</g>
<g style="mix-blend-mode:multiply">
<mask id="mask22_3_683" style="mask-type:luminance" maskUnits="userSpaceOnUse" x="143" y="48" width="29" height="10">
<path d="M171.443 48.0151H143.894V57.1486H171.443V48.0151Z" fill="white"/>
</mask>
<g mask="url(#mask22_3_683)">
<path d="M143.948 51.2649C144.547 52.1935 145.345 53.0028 146.177 53.7191C147.116 54.5349 148.148 55.2712 149.259 55.835C150.158 56.286 151.209 56.7238 152.234 56.6243C153.206 56.5314 154.018 55.8681 154.158 54.8732C154.271 54.0905 153.972 53.3079 153.592 52.6379C153.179 51.9083 152.627 51.2517 152.035 50.6614C151.722 50.3496 151.283 50.8073 151.555 51.1389C153.672 53.6992 156.574 55.5962 159.769 56.5381C161.266 56.9825 162.964 57.3406 164.521 57.0024C165.233 56.8498 165.919 56.4983 166.378 55.9212C166.871 55.311 167.07 54.515 167.03 53.739C166.924 51.7491 165.433 50.3164 164.009 49.1026C163.683 48.8241 163.21 49.2817 163.529 49.5802C164.901 50.8272 166.758 52.0675 168.708 51.6895C170.325 51.3777 171.197 49.9516 171.443 48.4261C171.51 48.0016 170.864 47.8225 170.791 48.247C170.578 49.5537 169.932 50.7675 168.528 51.0394C166.844 51.3644 165.173 50.1639 164.009 49.1026C163.849 49.2618 163.689 49.421 163.529 49.5802C164.688 50.5685 165.952 51.6828 166.285 53.2415C166.431 53.9247 166.378 54.6742 166.012 55.2778C165.653 55.8615 165.04 56.1932 164.381 56.3457C162.984 56.6641 161.426 56.3125 160.075 55.9278C158.597 55.5033 157.186 54.8666 155.888 54.0507C154.431 53.1354 153.133 51.9879 152.035 50.668C151.875 50.8272 151.715 50.9864 151.555 51.1456C152.035 51.6165 152.474 52.1338 152.833 52.6976C153.173 53.2283 153.492 53.8451 153.512 54.4885C153.532 55.2911 152.96 55.8947 152.188 55.961C151.296 56.034 150.377 55.6559 149.599 55.2646C148.607 54.7605 147.688 54.1237 146.836 53.4074C145.978 52.6844 145.139 51.8752 144.533 50.9333C144.3 50.5685 143.715 50.9068 143.948 51.2716" fill="#453EB6"/>
</g>
</g>
<g style="mix-blend-mode:multiply">
<mask id="mask23_3_683" style="mask-type:luminance" maskUnits="userSpaceOnUse" x="78" y="113" width="5" height="8">
<path d="M82.6466 113.282H78.6464V120.34H82.6466V113.282Z" fill="white"/>
</mask>
<g mask="url(#mask23_3_683)">
<path d="M78.6928 113.78C79.9441 115.803 81.0423 117.918 81.9608 120.114C82.1272 120.505 82.7795 120.333 82.6131 119.935C81.6746 117.686 80.5631 115.517 79.2785 113.441C79.0522 113.076 78.4665 113.408 78.6928 113.78Z" fill="#6865F9"/>
</g>
</g>
<g style="mix-blend-mode:multiply">
<mask id="mask24_3_683" style="mask-type:luminance" maskUnits="userSpaceOnUse" x="134" y="66" width="5" height="18">
<path d="M138.277 66.7461H134.656V83.9119H138.277V66.7461Z" fill="white"/>
</mask>
<g mask="url(#mask24_3_683)">
<path d="M137.651 66.9118C135.442 70.8252 134.423 75.3753 134.703 79.8525C134.783 81.1393 134.969 82.4194 135.255 83.673C135.355 84.0975 136.001 83.9185 135.907 83.494C134.936 79.2357 135.215 74.7253 136.693 70.613C137.112 69.4522 137.631 68.3313 138.237 67.2501C138.45 66.872 137.864 66.5338 137.651 66.9118Z" fill="#453EB6"/>
</g>
</g>
<g style="mix-blend-mode:multiply">
<mask id="mask25_3_683" style="mask-type:luminance" maskUnits="userSpaceOnUse" x="79" y="75" width="11" height="14">
<path d="M89.4157 75.6606H79.4717V88.8733H89.4157V75.6606Z" fill="white"/>
</mask>
<g mask="url(#mask25_3_683)">
<path d="M79.5851 76.2244C82.6401 78.924 85.236 82.1077 87.2527 85.6497C87.8185 86.638 88.331 87.6594 88.8035 88.7008C88.9832 89.0921 89.5623 88.7538 89.3893 88.3625C87.692 84.6216 85.3757 81.1725 82.5603 78.1744C81.7682 77.3321 80.9296 76.5229 80.0643 75.7535C79.7382 75.4682 79.2589 75.9392 79.5851 76.231" fill="#453EB6"/>
</g>
</g>
<path d="M95.6523 14.6054C94.9202 12.8809 92.4907 12.6752 90.9798 13.2523C90.3009 13.511 89.7884 14.0549 89.7086 14.7978C89.6154 15.5804 89.9748 16.3565 90.3542 17.0264C90.7602 17.7427 91.2727 18.4127 91.8518 19.0096C92.3909 19.5668 93.0432 20.177 93.8086 20.376C94.5275 20.5617 95.3195 20.3229 95.659 19.6397C96.0117 18.93 95.9851 18.0081 95.9984 17.232C96.0117 16.3565 95.9984 15.4279 95.6523 14.6054Z" fill="#453EB6"/>
<path d="M90.9932 28.9985C90.9266 29.0449 90.8534 29.0847 90.7935 29.1179C89.835 28.8194 88.81 28.8658 87.7118 28.9388C86.6069 29.0184 85.5353 29.0516 84.5635 29.4296C84.3439 29.3368 84.1309 29.2307 83.9179 29.1113C82.2406 28.1495 80.9427 26.6505 79.9576 24.9724C78.6997 22.8565 77.8078 20.5416 76.9958 18.2135C76.9758 18.1472 76.9492 18.0808 76.9292 18.0211C76.9292 18.0211 76.3568 16.2502 76.2237 15.7726C76.3102 15.4078 78.0807 15.2486 78.3669 15.3879C79.3253 15.8058 79.8312 17.066 80.2771 17.9084C80.8695 19.0758 81.382 20.2697 81.9211 21.4636C82.4336 22.5978 83.1259 23.6193 84.0577 24.455C85.0161 25.3372 86.1277 26.0867 87.1793 26.8561C87.6652 27.2209 88.1644 27.5061 88.7368 27.7117C89.1095 27.8378 89.4756 27.9505 89.835 28.1163C89.9415 28.0566 90.3209 27.9041 90.4274 28.0301C90.687 28.322 90.88 28.647 90.9998 28.9919" fill="#E1F5FF"/>
<g style="mix-blend-mode:multiply">
<mask id="mask26_3_683" style="mask-type:luminance" maskUnits="userSpaceOnUse" x="70" y="28" width="22" height="4">
<path d="M91.2993 28.375H70.7858V31.6981H91.2993V28.375Z" fill="white"/>
</mask>
<g mask="url(#mask26_3_683)">
<path d="M70.9523 30.4443C75.7046 33.3163 81.2224 30.4973 86.0412 29.4361C87.6254 29.0845 89.2627 28.9054 90.8801 29.1508C91.3061 29.2172 91.4858 28.5672 91.0598 28.5008C85.5554 27.6651 80.6366 31.2601 75.1721 30.9882C73.8076 30.9218 72.4698 30.5769 71.2984 29.8672C70.9256 29.6417 70.5862 30.2254 70.9589 30.4509" fill="#6865F9"/>
</g>
</g>
</g>
<defs>
<clipPath id="clip0_3_683">
<rect width="252" height="170" fill="white"/>
</clipPath>
</defs>
</svg>
