<svg width="136" height="138" viewBox="0 0 136 138" fill="none" xmlns="http://www.w3.org/2000/svg">
<path d="M98.6921 57.1201C98.6921 40.519 109.665 34.3306 115.9 34.3306C127.07 34.3306 132.58 43.076 132.58 51.2613C132.58 59.4465 127.861 65.134 127.861 65.134" stroke="#61D7DA" stroke-width="5" stroke-miterlimit="10" stroke-linecap="round"/>
<path d="M47.9395 80.4961H98.6919C98.6919 97.0972 109.665 102.923 115.899 102.923C127.07 102.923 132.58 94.1777 132.58 85.9925C132.58 77.8072 127.861 72.1197 127.861 72.1197V66.485" stroke="#61D7DA" stroke-width="5" stroke-miterlimit="10" stroke-linecap="round"/>
<path d="M36.8877 57.6341C36.8877 41.033 30.0139 33.8495 19.6802 33.8495C9.34652 33.8495 3 42.7333 3 50.9251C3 59.1169 7.7187 64.7978 7.7187 64.7978V71.7836C7.7187 71.7836 3 77.8072 3 85.6563C3 93.5055 9.34652 102.732 19.6802 102.732C30.0139 102.732 36.8877 96.7611 36.8877 80.16" stroke="#61D7DA" stroke-width="5" stroke-miterlimit="10" stroke-linecap="round"/>
<path d="M81.8734 57.7988L36.8876 57.9702" stroke="#61D7DA" stroke-width="5" stroke-miterlimit="10" stroke-linecap="round"/>
<path d="M98.6987 125.403L87.5412 108.584" stroke="#61D7DA" stroke-width="5" stroke-miterlimit="10" stroke-linecap="round"/>
<path d="M47.9132 108.644L36.8217 125.357" stroke="#61D7DA" stroke-width="5" stroke-miterlimit="10" stroke-linecap="round"/>
<path d="M67.5987 115.023V135.15" stroke="#61D7DA" stroke-width="5" stroke-miterlimit="10" stroke-linecap="round"/>
<path d="M98.6987 12.7472L87.5412 29.5658" stroke="#61D7DA" stroke-width="5" stroke-miterlimit="10" stroke-linecap="round"/>
<path d="M47.9132 29.5066L36.8217 12.7934" stroke="#61D7DA" stroke-width="5" stroke-miterlimit="10" stroke-linecap="round"/>
<path d="M67.5987 23.1204V3" stroke="#61D7DA" stroke-width="5" stroke-miterlimit="10" stroke-linecap="round"/>
</svg>
