<svg width="135" height="135" viewBox="0 0 135 135" fill="none" xmlns="http://www.w3.org/2000/svg">
<path d="M91.1871 111.311C91.1871 123.289 81.4783 133 69.5 133C57.5217 133 47.8129 123.289 47.8129 111.311V89.1871H25.689C13.7107 89.1871 4 79.4764 4 67.5C4 55.5236 13.7107 45.8129 25.689 45.8129H47.8129V23.689C47.8129 11.7106 57.5236 2 69.5 2C75.4892 2 80.9119 4.42621 84.8344 8.35262C88.7589 12.2771 91.1871 17.6998 91.1871 23.689" stroke="#61D7DA" stroke-width="3" stroke-miterlimit="10" stroke-linecap="round"/>
<path d="M62.2194 77.6495C68.2476 77.6495 73.1344 72.7627 73.1344 66.7345C73.1344 60.7062 68.2476 55.8194 62.2194 55.8194C56.1911 55.8194 51.3043 60.7062 51.3043 66.7345C51.3043 72.7627 56.1911 77.6495 62.2194 77.6495Z" stroke="#61D7DA" stroke-width="3" stroke-miterlimit="10" stroke-linecap="round"/>
<path d="M120.157 77.6495C126.185 77.6495 131.072 72.7627 131.072 66.7345C131.072 60.7062 126.185 55.8194 120.157 55.8194C114.128 55.8194 109.242 60.7062 109.242 66.7345C109.242 72.7627 114.128 77.6495 120.157 77.6495Z" stroke="#61D7DA" stroke-width="3" stroke-miterlimit="10" stroke-linecap="round"/>
<path d="M77.3393 55.8194C83.3675 55.8194 88.2544 50.9326 88.2544 44.9044C88.2544 38.8762 83.3675 33.9893 77.3393 33.9893C71.3111 33.9893 66.4243 38.8762 66.4243 44.9044C66.4243 50.9326 71.3111 55.8194 77.3393 55.8194Z" stroke="#61D7DA" stroke-width="3" stroke-miterlimit="10" stroke-linecap="round"/>
<path d="M103.848 55.8194C109.876 55.8194 114.763 50.9326 114.763 44.9044C114.763 38.8762 109.876 33.9893 103.848 33.9893C97.8196 33.9893 92.9328 38.8762 92.9328 44.9044C92.9328 50.9326 97.8196 55.8194 103.848 55.8194Z" stroke="#61D7DA" stroke-width="3" stroke-miterlimit="10" stroke-linecap="round"/>
<path d="M77.7956 75.7472C74.9692 80.4353 71.3618 79.4784 69.4053 83.9287C67.9477 87.2461 68.3904 91.3349 70.2347 94.4938C71.9843 97.4942 75.2379 100.065 78.9342 100.398C83.9568 100.848 85.0336 96.7383 90.5337 96.6687C95.823 96.603 96.6775 100.381 101.719 99.9823C105.547 99.6807 109.771 97.1327 111.455 93.0419C113.027 89.2238 111.737 85.6434 111.56 85.1698C109.795 80.4933 106.104 81.1815 103.274 76.5727C100.123 71.4438 103.235 68.2172 99.8557 63.7302C99.6566 63.4673 96.3218 59.1852 90.8449 59.0692C86.6827 58.9822 82.9998 61.3369 81.0047 64.1439C78.0121 68.3584 80.6394 71.0262 77.7936 75.7433L77.7956 75.7472Z" stroke="#61D7DA" stroke-width="3" stroke-miterlimit="10" stroke-linecap="round"/>
</svg>
