<svg width="13" height="13" viewBox="0 0 13 13" fill="none" xmlns="http://www.w3.org/2000/svg">
<path d="M9.8678 3.94232C10.2986 3.94232 10.6478 3.59311 10.6478 3.16232C10.6478 2.73154 10.2986 2.38232 9.8678 2.38232C9.43702 2.38232 9.0878 2.73154 9.0878 3.16232C9.0878 3.59311 9.43702 3.94232 9.8678 3.94232Z" fill="white"/>
<path fill-rule="evenodd" clip-rule="evenodd" d="M3.25 6.5C3.25 8.29239 4.70763 9.75 6.5 9.75C8.29238 9.75 9.75 8.29239 9.75 6.5C9.75 4.70761 8.29238 3.25 6.5 3.25C4.70763 3.25 3.25 4.70761 3.25 6.5ZM4.875 6.5C4.875 5.60382 5.60381 4.875 6.5 4.875C7.39619 4.875 8.125 5.60382 8.125 6.5C8.125 7.39618 7.39619 8.125 6.5 8.125C5.60381 8.125 4.875 7.39618 4.875 6.5Z" fill="white"/>
<path fill-rule="evenodd" clip-rule="evenodd" d="M3.25 13H9.75C11.4205 13 13 11.4205 13 9.75V3.25C13 1.5795 11.4205 0 9.75 0H3.25C1.5795 0 0 1.5795 0 3.25V9.75C0 11.4205 1.5795 13 3.25 13ZM1.625 3.25C1.625 2.49033 2.49031 1.625 3.25 1.625H9.75C10.5097 1.625 11.375 2.49033 11.375 3.25V9.75C11.375 10.5097 10.5097 11.375 9.75 11.375H3.25C2.47569 11.375 1.625 10.5243 1.625 9.75V3.25Z" fill="white"/>
</svg>
