<svg width="161" height="138" viewBox="0 0 161 138" fill="none" xmlns="http://www.w3.org/2000/svg">
<path d="M33.9054 26.1019H126.917" stroke="#61D7DA" stroke-width="5" stroke-miterlimit="10" stroke-linecap="round"/>
<path d="M33.2747 27.2023L14.4604 77.4455" stroke="#61D7DA" stroke-width="5" stroke-miterlimit="10" stroke-linecap="round"/>
<path d="M127.722 27.2023L147.134 77.0966" stroke="#61D7DA" stroke-width="5" stroke-miterlimit="10" stroke-linecap="round"/>
<path d="M14.4604 80.3374L29.6648 129.057C30.7988 132.681 34.1537 135.15 37.9515 135.15L129.078 135.069L146.745 89.0803" stroke="#61D7DA" stroke-width="5" stroke-miterlimit="10" stroke-linecap="round"/>
<path d="M54.7394 14.4738C54.7394 6.12678 54.7462 3 54.7462 3H94.106C103.366 3 106.405 6.37504 106.405 14.4738V26.0415" stroke="#61D7DA" stroke-width="5" stroke-miterlimit="10" stroke-linecap="round"/>
<path d="M95.2198 77.7676H158.077" stroke="#61D7DA" stroke-width="5" stroke-miterlimit="10" stroke-linecap="round"/>
<path d="M63.2407 77.7676H74.7279" stroke="#61D7DA" stroke-width="5" stroke-miterlimit="10" stroke-linecap="round"/>
<path d="M3 77.7676H49.177" stroke="#61D7DA" stroke-width="5" stroke-miterlimit="10" stroke-linecap="round"/>
<path d="M117.845 42.4805V59.8455" stroke="#61D7DA" stroke-width="5" stroke-miterlimit="10" stroke-linecap="round"/>
<path d="M100.594 42.4805V59.8455" stroke="#61D7DA" stroke-width="5" stroke-miterlimit="10" stroke-linecap="round"/>
<path d="M80.9145 42.4805V59.8455" stroke="#61D7DA" stroke-width="5" stroke-miterlimit="10" stroke-linecap="round"/>
<path d="M60.6507 42.4805V59.8455" stroke="#61D7DA" stroke-width="5" stroke-miterlimit="10" stroke-linecap="round"/>
<path d="M43.3998 42.4805V59.8455" stroke="#61D7DA" stroke-width="5" stroke-miterlimit="10" stroke-linecap="round"/>
<path d="M117.845 100.829V118.201" stroke="#61D7DA" stroke-width="5" stroke-miterlimit="10" stroke-linecap="round"/>
<path d="M100.594 100.829V118.201" stroke="#61D7DA" stroke-width="5" stroke-miterlimit="10" stroke-linecap="round"/>
<path d="M80.9145 100.829V118.201" stroke="#61D7DA" stroke-width="5" stroke-miterlimit="10" stroke-linecap="round"/>
<path d="M60.6507 100.829V118.201" stroke="#61D7DA" stroke-width="5" stroke-miterlimit="10" stroke-linecap="round"/>
<path d="M43.3998 100.829V118.201" stroke="#61D7DA" stroke-width="5" stroke-miterlimit="10" stroke-linecap="round"/>
</svg>
