<svg width="133" height="132" viewBox="0 0 133 132" fill="none" xmlns="http://www.w3.org/2000/svg">
<path d="M107.825 100.724L105.116 103.693L95.6204 114.099C95.6204 114.099 95.6159 114.103 95.6129 114.106L93.9009 115.68C93.8588 115.719 93.7926 115.719 93.7505 115.68L92.025 114.106C92.025 114.106 92.0205 114.102 92.0175 114.099L82.522 103.693L79.8127 100.723C76.6671 97.2739 76.6505 91.5985 80.1466 88.5064C81.7337 87.1026 83.7014 86.3954 85.6691 86.3954C87.9362 86.3954 90.2017 87.3193 91.8475 89.1384L93.743 91.2133C93.7866 91.2614 93.8633 91.2614 93.9085 91.2133L95.7889 89.1384C97.4347 87.3193 99.7017 86.3954 101.967 86.3954C103.935 86.3954 105.904 87.1041 107.49 88.5064C110.986 91.5985 110.969 97.2754 107.824 100.723L107.825 100.724Z" stroke="#61D7DA" stroke-width="3" stroke-miterlimit="10" stroke-linecap="round"/>
<path d="M6.37464 62.7607C2.32943 62.7607 0.459517 57.7338 3.52088 55.0886C23.6958 37.6605 43.8691 20.2324 64.044 2.80425C65.6928 1.37937 68.1389 1.38839 69.7771 2.82532C89.6481 20.2534 109.518 37.6816 129.387 55.1097C132.417 57.7669 130.538 62.7607 126.508 62.7607H122.452C120.041 62.7607 118.085 64.7168 118.085 67.1287V125.89C118.085 128.302 116.129 130.258 113.718 130.258H19.0308C16.6193 130.258 14.6636 128.302 14.6636 125.89V67.1287C14.6636 64.7168 12.708 62.7607 10.2965 62.7607H6.37464Z" stroke="#61D7DA" stroke-width="3" stroke-miterlimit="10" stroke-linecap="round"/>
<path d="M22.8834 71.3657C25.9207 71.3672 29.65 70.9564 33.623 69.497C47.6541 64.3466 53.142 50.3957 54.2372 47.4255" stroke="#61D7DA" stroke-width="3" stroke-miterlimit="10" stroke-linecap="round"/>
<path d="M74.2496 37.972C73.699 39.3126 72.9182 41.6162 72.849 44.5111C72.7046 50.4965 75.7238 53.6307 74.0164 57.3546C73.9231 57.5578 72.6911 60.1548 70.2811 60.8574C63.8485 62.7337 51.6316 50.3506 53.9378 41.4748C54.4824 39.3773 55.7009 38.0051 56.9736 36.5712C62.5848 30.2472 70.7926 30.4714 71.45 30.5C73.7953 30.6023 75.7163 31.159 77.0537 31.6676C81.7518 31.1575 84.6537 32.2679 86.3927 33.3016C91.1751 36.1454 90.5357 40.4125 96.1996 44.2779C98.8999 46.1211 101.824 47.0479 104.138 47.7807C109.84 49.5877 111.94 48.8445 113.011 50.5823C114.849 53.566 110.838 59.2956 108.574 61.7918C107.512 62.9624 104.833 65.8438 100.403 67.1633C95.467 68.6318 93.3203 66.6848 89.4285 67.6298C86.6229 68.3114 82.7793 70.5292 79.1553 77.9049" stroke="#61D7DA" stroke-width="3" stroke-miterlimit="10" stroke-linecap="round"/>
<path d="M22.4171 94.4844C26.7481 91.6933 30.1359 91.2855 32.4571 91.448C35.1274 91.6361 36.5911 92.593 37.8277 91.6812C39.7322 90.2774 37.951 86.7566 38.9951 82.8069C39.6359 80.3845 41.4697 77.3045 46.7004 74.4006C49.5797 71.9089 52.459 69.4187 55.3399 66.9271C55.9627 67.2445 56.9555 67.875 57.6746 69.029C59.4814 71.93 57.7995 75.3259 57.6746 75.5681C61.1587 77.2263 63.0858 79.1747 64.2125 80.705C65.249 82.1133 65.6206 83.1831 67.2483 84.6757C68.9362 86.2224 69.9441 86.3609 70.2841 87.4773C70.761 89.0436 69.4627 91.0192 68.1825 92.1477C64.9151 95.0275 61.0113 93.0625 59.3099 95.4172C58.5637 96.4494 58.857 97.4605 59.3099 100.789C59.3099 100.789 60.1779 107.171 60.2441 112.933C60.2726 115.465 60.0049 119.056 58.6103 123.441" stroke="#61D7DA" stroke-width="3" stroke-miterlimit="10" stroke-linecap="round"/>
<path d="M86.0949 46.4686C86.1641 46.3257 86.5868 45.4936 87.5857 45.1791C88.6493 44.8451 89.5173 45.3642 89.6436 45.4425" stroke="#61D7DA" stroke-width="2" stroke-miterlimit="10" stroke-linecap="round"/>
<path d="M57.4444 83.5743C57.4835 83.493 57.7227 83.0236 58.2869 82.846C58.8871 82.658 59.379 82.9499 59.4497 82.995" stroke="#61D7DA" stroke-width="2" stroke-miterlimit="10" stroke-linecap="round"/>
</svg>
