<svg width="265" height="265" viewBox="0 0 265 265" fill="none" xmlns="http://www.w3.org/2000/svg">
<circle cx="132.5" cy="132.5" r="132.5" fill="#4245AC"/>
<path d="M79.5922 89.3294C80.9816 88.2999 82.3711 87.2775 83.7678 86.248C83.9334 86.1256 84.0198 85.9097 83.9046 85.7153C83.8038 85.5497 83.5374 85.4489 83.3718 85.5713C81.9824 86.6008 80.5929 87.6231 79.2034 88.6526C79.0306 88.775 78.9514 88.991 79.0666 89.1854C79.1674 89.351 79.4266 89.4518 79.5994 89.3222" fill="#453EB6"/>
<path d="M84.6677 85.5137C84.6893 85.9529 84.9341 86.3273 85.2941 86.5648C85.6181 86.7808 86.0716 86.86 86.4388 86.716C86.5396 86.68 86.6188 86.6296 86.6692 86.536C86.7196 86.4496 86.7412 86.3273 86.7052 86.2337C86.6764 86.1401 86.6188 86.0465 86.5252 86.0033C86.4388 85.9601 86.3236 85.9241 86.2228 85.9673C86.1652 85.9889 86.1004 86.0105 86.0356 86.0177C86.0716 86.0177 86.1076 86.0105 86.1364 86.0033C86.0572 86.0177 85.978 86.0105 85.8988 86.0033C85.9348 86.0033 85.9708 86.0105 85.9996 86.0177C85.9132 86.0033 85.8341 85.9817 85.7549 85.9529C85.7837 85.9673 85.8197 85.9817 85.8484 85.9961C85.7909 85.9745 85.7333 85.9457 85.6829 85.9097C85.6685 85.9025 85.6541 85.8953 85.6397 85.8809C85.5821 85.8449 85.6757 85.9025 85.6757 85.9097C85.6757 85.8953 85.6181 85.8593 85.6037 85.8449C85.5821 85.8233 85.5605 85.8017 85.5461 85.7801C85.5389 85.7729 85.5317 85.7585 85.5173 85.7513C85.6037 85.8377 85.5605 85.8089 85.5389 85.7801C85.5029 85.7297 85.4669 85.6721 85.4453 85.6145C85.4597 85.6433 85.4741 85.6793 85.4813 85.7081C85.4525 85.6361 85.4309 85.5641 85.4237 85.4921C85.4237 85.5281 85.4309 85.5641 85.4381 85.5929C85.4381 85.5713 85.4381 85.5497 85.4381 85.5281C85.4309 85.3265 85.2653 85.1322 85.0493 85.1394C84.8477 85.1466 84.6461 85.3121 84.6605 85.5281" fill="#453EB6"/>
<path d="M107.08 218.588H103.804C103.689 218.544 103.573 218.48 103.458 218.465C102.709 218.372 101.961 218.321 101.212 218.199C100.031 218.012 98.8578 217.81 97.6843 217.58C97.0148 217.443 96.3956 217.176 95.9709 216.608C95.7765 216.341 95.6325 216.039 95.4381 215.708C95.3085 215.722 95.1429 215.737 94.9845 215.751C93.8614 215.859 92.7383 216.01 91.608 216.053C90.3985 216.104 89.189 216.075 87.9795 215.83C86.2229 215.47 84.5094 215.031 82.9543 214.095C81.2769 213.087 80.4705 211.467 80.7369 209.545C80.9673 207.889 81.7808 206.637 83.2567 205.852C83.9623 205.477 84.7038 205.182 85.4237 204.851C85.6109 204.765 85.7909 204.671 85.9925 204.57C86.0069 204.326 86.0285 204.117 86.0285 203.908C85.9853 199.228 86.1725 194.549 85.7837 189.876C85.6685 188.48 85.6181 187.076 85.5317 185.679C85.4453 184.34 85.3589 183.008 85.2725 181.669C85.2222 180.935 85.1934 180.208 85.1286 179.473C85.0206 178.285 84.8838 177.105 84.7758 175.917C84.675 174.873 84.6246 173.829 84.5022 172.792C84.279 170.942 84.0414 169.099 83.7751 167.256C83.5159 165.47 83.2639 163.685 82.9255 161.921C82.5224 159.84 82.0256 157.781 81.5793 155.708C80.7009 151.648 79.8154 147.594 78.9515 143.534C78.3323 140.618 77.7132 137.709 77.1444 134.787C76.7845 132.915 76.4893 131.028 76.2301 129.142C76.0717 127.983 76.0501 126.81 75.9493 125.636C75.9349 125.478 75.8701 125.319 75.8269 125.161V123.397C75.8629 123.303 75.9349 123.21 75.9421 123.109C75.9925 122.461 76.0501 121.813 76.0789 121.165C76.1293 119.913 76.1437 118.653 76.2157 117.393C76.2733 116.414 76.3669 115.427 76.5253 114.463C76.8061 112.807 77.1084 111.158 77.4828 109.524C77.8788 107.825 78.3395 106.147 78.8435 104.477C79.1963 103.289 79.6498 102.137 80.0818 100.978C80.8665 98.8759 81.6225 96.7593 82.6952 94.7723C83.1919 93.8507 83.7247 92.9436 84.1926 92.0077C84.7182 90.9566 85.1934 89.8767 85.6757 88.8112C86.4101 87.1841 87.1444 85.5642 87.8499 83.93C88.1379 83.2604 88.4403 82.5765 88.6131 81.8781C88.937 80.575 89.1674 79.2504 89.441 77.9401C90.0098 75.1395 90.7081 72.3749 91.7232 69.6967C93.0623 66.1402 95.1069 63.0589 97.7995 60.3951C98.2459 59.956 98.721 59.5456 99.1962 59.1208C100.211 58.2137 101.27 57.357 102.429 56.6298C102.724 56.4427 103.019 56.1979 103.185 55.9027C103.674 55.0244 104.149 54.1244 104.531 53.1957C105.618 50.5247 106.928 47.9762 108.303 45.4492C109.045 44.0885 109.858 42.7566 110.708 41.4607C111.334 40.5032 111.982 39.5313 113.012 38.9265H113.264C113.804 39.2361 114.25 39.6393 114.524 40.208C114.74 40.64 114.977 41.0719 115.107 41.5327C115.748 43.7501 116.374 45.9747 116.957 48.2065C117.454 50.0928 117.893 51.9934 118.361 53.8941C118.397 54.0525 118.483 54.2036 118.505 54.2468C120.067 54.9092 121.543 55.4995 122.99 56.1691C124.416 56.8314 125.856 57.4866 127.202 58.2929C128.563 59.1136 129.83 60.0927 131.118 61.0287C132.4 61.9718 133.465 63.1597 134.545 64.3044C135.215 64.1172 135.791 63.93 136.381 63.8004C137.591 63.5413 138.807 63.3037 140.024 63.0733C141.925 62.7133 143.832 62.4829 145.769 62.5045C147.094 62.5189 148.418 62.4973 149.743 62.5117C150.247 62.5117 150.751 62.5549 151.241 62.6557C152.018 62.8141 152.81 62.9077 153.544 63.2749C154.264 63.6349 154.538 64.2756 154.43 65.1107C154.358 65.6579 154.135 66.2122 153.876 66.709C152.918 68.5376 151.766 70.2367 150.506 71.8638C148.937 73.8868 147.36 75.8954 145.755 77.8897C144.804 79.0632 143.804 80.1935 142.81 81.3238C141.716 82.5693 140.809 83.9156 140.485 85.5786C140.211 86.9753 139.981 88.3864 139.671 89.7759C139.21 91.8853 138.678 93.9803 138.21 96.0897C138.087 96.6585 137.987 97.256 138.023 97.832C138.08 98.8327 138.231 99.8262 138.368 100.82C138.541 102.065 138.987 103.217 139.707 104.247C140.514 105.391 141.579 106.298 142.681 107.126C143.717 107.904 144.876 108.516 145.985 109.193C148.634 110.813 151.298 112.418 153.94 114.038C156.439 115.571 158.692 117.407 160.801 119.43C161.694 120.287 162.594 121.151 163.422 122.065C164.308 123.044 165.171 124.052 165.927 125.125C167.634 127.53 168.908 130.179 170.139 132.85C171.514 135.838 172.508 138.955 173.415 142.101C174.12 144.542 174.725 147.011 175.114 149.524C175.323 150.87 175.517 152.216 175.668 153.57C175.798 154.736 175.841 155.91 175.949 157.076C176.1 158.638 176.28 160.193 176.439 161.755C176.503 162.382 176.532 163.008 176.575 163.635C176.655 164.866 176.813 166.097 176.799 167.328C176.77 170.812 176.95 174.297 176.698 177.781C176.611 178.969 176.604 180.172 176.561 181.359C176.561 181.424 176.561 181.482 176.547 181.547C176.424 183.051 176.323 184.549 176.179 186.053C176.057 187.285 175.906 188.508 175.733 189.732C175.481 191.539 175.193 193.332 174.919 195.139C174.718 196.464 174.524 197.788 174.336 199.12C174.142 200.467 173.955 201.813 173.782 203.166C173.703 203.786 173.631 204.419 173.624 205.045C173.616 205.6 173.681 206.161 173.732 206.723C173.746 206.824 173.883 206.903 174.012 207.061C174.344 206.867 174.711 206.73 174.97 206.478C176.071 205.42 177.238 204.405 178.195 203.224C180.384 200.524 181.917 197.443 182.954 194.124C183.595 192.079 184.127 190.013 184.567 187.911C185.092 185.398 185.323 182.857 185.488 180.308C185.589 178.739 185.596 177.162 185.618 175.593C185.618 175.096 185.503 174.592 185.51 174.088C185.51 171.863 185.495 169.646 185.258 167.429C185.128 166.241 185.107 165.046 184.977 163.858C184.804 162.274 184.581 160.697 184.372 159.128C183.998 156.378 183.451 153.671 182.781 150.978C182.176 148.552 181.529 146.14 180.873 143.728C180.65 142.9 180.355 142.087 180.074 141.273C179.477 139.545 178.822 137.839 178.26 136.104C177.634 134.167 177.079 132.202 176.518 130.251C176.179 129.085 175.827 127.911 175.56 126.73C174.97 124.139 174.545 121.504 173.847 118.933C173.573 117.926 173.336 116.896 173.184 115.859C172.954 114.268 172.832 112.656 172.637 111.057C172.436 109.351 172.27 107.645 172.27 105.924C172.27 105.78 172.241 105.629 172.241 105.485C172.212 104.772 172.133 104.059 172.176 103.354C172.256 102.08 172.407 100.813 172.529 99.5455C172.623 98.5663 172.652 97.5728 172.817 96.6081C173.098 94.9738 173.386 93.3396 173.811 91.7413C174.502 89.1711 175.683 86.8457 177.691 85.0171C178.836 83.9804 180.175 83.318 181.716 83.066C182.724 82.9004 184.135 83.7284 184.437 84.5203C184.703 85.2259 184.747 85.9386 184.495 86.6081C184.084 87.7312 183.602 88.8256 183.084 89.9055C182.63 90.8486 182.09 91.7557 181.586 92.6772C180.485 94.6859 179.721 96.8097 179.369 99.0703C179.203 100.143 178.98 101.23 178.98 102.31C178.973 105.096 178.786 107.897 179.203 110.669C179.426 112.159 179.599 113.656 179.894 115.139C180.189 116.637 180.614 118.113 180.967 119.603C181.226 120.704 181.442 121.82 181.716 122.915C181.982 123.995 182.263 125.075 182.587 126.133C183.148 127.976 183.732 129.819 184.343 131.648C184.775 132.943 185.315 134.196 185.733 135.499C186.424 137.681 187.036 139.877 187.698 142.065C188.102 143.39 188.534 144.707 188.929 146.039C189.491 147.933 190.096 149.812 190.571 151.727C191.197 154.268 191.78 156.831 192.27 159.408C192.666 161.46 192.983 163.534 193.098 165.636C193.127 166.154 193.206 166.68 193.256 167.198C193.328 167.904 193.4 168.609 193.465 169.322C193.566 170.409 193.652 171.489 193.753 172.576C193.825 173.411 193.89 174.246 193.976 175.074C194.041 175.672 194.142 176.269 194.221 176.86V180.013C194.178 180.172 194.113 180.33 194.099 180.488C194.048 181.071 194.019 181.655 193.969 182.238C193.847 183.822 193.746 185.413 193.58 186.989C193.472 188.026 193.328 189.07 193.098 190.092C192.587 192.339 192.032 194.585 191.456 196.817C191.01 198.544 190.355 200.215 189.606 201.835C188.929 203.31 188.066 204.671 187.151 206.01C185.942 207.774 184.567 209.38 182.817 210.611C181.795 211.338 180.751 212.079 179.621 212.605C177.605 213.541 175.438 214.095 173.278 214.635C170.341 215.362 167.374 215.902 164.387 216.356C162.004 216.716 159.621 217.061 157.223 217.212C156.683 217.248 156.136 217.313 155.596 217.371C154.869 217.443 154.142 217.522 153.408 217.58C152.637 217.637 151.86 217.673 151.089 217.724C149.858 217.803 148.627 217.882 147.396 217.961C147.252 217.968 147.101 217.961 146.957 217.976C145.683 218.055 144.408 218.192 143.134 218.206C139.311 218.235 135.488 218.22 131.665 218.213C131.457 218.213 131.248 218.199 131.039 218.177C130.161 218.105 129.29 218.033 128.411 217.961C127.785 217.911 127.159 217.875 126.532 217.803C126.036 217.745 125.539 217.637 125.042 217.594C123.941 217.493 122.904 217.176 121.925 216.68C121.55 216.493 121.277 216.226 121.104 215.845C120.701 214.952 120.427 214.038 120.679 213.044C120.701 212.965 120.679 212.878 120.679 212.706C119.376 212.31 118.03 212.295 116.662 212.216C116.612 212.317 116.547 212.425 116.496 212.533C116.18 213.238 115.899 213.966 115.546 214.657C115.013 215.715 114.185 216.514 113.141 217.076C111.694 217.86 110.132 218.206 108.505 218.343C108.03 218.386 107.569 218.501 107.094 218.588" fill="#E1F5FF"/>
<path d="M107.094 62.5909C107.763 63.2029 107.915 64.0308 107.403 64.8228C106.943 65.5355 106.446 66.241 105.726 66.7522C105.308 67.0474 104.941 67.4217 104.509 67.6953C103.516 68.3289 102.832 68.0697 102.371 66.8818C102.508 66.6298 102.652 66.3202 102.825 66.0323C103.71 64.5852 104.862 63.4117 106.352 62.5837H107.087L107.094 62.5909Z" fill="#453EB6"/>
<path d="M125.647 75.2692C126.316 75.8811 126.468 76.709 125.956 77.501C125.496 78.2137 124.999 78.9193 124.279 79.4304C123.861 79.7256 123.494 80.1 123.062 80.3735C122.069 81.0071 121.385 80.7479 120.924 79.56C121.061 79.308 121.205 78.9985 121.378 78.7105C122.263 77.2634 123.415 76.0899 124.905 75.262H125.64L125.647 75.2692Z" fill="#453EB6"/>
<path d="M107.843 79.3582C107.979 79.3582 108.188 79.3582 108.397 79.3582C109.39 79.3942 110.305 79.0918 111.198 78.7246C111.889 78.4439 112.184 77.6879 111.853 77.0112C111.694 76.68 111.414 76.4136 111.169 76.1329C111.061 76.0105 110.895 75.9313 110.773 75.8233C110.046 75.1393 109.189 74.6426 108.282 74.2538C107.706 74.009 107.101 73.8003 106.367 74.0378C105.834 75.3553 105.992 76.7376 106.288 78.0911C106.288 78.0911 106.496 79.2646 107.835 79.3582" fill="#453EB6"/>
<path d="M155.315 157.22C147.605 158.364 140.794 162.9 135.848 168.796C133.328 171.806 131.176 175.161 129.491 178.71C128.577 180.639 127.886 182.641 127.562 184.757C127.245 186.874 127.159 189.019 127.058 191.158C126.827 195.924 126.813 200.798 128.303 205.384C128.534 206.096 129.664 205.794 129.434 205.074C128.152 201.129 128.023 196.96 128.159 192.842C128.303 188.732 128.346 184.491 129.916 180.625C130.665 178.789 131.629 177.032 132.645 175.333C133.602 173.728 134.653 172.173 135.805 170.704C138.13 167.738 140.859 165.067 143.998 162.958C147.497 160.611 151.449 158.976 155.625 158.357C155.942 158.307 156.107 157.918 156.035 157.637C155.949 157.299 155.625 157.184 155.315 157.227" fill="#453EB6"/>
<path d="M121.334 212.648C122.738 209.516 125.704 207.407 128.973 206.543C132.969 205.485 137.223 206.313 141.018 207.76C143.17 208.58 145.301 209.682 147.67 209.574C148.418 209.538 148.426 208.364 147.67 208.408C145.474 208.508 143.48 207.464 141.485 206.694C139.434 205.902 137.303 205.319 135.121 205.053C131.298 204.585 127.295 205.261 124.128 207.536C122.508 208.703 121.154 210.229 120.334 212.058C120.031 212.742 121.039 213.332 121.342 212.648" fill="#453EB6"/>
<path d="M127.072 189.164C123.71 194.758 120.773 200.596 118.275 206.629C117.569 208.329 116.899 210.049 116.273 211.777C116.014 212.483 117.144 212.792 117.403 212.087C119.614 206.054 122.263 200.186 125.337 194.542C126.223 192.922 127.137 191.324 128.087 189.747C128.476 189.099 127.468 188.509 127.079 189.157" fill="#453EB6"/>
<path d="M96.0933 215.478C95.9061 213.937 95.7405 212.281 96.2661 210.791C96.518 210.071 96.986 209.459 97.6267 209.041C98.2963 208.595 99.0594 208.307 99.7434 207.897C100.427 207.486 101.039 206.946 101.392 206.219C101.738 205.492 101.846 204.7 101.925 203.901C102.011 203.001 102.126 202.144 102.314 201.259C102.544 200.193 102.774 199.128 103.005 198.062C104.682 190.265 106.259 182.425 106.936 174.463C107.31 170.071 107.389 165.658 107.116 161.259C107.065 160.51 105.899 160.503 105.949 161.259C106.439 169.106 105.748 176.946 104.452 184.686C103.782 188.66 102.983 192.612 102.141 196.558C101.918 197.616 101.687 198.674 101.457 199.732C101.241 200.712 100.989 201.691 100.874 202.684C100.78 203.469 100.773 204.275 100.586 205.053C100.391 205.83 99.9593 206.392 99.2826 206.817C98.5051 207.306 97.6339 207.609 96.8852 208.149C96.1509 208.674 95.6109 209.365 95.2653 210.2C94.5814 211.856 94.7326 213.742 94.9414 215.485C94.9774 215.801 95.1861 216.068 95.5245 216.068C95.8125 216.068 96.1437 215.794 96.1077 215.485" fill="#453EB6"/>
<path d="M124.444 212.296C123.473 213.57 122.997 215.226 123.149 216.824C123.177 217.141 123.401 217.407 123.732 217.407C124.027 217.407 124.344 217.141 124.315 216.824C124.185 215.398 124.574 214.038 125.452 212.886C125.647 212.634 125.488 212.231 125.244 212.087C124.941 211.907 124.632 212.044 124.444 212.296Z" fill="#453EB6"/>
<path d="M128.023 212.691C127.195 214.052 126.827 215.701 127.043 217.285C127.087 217.594 127.281 217.868 127.627 217.868C127.907 217.868 128.253 217.601 128.21 217.285C128.023 215.874 128.296 214.491 129.03 213.282C129.196 213.008 129.088 212.641 128.822 212.483C128.541 212.317 128.188 212.418 128.023 212.691Z" fill="#453EB6"/>
<path d="M98.5914 212.576C97.6195 213.85 97.1443 215.506 97.2955 217.104C97.3243 217.421 97.5475 217.688 97.8787 217.688C98.1738 217.688 98.4906 217.421 98.4618 217.104C98.3322 215.679 98.721 214.318 99.5993 213.166C99.7937 212.914 99.6353 212.511 99.3905 212.367C99.0882 212.187 98.7786 212.324 98.5914 212.576Z" fill="#453EB6"/>
<path d="M102.169 212.972C101.342 214.333 100.974 215.981 101.19 217.565C101.234 217.875 101.428 218.148 101.774 218.148C102.054 218.148 102.4 217.882 102.357 217.565C102.169 216.154 102.443 214.772 103.177 213.562C103.343 213.289 103.235 212.921 102.969 212.763C102.688 212.597 102.335 212.705 102.169 212.972Z" fill="#453EB6"/>
<path d="M83.7895 209.106C82.8175 210.38 82.3424 212.036 82.4936 213.634C82.5224 213.951 82.7456 214.218 83.0767 214.218C83.3719 214.218 83.6887 213.951 83.6599 213.634C83.5303 212.209 83.9191 210.848 84.7974 209.696C84.9918 209.444 84.8334 209.041 84.5886 208.897C84.2862 208.717 83.9767 208.854 83.7895 209.106Z" fill="#453EB6"/>
<path d="M87.3676 209.502C86.5397 210.863 86.1725 212.511 86.3885 214.095C86.4317 214.405 86.626 214.678 86.9716 214.678C87.2524 214.678 87.598 214.412 87.5548 214.095C87.3676 212.684 87.6412 211.302 88.3755 210.092C88.5411 209.819 88.4331 209.452 88.1667 209.293C87.8859 209.128 87.5332 209.228 87.3676 209.502Z" fill="#453EB6"/>
<path d="M134.948 65.7729C135.906 67.1408 136.719 68.6095 137.324 70.1646C137.627 70.9421 137.886 71.734 138.095 72.5404C138.26 73.1739 138.303 73.9947 138.8 74.477C139.441 75.0962 140.319 74.6066 140.996 74.3186C141.802 73.9731 142.58 73.5843 143.364 73.1883C144.804 72.454 146.244 71.698 147.598 70.8125C149.11 69.8262 150.528 68.6815 151.687 67.2992C152.169 66.7305 151.349 65.8953 150.859 66.4713C148.958 68.7247 146.431 70.2654 143.847 71.6188C143.17 71.9716 142.486 72.3244 141.795 72.6628C141.435 72.8355 141.082 73.0083 140.715 73.1739C140.528 73.2603 140.341 73.3395 140.146 73.4115C140.046 73.4547 139.686 73.6635 139.578 73.6131C139.477 73.5699 139.419 73.0803 139.398 72.9867C139.311 72.6052 139.218 72.2236 139.117 71.8492C138.915 71.1221 138.67 70.4022 138.39 69.7038C137.756 68.1055 136.943 66.5865 135.956 65.1754C135.524 64.5634 134.509 65.1466 134.948 65.7657" fill="#453EB6"/>
<path d="M116.935 53.9949C115.704 54.0237 114.473 54.0597 113.242 54.0957C112.659 54.1101 112.069 54.1245 111.486 54.1389C110.931 54.1533 110.319 54.2469 109.765 54.1749C109.347 54.1173 109.578 53.6565 109.686 53.3757C109.902 52.8214 110.154 52.2814 110.406 51.7415C110.91 50.6616 111.45 49.5961 112.026 48.5521C112.328 48.0122 111.738 47.5082 111.226 47.753L109.499 48.5593C109.794 48.7249 110.082 48.8977 110.377 49.0633C110.406 48.4946 110.895 47.9114 111.147 47.4218C111.428 46.8747 111.68 46.3059 111.903 45.7372C112.364 44.5853 112.695 43.383 112.911 42.1663C113.041 41.4319 111.918 41.1152 111.781 41.8567C111.55 43.131 111.205 44.3837 110.715 45.5788C110.47 46.1835 110.182 46.7667 109.873 47.3355C109.563 47.897 109.239 48.4082 109.211 49.0705C109.189 49.5529 109.714 49.7544 110.089 49.5745C110.665 49.3081 111.241 49.0345 111.817 48.7681L111.018 47.969C110.334 49.2145 109.693 50.4816 109.117 51.7775C108.714 52.6846 107.835 54.1317 108.786 54.9884C109.239 55.3988 109.866 55.3556 110.434 55.3412C111.14 55.3196 111.838 55.3052 112.544 55.2836L116.943 55.1684C117.691 55.1468 117.699 53.9805 116.943 54.0021" fill="#453EB6"/>
<path d="M106.568 78.7465C106.187 79.6393 105.092 79.5745 104.301 79.3801C103.501 79.1857 102.695 78.8113 102.285 78.0554C101.925 77.393 100.917 77.9834 101.277 78.6457C101.853 79.7112 103.012 80.2944 104.149 80.5392C105.38 80.8056 107.008 80.6616 107.576 79.3297C107.699 79.0417 107.663 78.7033 107.367 78.5305C107.123 78.3866 106.691 78.4514 106.568 78.7393" fill="#453EB6"/>
<path d="M106.683 78.7825C105.69 79.6176 105.812 81.1511 106.208 82.2526C106.619 83.3829 107.619 84.4412 108.923 84.3045C109.239 84.2685 109.506 84.0597 109.506 83.7213C109.506 83.4333 109.239 83.1022 108.923 83.1382C108.555 83.1741 108.253 83.0878 107.965 82.8646C107.648 82.6126 107.439 82.2526 107.317 81.8783C107.173 81.4607 107.079 81.0143 107.087 80.568C107.094 80.1576 107.216 79.8624 107.511 79.6176C107.756 79.4161 107.72 78.9985 107.511 78.7897C107.274 78.5521 106.928 78.5881 106.683 78.7897" fill="#453EB6"/>
<path d="M85.8197 97.1409C85.3589 98.7176 84.8405 100.28 84.5094 101.893C84.3654 102.598 84.1278 103.469 84.2862 104.189C84.4374 104.88 85.0061 105.427 85.6973 105.564C86.3812 105.701 86.9716 105.399 87.5187 105.031C87.8139 104.837 88.1019 104.628 88.3898 104.419C88.577 104.29 89.0162 103.872 89.2538 103.865C89.4338 103.865 89.2178 104.268 89.189 104.383C89.0594 104.88 88.937 105.384 88.829 105.895C88.6202 106.874 88.4546 107.861 88.3322 108.854C88.1955 109.905 88.0443 111.007 88.0803 112.072C88.1019 112.821 88.3826 113.685 89.2106 113.858C89.9449 114.016 90.2617 112.886 89.5201 112.728C89.0738 112.634 89.2682 111.432 89.2898 111.079C89.3474 110.157 89.441 109.236 89.5777 108.322C89.7145 107.386 89.8945 106.457 90.1105 105.528C90.2761 104.83 90.744 103.908 90.3049 103.232C89.4194 101.878 87.8283 103.419 86.986 103.988C86.5972 104.254 86.0356 104.679 85.6037 104.247C85.2149 103.851 85.5029 102.951 85.5965 102.476C85.9204 100.769 86.482 99.1207 86.9644 97.4505C87.1731 96.7233 86.05 96.4138 85.8341 97.1409" fill="#453EB6"/>
<path d="M90.4273 113.498C90.3553 114.506 90.2833 115.521 90.2113 116.529C90.1825 116.961 90.1609 117.393 90.5209 117.695C90.6865 117.839 90.9025 117.904 91.1184 117.904C91.212 117.904 91.4496 117.825 91.5288 117.868C91.6728 117.947 91.7376 118.35 91.788 118.487C91.932 118.861 92.1048 119.207 92.3423 119.531C92.8103 120.172 93.4295 120.69 94.1638 121C94.4518 121.122 94.7901 121.086 94.9629 120.791C95.1069 120.546 95.0421 120.114 94.7541 119.992C93.9334 119.646 93.2495 119.02 92.9183 118.177C92.7671 117.781 92.6591 117.364 92.3567 117.047C92.1984 116.874 91.9824 116.766 91.7592 116.716C91.6368 116.694 91.5288 116.694 91.4136 116.702C91.3488 116.709 91.284 116.716 91.2192 116.723C91.1112 116.73 91.0968 116.73 91.176 116.723C91.248 116.795 91.3128 116.86 91.3848 116.932C91.3056 116.824 91.3992 116.385 91.4064 116.241C91.428 115.938 91.4496 115.643 91.4712 115.348C91.5144 114.729 91.5576 114.11 91.6008 113.483C91.6512 112.735 90.4849 112.735 90.4345 113.483" fill="#453EB6"/>
<path d="M110.204 121.806C110.758 120.784 111.363 119.783 112.083 118.861C112.702 118.077 113.393 117.35 114.07 116.615C113.746 116.428 113.422 116.234 113.091 116.046C112.803 116.91 113.48 117.882 114.077 118.458C114.804 119.149 115.87 119.351 116.741 118.789C117.303 118.422 117.583 117.753 117.9 117.184C118.217 116.615 118.555 115.874 118.959 115.427C119.016 115.363 119.074 115.37 118.966 115.406C119.045 115.384 119.131 115.391 119.21 115.399C119.477 115.406 119.75 115.442 120.01 115.478C120.406 115.528 120.794 115.636 121.198 115.694C121.968 115.802 122.565 115.499 123.077 114.923C123.948 113.944 124.718 112.857 125.51 111.806C126.324 110.726 127.115 109.632 127.886 108.53C129.621 106.039 131.262 103.476 132.796 100.856C133.177 100.208 132.169 99.6175 131.788 100.265C129.311 104.491 126.568 108.566 123.566 112.44C123.206 112.908 122.839 113.368 122.472 113.829C122.277 114.074 122.011 114.434 121.737 114.527C121.572 114.585 121.406 114.549 121.198 114.506C120.78 114.427 120.37 114.34 119.945 114.297C119.448 114.239 118.858 114.117 118.397 114.376C118.174 114.499 118.023 114.707 117.879 114.909C117.475 115.463 117.166 116.083 116.835 116.68C116.676 116.968 116.525 117.256 116.352 117.53C116.324 117.573 116.295 117.623 116.266 117.666C116.194 117.767 116.46 117.544 116.208 117.724C116.036 117.846 115.87 117.94 115.654 117.954C115.222 117.983 114.927 117.695 114.668 117.386C114.466 117.148 114.106 116.694 114.214 116.363C114.394 115.809 113.624 115.37 113.235 115.795C112.529 116.558 111.817 117.314 111.176 118.134C110.42 119.106 109.772 120.143 109.189 121.223C108.829 121.885 109.837 122.476 110.197 121.813" fill="#453EB6"/>
<path d="M170.348 209.113C171.86 208.523 173.033 207.335 173.602 205.816C173.71 205.528 173.48 205.161 173.192 205.096C172.86 205.024 172.587 205.197 172.472 205.506C172.457 205.549 172.443 205.585 172.421 205.629C172.371 205.765 172.472 205.513 172.414 205.65C172.378 205.722 172.349 205.794 172.313 205.866C172.241 206.017 172.155 206.161 172.068 206.298C172.018 206.37 171.975 206.442 171.924 206.514C171.903 206.543 171.881 206.572 171.86 206.601C171.831 206.637 171.845 206.622 171.888 206.572C171.874 206.586 171.86 206.608 171.845 206.622C171.737 206.752 171.629 206.874 171.514 206.996C171.406 207.112 171.284 207.22 171.161 207.32C171.125 207.349 171.097 207.378 171.061 207.4C170.945 207.493 171.161 207.328 171.039 207.414C170.967 207.464 170.895 207.515 170.823 207.565C170.693 207.652 170.549 207.731 170.413 207.81C170.333 207.853 170.254 207.889 170.182 207.925C170.146 207.94 170.103 207.961 170.06 207.976C170.146 207.94 170.096 207.961 170.038 207.976C169.757 208.084 169.527 208.372 169.628 208.696C169.714 208.969 170.038 209.221 170.348 209.106" fill="#453EB6"/>
</svg>
