<svg width="135" height="135" viewBox="0 0 135 135" fill="none" xmlns="http://www.w3.org/2000/svg">
<path d="M37.6572 98.8224H96.3411" stroke="#61D7DA" stroke-width="3" stroke-miterlimit="10" stroke-linecap="round"/>
<path d="M37.6572 108.368H96.3412" stroke="#61D7DA" stroke-width="3" stroke-miterlimit="10" stroke-linecap="round"/>
<path d="M37.6572 117.912H96.3412" stroke="#61D7DA" stroke-width="3" stroke-miterlimit="10" stroke-linecap="round"/>
<path d="M47.8918 69.5837C51.8676 69.5837 55.0906 66.3607 55.0906 62.3849C55.0906 58.4092 51.8676 55.1862 47.8918 55.1862C43.916 55.1862 40.693 58.4092 40.693 62.3849C40.693 66.3607 43.916 69.5837 47.8918 69.5837Z" stroke="#61D7DA" stroke-width="3" stroke-miterlimit="10" stroke-linecap="round"/>
<path d="M86.1083 69.5837C90.0841 69.5837 93.3071 66.3607 93.3071 62.3849C93.3071 58.4092 90.0841 55.1862 86.1083 55.1862C82.1325 55.1862 78.9095 58.4092 78.9095 62.3849C78.9095 66.3607 82.1325 69.5837 86.1083 69.5837Z" stroke="#61D7DA" stroke-width="3" stroke-miterlimit="10" stroke-linecap="round"/>
<path d="M57.8641 55.1845C61.8399 55.1845 65.0629 51.9615 65.0629 47.9857C65.0629 44.0099 61.8399 40.7869 57.8641 40.7869C53.8883 40.7869 50.6653 44.0099 50.6653 47.9857C50.6653 51.9615 53.8883 55.1845 57.8641 55.1845Z" stroke="#61D7DA" stroke-width="3" stroke-miterlimit="10" stroke-linecap="round"/>
<path d="M75.3497 55.1845C79.3254 55.1845 82.5485 51.9615 82.5485 47.9857C82.5485 44.0099 79.3254 40.7869 75.3497 40.7869C71.3739 40.7869 68.1509 44.0099 68.1509 47.9857C68.1509 51.9615 71.3739 55.1845 75.3497 55.1845Z" stroke="#61D7DA" stroke-width="3" stroke-miterlimit="10" stroke-linecap="round"/>
<path d="M58.165 68.3287C56.3002 71.4216 53.9213 70.7899 52.6311 73.7266C51.6701 75.9156 51.9624 78.612 53.1771 80.6952C54.3312 82.6742 56.4766 84.371 58.9159 84.5894C62.2289 84.8868 62.9395 82.1753 66.5683 82.1299C70.0577 82.0862 70.6222 84.5777 73.9469 84.3156C76.4719 84.1174 79.2573 82.4357 80.3695 79.7376C81.4061 77.2193 80.556 74.8572 80.4384 74.5447C79.2741 71.4603 76.8398 71.9139 74.9733 68.8747C72.8952 65.4912 74.9482 63.3644 72.7188 60.4025C72.5878 60.2278 70.3886 57.4037 66.775 57.3281C64.0299 57.271 61.6006 58.8233 60.2851 60.6764C58.3111 63.4551 60.0432 65.2157 58.1667 68.3287H58.165Z" stroke="#61D7DA" stroke-width="3" stroke-miterlimit="10" stroke-linecap="round"/>
<path d="M102.651 21.7357C108.367 21.7357 113 26.3691 113 32.0845V120.844C113 126.559 108.367 131.193 102.651 131.193H31.3488C25.6334 131.193 21 126.559 21 120.844V32.0845C21 26.3691 25.6334 21.7357 31.3488 21.7357" stroke="#61D7DA" stroke-width="3" stroke-miterlimit="10" stroke-linecap="round"/>
<path d="M96.0337 17.9557V21.2889C96.0337 23.4443 94.2865 25.1915 92.1311 25.1915H41.8689C39.7135 25.1915 37.9663 23.4443 37.9663 21.2889V17.9557C37.9663 15.8003 39.7135 14.0531 41.8689 14.0531H53.1871C55.0686 8.22015 60.5421 4 67 4C73.4579 4 78.9313 8.22015 80.8129 14.0531H92.1311C94.2865 14.0531 96.0337 15.8003 96.0337 17.9557Z" stroke="#61D7DA" stroke-width="3" stroke-miterlimit="10" stroke-linecap="round"/>
</svg>
