<svg width="95" height="138" viewBox="0 0 95 138" fill="none" xmlns="http://www.w3.org/2000/svg">
<path d="M91.8902 105.485L92 32.441C92.011 26.6097 87.5334 21.8787 82.0133 21.8787H70.4243" stroke="#61D7DA" stroke-width="5" stroke-miterlimit="10" stroke-linecap="round"/>
<path d="M92 121.214V135.151H13.1832C7.56247 135.151 3 130.606 3 124.993V21.8787H26.1709" stroke="#61D7DA" stroke-width="5" stroke-miterlimit="10" stroke-linecap="round"/>
<path d="M67.7272 29.9696H27.2727V16.4848H62.3179C65.3034 16.4848 67.7272 18.5688 67.7272 21.1356V26.2531L67.7272 29.9696Z" stroke="#61D7DA" stroke-width="5" stroke-miterlimit="10" stroke-linecap="round"/>
<path d="M43.4341 63.7824V75.8182H16.4848V46.1515H35.9242C40.0717 46.1515 43.7633 48.5494 43.4341 54.3935" stroke="#61D7DA" stroke-width="5" stroke-miterlimit="10" stroke-linecap="round"/>
<path d="M27.2727 62.5591L32.3668 70.4242L54.2424 56.9394" stroke="#61D7DA" stroke-width="5" stroke-miterlimit="10" stroke-linecap="round"/>
<path d="M43.4341 108.537V121.667H16.4848V89.3031H35.9242C40.0717 89.3031 43.7633 91.919 43.4341 98.2944" stroke="#61D7DA" stroke-width="5" stroke-miterlimit="10" stroke-linecap="round"/>
<path d="M27.2727 105.708L32.3668 113.576L54.2424 100.091" stroke="#61D7DA" stroke-width="5" stroke-miterlimit="10" stroke-linecap="round"/>
<path d="M35.3636 13.7879C35.3636 7.83109 40.4172 3 46.6484 3C49.5704 3 52.2362 4.06315 54.2424 5.80381" stroke="#61D7DA" stroke-width="5" stroke-miterlimit="10" stroke-linecap="round"/>
</svg>
